solid OpenSCAD_Model
  facet normal 0.999699 0.024542 0
    outer loop
      vertex 6.55 0 1.6
      vertex 6.54211 0.321393 0
      vertex 6.54211 0.321393 1.6
    endloop
  endfacet
  facet normal 0.999699 0.024542 0
    outer loop
      vertex 6.54211 0.321393 0
      vertex 6.55 0 1.6
      vertex 6.55 0 0
    endloop
  endfacet
  facet normal 0.997291 0.0735637 0
    outer loop
      vertex 6.54211 0.321393 1.6
      vertex 6.51846 0.642012 0
      vertex 6.51846 0.642012 1.6
    endloop
  endfacet
  facet normal 0.997291 0.0735637 0
    outer loop
      vertex 6.51846 0.642012 0
      vertex 6.54211 0.321393 1.6
      vertex 6.54211 0.321393 0
    endloop
  endfacet
  facet normal 0.992481 0.122399 0
    outer loop
      vertex 6.51846 0.642012 1.6
      vertex 6.47911 0.961085 0
      vertex 6.47911 0.961085 1.6
    endloop
  endfacet
  facet normal 0.992481 0.122399 0
    outer loop
      vertex 6.47911 0.961085 0
      vertex 6.51846 0.642012 1.6
      vertex 6.51846 0.642012 0
    endloop
  endfacet
  facet normal 0.985274 0.170985 0
    outer loop
      vertex 6.47911 0.961085 1.6
      vertex 6.42414 1.27784 0
      vertex 6.42414 1.27784 1.6
    endloop
  endfacet
  facet normal 0.985274 0.170985 0
    outer loop
      vertex 6.42414 1.27784 0
      vertex 6.47911 0.961085 1.6
      vertex 6.47911 0.961085 0
    endloop
  endfacet
  facet normal 0.975702 0.219104 0
    outer loop
      vertex 6.42414 1.27784 1.6
      vertex 6.3537 1.59152 0
      vertex 6.3537 1.59152 1.6
    endloop
  endfacet
  facet normal 0.975702 0.219104 0
    outer loop
      vertex 6.3537 1.59152 0
      vertex 6.42414 1.27784 1.6
      vertex 6.42414 1.27784 0
    endloop
  endfacet
  facet normal 0.963779 0.2667 0
    outer loop
      vertex 6.3537 1.59152 1.6
      vertex 6.26796 1.90136 0
      vertex 6.26796 1.90136 1.6
    endloop
  endfacet
  facet normal 0.963779 0.2667 0
    outer loop
      vertex 6.26796 1.90136 0
      vertex 6.3537 1.59152 1.6
      vertex 6.3537 1.59152 0
    endloop
  endfacet
  facet normal 0.949526 0.313689 0
    outer loop
      vertex 6.26796 1.90136 1.6
      vertex 6.16711 2.20663 0
      vertex 6.16711 2.20663 1.6
    endloop
  endfacet
  facet normal 0.949526 0.313689 0
    outer loop
      vertex 6.16711 2.20663 0
      vertex 6.26796 1.90136 1.6
      vertex 6.26796 1.90136 0
    endloop
  endfacet
  facet normal 0.932996 0.359886 0
    outer loop
      vertex 6.16711 2.20663 1.6
      vertex 6.05141 2.50658 0
      vertex 6.05141 2.50658 1.6
    endloop
  endfacet
  facet normal 0.932996 0.359886 0
    outer loop
      vertex 6.05141 2.50658 0
      vertex 6.16711 2.20663 1.6
      vertex 6.16711 2.20663 0
    endloop
  endfacet
  facet normal 0.914211 0.405238 0
    outer loop
      vertex 6.05141 2.50658 1.6
      vertex 5.92113 2.80049 0
      vertex 5.92113 2.80049 1.6
    endloop
  endfacet
  facet normal 0.914211 0.405238 0
    outer loop
      vertex 5.92113 2.80049 0
      vertex 6.05141 2.50658 1.6
      vertex 6.05141 2.50658 0
    endloop
  endfacet
  facet normal 0.893217 0.449626 0
    outer loop
      vertex 5.92113 2.80049 1.6
      vertex 5.77658 3.08765 0
      vertex 5.77658 3.08765 1.6
    endloop
  endfacet
  facet normal 0.893217 0.449626 0
    outer loop
      vertex 5.77658 3.08765 0
      vertex 5.92113 2.80049 1.6
      vertex 5.92113 2.80049 0
    endloop
  endfacet
  facet normal 0.870086 0.4929 0
    outer loop
      vertex 5.77658 3.08765 1.6
      vertex 5.61812 3.36737 0
      vertex 5.61812 3.36737 1.6
    endloop
  endfacet
  facet normal 0.870086 0.4929 0
    outer loop
      vertex 5.61812 3.36737 0
      vertex 5.77658 3.08765 1.6
      vertex 5.77658 3.08765 0
    endloop
  endfacet
  facet normal 0.844861 0.534986 0
    outer loop
      vertex 5.61812 3.36737 1.6
      vertex 5.44613 3.63898 0
      vertex 5.44613 3.63898 1.6
    endloop
  endfacet
  facet normal 0.844861 0.534986 0
    outer loop
      vertex 5.44613 3.63898 0
      vertex 5.61812 3.36737 1.6
      vertex 5.61812 3.36737 0
    endloop
  endfacet
  facet normal 0.817585 0.575808 0
    outer loop
      vertex 5.44613 3.63898 1.6
      vertex 5.26101 3.90183 0
      vertex 5.26101 3.90183 1.6
    endloop
  endfacet
  facet normal 0.817585 0.575808 0
    outer loop
      vertex 5.26101 3.90183 0
      vertex 5.44613 3.63898 1.6
      vertex 5.44613 3.63898 0
    endloop
  endfacet
  facet normal 0.788353 0.615223 0
    outer loop
      vertex 5.26101 3.90183 1.6
      vertex 5.06322 4.15528 0
      vertex 5.06322 4.15528 1.6
    endloop
  endfacet
  facet normal 0.788353 0.615223 0
    outer loop
      vertex 5.06322 4.15528 0
      vertex 5.26101 3.90183 1.6
      vertex 5.26101 3.90183 0
    endloop
  endfacet
  facet normal 0.7572 0.653183 0
    outer loop
      vertex 5.06322 4.15528 1.6
      vertex 4.85323 4.39871 0
      vertex 4.85323 4.39871 1.6
    endloop
  endfacet
  facet normal 0.7572 0.653183 0
    outer loop
      vertex 4.85323 4.39871 0
      vertex 5.06322 4.15528 1.6
      vertex 5.06322 4.15528 0
    endloop
  endfacet
  facet normal 0.72425 0.689537 0
    outer loop
      vertex 4.85323 4.39871 1.6
      vertex 4.63155 4.63155 0
      vertex 4.63155 4.63155 1.6
    endloop
  endfacet
  facet normal 0.72425 0.689537 0
    outer loop
      vertex 4.63155 4.63155 0
      vertex 4.85323 4.39871 1.6
      vertex 4.85323 4.39871 0
    endloop
  endfacet
  facet normal 0.689537 0.72425 -0
    outer loop
      vertex 4.63155 4.63155 0
      vertex 4.39871 4.85323 1.6
      vertex 4.63155 4.63155 1.6
    endloop
  endfacet
  facet normal 0.689537 0.72425 0
    outer loop
      vertex 4.39871 4.85323 1.6
      vertex 4.63155 4.63155 0
      vertex 4.39871 4.85323 0
    endloop
  endfacet
  facet normal 0.653183 0.7572 -0
    outer loop
      vertex 4.39871 4.85323 0
      vertex 4.15528 5.06322 1.6
      vertex 4.39871 4.85323 1.6
    endloop
  endfacet
  facet normal 0.653183 0.7572 0
    outer loop
      vertex 4.15528 5.06322 1.6
      vertex 4.39871 4.85323 0
      vertex 4.15528 5.06322 0
    endloop
  endfacet
  facet normal 0.615223 0.788353 -0
    outer loop
      vertex 4.15528 5.06322 0
      vertex 3.90183 5.26101 1.6
      vertex 4.15528 5.06322 1.6
    endloop
  endfacet
  facet normal 0.615223 0.788353 0
    outer loop
      vertex 3.90183 5.26101 1.6
      vertex 4.15528 5.06322 0
      vertex 3.90183 5.26101 0
    endloop
  endfacet
  facet normal 0.575808 0.817585 -0
    outer loop
      vertex 3.90183 5.26101 0
      vertex 3.63898 5.44613 1.6
      vertex 3.90183 5.26101 1.6
    endloop
  endfacet
  facet normal 0.575808 0.817585 0
    outer loop
      vertex 3.63898 5.44613 1.6
      vertex 3.90183 5.26101 0
      vertex 3.63898 5.44613 0
    endloop
  endfacet
  facet normal 0.534986 0.844861 -0
    outer loop
      vertex 3.63898 5.44613 0
      vertex 3.36737 5.61812 1.6
      vertex 3.63898 5.44613 1.6
    endloop
  endfacet
  facet normal 0.534986 0.844861 0
    outer loop
      vertex 3.36737 5.61812 1.6
      vertex 3.63898 5.44613 0
      vertex 3.36737 5.61812 0
    endloop
  endfacet
  facet normal 0.4929 0.870086 -0
    outer loop
      vertex 3.36737 5.61812 0
      vertex 3.08765 5.77658 1.6
      vertex 3.36737 5.61812 1.6
    endloop
  endfacet
  facet normal 0.4929 0.870086 0
    outer loop
      vertex 3.08765 5.77658 1.6
      vertex 3.36737 5.61812 0
      vertex 3.08765 5.77658 0
    endloop
  endfacet
  facet normal 0.449626 0.893217 -0
    outer loop
      vertex 3.08765 5.77658 0
      vertex 2.80049 5.92113 1.6
      vertex 3.08765 5.77658 1.6
    endloop
  endfacet
  facet normal 0.449626 0.893217 0
    outer loop
      vertex 2.80049 5.92113 1.6
      vertex 3.08765 5.77658 0
      vertex 2.80049 5.92113 0
    endloop
  endfacet
  facet normal 0.405238 0.914211 -0
    outer loop
      vertex 2.80049 5.92113 0
      vertex 2.50658 6.05141 1.6
      vertex 2.80049 5.92113 1.6
    endloop
  endfacet
  facet normal 0.405238 0.914211 0
    outer loop
      vertex 2.50658 6.05141 1.6
      vertex 2.80049 5.92113 0
      vertex 2.50658 6.05141 0
    endloop
  endfacet
  facet normal 0.359886 0.932996 -0
    outer loop
      vertex 2.50658 6.05141 0
      vertex 2.20663 6.16711 1.6
      vertex 2.50658 6.05141 1.6
    endloop
  endfacet
  facet normal 0.359886 0.932996 0
    outer loop
      vertex 2.20663 6.16711 1.6
      vertex 2.50658 6.05141 0
      vertex 2.20663 6.16711 0
    endloop
  endfacet
  facet normal 0.313689 0.949526 -0
    outer loop
      vertex 2.20663 6.16711 0
      vertex 1.90136 6.26796 1.6
      vertex 2.20663 6.16711 1.6
    endloop
  endfacet
  facet normal 0.313689 0.949526 0
    outer loop
      vertex 1.90136 6.26796 1.6
      vertex 2.20663 6.16711 0
      vertex 1.90136 6.26796 0
    endloop
  endfacet
  facet normal 0.2667 0.963779 -0
    outer loop
      vertex 1.90136 6.26796 0
      vertex 1.59152 6.3537 1.6
      vertex 1.90136 6.26796 1.6
    endloop
  endfacet
  facet normal 0.2667 0.963779 0
    outer loop
      vertex 1.59152 6.3537 1.6
      vertex 1.90136 6.26796 0
      vertex 1.59152 6.3537 0
    endloop
  endfacet
  facet normal 0.219104 0.975702 -0
    outer loop
      vertex 1.59152 6.3537 0
      vertex 1.27784 6.42414 1.6
      vertex 1.59152 6.3537 1.6
    endloop
  endfacet
  facet normal 0.219104 0.975702 0
    outer loop
      vertex 1.27784 6.42414 1.6
      vertex 1.59152 6.3537 0
      vertex 1.27784 6.42414 0
    endloop
  endfacet
  facet normal 0.170985 0.985274 -0
    outer loop
      vertex 1.27784 6.42414 0
      vertex 0.961085 6.47911 1.6
      vertex 1.27784 6.42414 1.6
    endloop
  endfacet
  facet normal 0.170985 0.985274 0
    outer loop
      vertex 0.961085 6.47911 1.6
      vertex 1.27784 6.42414 0
      vertex 0.961085 6.47911 0
    endloop
  endfacet
  facet normal 0.122399 0.992481 -0
    outer loop
      vertex 0.961085 6.47911 0
      vertex 0.642012 6.51846 1.6
      vertex 0.961085 6.47911 1.6
    endloop
  endfacet
  facet normal 0.122399 0.992481 0
    outer loop
      vertex 0.642012 6.51846 1.6
      vertex 0.961085 6.47911 0
      vertex 0.642012 6.51846 0
    endloop
  endfacet
  facet normal 0.0735637 0.997291 -0
    outer loop
      vertex 0.642012 6.51846 0
      vertex 0.321393 6.54211 1.6
      vertex 0.642012 6.51846 1.6
    endloop
  endfacet
  facet normal 0.0735637 0.997291 0
    outer loop
      vertex 0.321393 6.54211 1.6
      vertex 0.642012 6.51846 0
      vertex 0.321393 6.54211 0
    endloop
  endfacet
  facet normal 0.024542 0.999699 -0
    outer loop
      vertex 0.321393 6.54211 0
      vertex 0 6.55 1.6
      vertex 0.321393 6.54211 1.6
    endloop
  endfacet
  facet normal 0.024542 0.999699 0
    outer loop
      vertex 0 6.55 1.6
      vertex 0.321393 6.54211 0
      vertex 0 6.55 0
    endloop
  endfacet
  facet normal -0.024542 0.999699 0
    outer loop
      vertex 0 6.55 0
      vertex -0.321393 6.54211 1.6
      vertex 0 6.55 1.6
    endloop
  endfacet
  facet normal -0.024542 0.999699 0
    outer loop
      vertex -0.321393 6.54211 1.6
      vertex 0 6.55 0
      vertex -0.321393 6.54211 0
    endloop
  endfacet
  facet normal -0.0735637 0.997291 0
    outer loop
      vertex -0.321393 6.54211 0
      vertex -0.642012 6.51846 1.6
      vertex -0.321393 6.54211 1.6
    endloop
  endfacet
  facet normal -0.0735637 0.997291 0
    outer loop
      vertex -0.642012 6.51846 1.6
      vertex -0.321393 6.54211 0
      vertex -0.642012 6.51846 0
    endloop
  endfacet
  facet normal -0.122399 0.992481 0
    outer loop
      vertex -0.642012 6.51846 0
      vertex -0.961085 6.47911 1.6
      vertex -0.642012 6.51846 1.6
    endloop
  endfacet
  facet normal -0.122399 0.992481 0
    outer loop
      vertex -0.961085 6.47911 1.6
      vertex -0.642012 6.51846 0
      vertex -0.961085 6.47911 0
    endloop
  endfacet
  facet normal -0.170985 0.985274 0
    outer loop
      vertex -0.961085 6.47911 0
      vertex -1.27784 6.42414 1.6
      vertex -0.961085 6.47911 1.6
    endloop
  endfacet
  facet normal -0.170985 0.985274 0
    outer loop
      vertex -1.27784 6.42414 1.6
      vertex -0.961085 6.47911 0
      vertex -1.27784 6.42414 0
    endloop
  endfacet
  facet normal -0.219104 0.975702 0
    outer loop
      vertex -1.27784 6.42414 0
      vertex -1.59152 6.3537 1.6
      vertex -1.27784 6.42414 1.6
    endloop
  endfacet
  facet normal -0.219104 0.975702 0
    outer loop
      vertex -1.59152 6.3537 1.6
      vertex -1.27784 6.42414 0
      vertex -1.59152 6.3537 0
    endloop
  endfacet
  facet normal -0.2667 0.963779 0
    outer loop
      vertex -1.59152 6.3537 0
      vertex -1.90136 6.26796 1.6
      vertex -1.59152 6.3537 1.6
    endloop
  endfacet
  facet normal -0.2667 0.963779 0
    outer loop
      vertex -1.90136 6.26796 1.6
      vertex -1.59152 6.3537 0
      vertex -1.90136 6.26796 0
    endloop
  endfacet
  facet normal -0.313689 0.949526 0
    outer loop
      vertex -1.90136 6.26796 0
      vertex -2.20663 6.16711 1.6
      vertex -1.90136 6.26796 1.6
    endloop
  endfacet
  facet normal -0.313689 0.949526 0
    outer loop
      vertex -2.20663 6.16711 1.6
      vertex -1.90136 6.26796 0
      vertex -2.20663 6.16711 0
    endloop
  endfacet
  facet normal -0.359886 0.932996 0
    outer loop
      vertex -2.20663 6.16711 0
      vertex -2.50658 6.05141 1.6
      vertex -2.20663 6.16711 1.6
    endloop
  endfacet
  facet normal -0.359886 0.932996 0
    outer loop
      vertex -2.50658 6.05141 1.6
      vertex -2.20663 6.16711 0
      vertex -2.50658 6.05141 0
    endloop
  endfacet
  facet normal -0.405238 0.914211 0
    outer loop
      vertex -2.50658 6.05141 0
      vertex -2.80049 5.92113 1.6
      vertex -2.50658 6.05141 1.6
    endloop
  endfacet
  facet normal -0.405238 0.914211 0
    outer loop
      vertex -2.80049 5.92113 1.6
      vertex -2.50658 6.05141 0
      vertex -2.80049 5.92113 0
    endloop
  endfacet
  facet normal -0.449626 0.893217 0
    outer loop
      vertex -2.80049 5.92113 0
      vertex -3.08765 5.77658 1.6
      vertex -2.80049 5.92113 1.6
    endloop
  endfacet
  facet normal -0.449626 0.893217 0
    outer loop
      vertex -3.08765 5.77658 1.6
      vertex -2.80049 5.92113 0
      vertex -3.08765 5.77658 0
    endloop
  endfacet
  facet normal -0.4929 0.870086 0
    outer loop
      vertex -3.08765 5.77658 0
      vertex -3.36737 5.61812 1.6
      vertex -3.08765 5.77658 1.6
    endloop
  endfacet
  facet normal -0.4929 0.870086 0
    outer loop
      vertex -3.36737 5.61812 1.6
      vertex -3.08765 5.77658 0
      vertex -3.36737 5.61812 0
    endloop
  endfacet
  facet normal -0.534986 0.844861 0
    outer loop
      vertex -3.36737 5.61812 0
      vertex -3.63898 5.44613 1.6
      vertex -3.36737 5.61812 1.6
    endloop
  endfacet
  facet normal -0.534986 0.844861 0
    outer loop
      vertex -3.63898 5.44613 1.6
      vertex -3.36737 5.61812 0
      vertex -3.63898 5.44613 0
    endloop
  endfacet
  facet normal -0.575808 0.817585 0
    outer loop
      vertex -3.63898 5.44613 0
      vertex -3.90183 5.26101 1.6
      vertex -3.63898 5.44613 1.6
    endloop
  endfacet
  facet normal -0.575808 0.817585 0
    outer loop
      vertex -3.90183 5.26101 1.6
      vertex -3.63898 5.44613 0
      vertex -3.90183 5.26101 0
    endloop
  endfacet
  facet normal -0.615223 0.788353 0
    outer loop
      vertex -3.90183 5.26101 0
      vertex -4.15528 5.06322 1.6
      vertex -3.90183 5.26101 1.6
    endloop
  endfacet
  facet normal -0.615223 0.788353 0
    outer loop
      vertex -4.15528 5.06322 1.6
      vertex -3.90183 5.26101 0
      vertex -4.15528 5.06322 0
    endloop
  endfacet
  facet normal -0.653183 0.7572 0
    outer loop
      vertex -4.15528 5.06322 0
      vertex -4.39871 4.85323 1.6
      vertex -4.15528 5.06322 1.6
    endloop
  endfacet
  facet normal -0.653183 0.7572 0
    outer loop
      vertex -4.39871 4.85323 1.6
      vertex -4.15528 5.06322 0
      vertex -4.39871 4.85323 0
    endloop
  endfacet
  facet normal -0.689537 0.72425 0
    outer loop
      vertex -4.39871 4.85323 0
      vertex -4.63155 4.63155 1.6
      vertex -4.39871 4.85323 1.6
    endloop
  endfacet
  facet normal -0.689537 0.72425 0
    outer loop
      vertex -4.63155 4.63155 1.6
      vertex -4.39871 4.85323 0
      vertex -4.63155 4.63155 0
    endloop
  endfacet
  facet normal -0.72425 0.689537 0
    outer loop
      vertex -4.85323 4.39871 0
      vertex -4.63155 4.63155 1.6
      vertex -4.63155 4.63155 0
    endloop
  endfacet
  facet normal -0.72425 0.689537 0
    outer loop
      vertex -4.63155 4.63155 1.6
      vertex -4.85323 4.39871 0
      vertex -4.85323 4.39871 1.6
    endloop
  endfacet
  facet normal -0.7572 0.653183 0
    outer loop
      vertex -5.06322 4.15528 0
      vertex -4.85323 4.39871 1.6
      vertex -4.85323 4.39871 0
    endloop
  endfacet
  facet normal -0.7572 0.653183 0
    outer loop
      vertex -4.85323 4.39871 1.6
      vertex -5.06322 4.15528 0
      vertex -5.06322 4.15528 1.6
    endloop
  endfacet
  facet normal -0.788353 0.615223 0
    outer loop
      vertex -5.26101 3.90183 0
      vertex -5.06322 4.15528 1.6
      vertex -5.06322 4.15528 0
    endloop
  endfacet
  facet normal -0.788353 0.615223 0
    outer loop
      vertex -5.06322 4.15528 1.6
      vertex -5.26101 3.90183 0
      vertex -5.26101 3.90183 1.6
    endloop
  endfacet
  facet normal -0.817585 0.575808 0
    outer loop
      vertex -5.44613 3.63898 0
      vertex -5.26101 3.90183 1.6
      vertex -5.26101 3.90183 0
    endloop
  endfacet
  facet normal -0.817585 0.575808 0
    outer loop
      vertex -5.26101 3.90183 1.6
      vertex -5.44613 3.63898 0
      vertex -5.44613 3.63898 1.6
    endloop
  endfacet
  facet normal -0.844861 0.534986 0
    outer loop
      vertex -5.61812 3.36737 0
      vertex -5.44613 3.63898 1.6
      vertex -5.44613 3.63898 0
    endloop
  endfacet
  facet normal -0.844861 0.534986 0
    outer loop
      vertex -5.44613 3.63898 1.6
      vertex -5.61812 3.36737 0
      vertex -5.61812 3.36737 1.6
    endloop
  endfacet
  facet normal -0.870086 0.4929 0
    outer loop
      vertex -5.77658 3.08765 0
      vertex -5.61812 3.36737 1.6
      vertex -5.61812 3.36737 0
    endloop
  endfacet
  facet normal -0.870086 0.4929 0
    outer loop
      vertex -5.61812 3.36737 1.6
      vertex -5.77658 3.08765 0
      vertex -5.77658 3.08765 1.6
    endloop
  endfacet
  facet normal -0.893217 0.449626 0
    outer loop
      vertex -5.92113 2.80049 0
      vertex -5.77658 3.08765 1.6
      vertex -5.77658 3.08765 0
    endloop
  endfacet
  facet normal -0.893217 0.449626 0
    outer loop
      vertex -5.77658 3.08765 1.6
      vertex -5.92113 2.80049 0
      vertex -5.92113 2.80049 1.6
    endloop
  endfacet
  facet normal -0.914211 0.405238 0
    outer loop
      vertex -6.05141 2.50658 0
      vertex -5.92113 2.80049 1.6
      vertex -5.92113 2.80049 0
    endloop
  endfacet
  facet normal -0.914211 0.405238 0
    outer loop
      vertex -5.92113 2.80049 1.6
      vertex -6.05141 2.50658 0
      vertex -6.05141 2.50658 1.6
    endloop
  endfacet
  facet normal -0.932996 0.359886 0
    outer loop
      vertex -6.16711 2.20663 0
      vertex -6.05141 2.50658 1.6
      vertex -6.05141 2.50658 0
    endloop
  endfacet
  facet normal -0.932996 0.359886 0
    outer loop
      vertex -6.05141 2.50658 1.6
      vertex -6.16711 2.20663 0
      vertex -6.16711 2.20663 1.6
    endloop
  endfacet
  facet normal -0.949526 0.313689 0
    outer loop
      vertex -6.26796 1.90136 0
      vertex -6.16711 2.20663 1.6
      vertex -6.16711 2.20663 0
    endloop
  endfacet
  facet normal -0.949526 0.313689 0
    outer loop
      vertex -6.16711 2.20663 1.6
      vertex -6.26796 1.90136 0
      vertex -6.26796 1.90136 1.6
    endloop
  endfacet
  facet normal -0.963779 0.2667 0
    outer loop
      vertex -6.3537 1.59152 0
      vertex -6.26796 1.90136 1.6
      vertex -6.26796 1.90136 0
    endloop
  endfacet
  facet normal -0.963779 0.2667 0
    outer loop
      vertex -6.26796 1.90136 1.6
      vertex -6.3537 1.59152 0
      vertex -6.3537 1.59152 1.6
    endloop
  endfacet
  facet normal -0.975702 0.219104 0
    outer loop
      vertex -6.42414 1.27784 0
      vertex -6.3537 1.59152 1.6
      vertex -6.3537 1.59152 0
    endloop
  endfacet
  facet normal -0.975702 0.219104 0
    outer loop
      vertex -6.3537 1.59152 1.6
      vertex -6.42414 1.27784 0
      vertex -6.42414 1.27784 1.6
    endloop
  endfacet
  facet normal -0.985274 0.170985 0
    outer loop
      vertex -6.47911 0.961085 0
      vertex -6.42414 1.27784 1.6
      vertex -6.42414 1.27784 0
    endloop
  endfacet
  facet normal -0.985274 0.170985 0
    outer loop
      vertex -6.42414 1.27784 1.6
      vertex -6.47911 0.961085 0
      vertex -6.47911 0.961085 1.6
    endloop
  endfacet
  facet normal -0.992481 0.122399 0
    outer loop
      vertex -6.51846 0.642012 0
      vertex -6.47911 0.961085 1.6
      vertex -6.47911 0.961085 0
    endloop
  endfacet
  facet normal -0.992481 0.122399 0
    outer loop
      vertex -6.47911 0.961085 1.6
      vertex -6.51846 0.642012 0
      vertex -6.51846 0.642012 1.6
    endloop
  endfacet
  facet normal -0.997291 0.0735637 0
    outer loop
      vertex -6.54211 0.321393 0
      vertex -6.51846 0.642012 1.6
      vertex -6.51846 0.642012 0
    endloop
  endfacet
  facet normal -0.997291 0.0735637 0
    outer loop
      vertex -6.51846 0.642012 1.6
      vertex -6.54211 0.321393 0
      vertex -6.54211 0.321393 1.6
    endloop
  endfacet
  facet normal -0.999699 0.024542 0
    outer loop
      vertex -6.55 -0 0
      vertex -6.54211 0.321393 1.6
      vertex -6.54211 0.321393 0
    endloop
  endfacet
  facet normal -0.999699 0.024542 0
    outer loop
      vertex -6.54211 0.321393 1.6
      vertex -6.55 -0 0
      vertex -6.55 -0 1.6
    endloop
  endfacet
  facet normal -0.999699 -0.024542 0
    outer loop
      vertex -6.54211 -0.321393 0
      vertex -6.55 -0 1.6
      vertex -6.55 -0 0
    endloop
  endfacet
  facet normal -0.999699 -0.024542 0
    outer loop
      vertex -6.55 -0 1.6
      vertex -6.54211 -0.321393 0
      vertex -6.54211 -0.321393 1.6
    endloop
  endfacet
  facet normal -0.997291 -0.0735637 0
    outer loop
      vertex -6.51846 -0.642012 0
      vertex -6.54211 -0.321393 1.6
      vertex -6.54211 -0.321393 0
    endloop
  endfacet
  facet normal -0.997291 -0.0735637 0
    outer loop
      vertex -6.54211 -0.321393 1.6
      vertex -6.51846 -0.642012 0
      vertex -6.51846 -0.642012 1.6
    endloop
  endfacet
  facet normal -0.992481 -0.122399 0
    outer loop
      vertex -6.47911 -0.961085 0
      vertex -6.51846 -0.642012 1.6
      vertex -6.51846 -0.642012 0
    endloop
  endfacet
  facet normal -0.992481 -0.122399 0
    outer loop
      vertex -6.51846 -0.642012 1.6
      vertex -6.47911 -0.961085 0
      vertex -6.47911 -0.961085 1.6
    endloop
  endfacet
  facet normal -0.985274 -0.170985 0
    outer loop
      vertex -6.42414 -1.27784 0
      vertex -6.47911 -0.961085 1.6
      vertex -6.47911 -0.961085 0
    endloop
  endfacet
  facet normal -0.985274 -0.170985 0
    outer loop
      vertex -6.47911 -0.961085 1.6
      vertex -6.42414 -1.27784 0
      vertex -6.42414 -1.27784 1.6
    endloop
  endfacet
  facet normal -0.975702 -0.219104 0
    outer loop
      vertex -6.3537 -1.59152 0
      vertex -6.42414 -1.27784 1.6
      vertex -6.42414 -1.27784 0
    endloop
  endfacet
  facet normal -0.975702 -0.219104 0
    outer loop
      vertex -6.42414 -1.27784 1.6
      vertex -6.3537 -1.59152 0
      vertex -6.3537 -1.59152 1.6
    endloop
  endfacet
  facet normal -0.963779 -0.2667 0
    outer loop
      vertex -6.26796 -1.90136 0
      vertex -6.3537 -1.59152 1.6
      vertex -6.3537 -1.59152 0
    endloop
  endfacet
  facet normal -0.963779 -0.2667 0
    outer loop
      vertex -6.3537 -1.59152 1.6
      vertex -6.26796 -1.90136 0
      vertex -6.26796 -1.90136 1.6
    endloop
  endfacet
  facet normal -0.949526 -0.313689 0
    outer loop
      vertex -6.16711 -2.20663 0
      vertex -6.26796 -1.90136 1.6
      vertex -6.26796 -1.90136 0
    endloop
  endfacet
  facet normal -0.949526 -0.313689 0
    outer loop
      vertex -6.26796 -1.90136 1.6
      vertex -6.16711 -2.20663 0
      vertex -6.16711 -2.20663 1.6
    endloop
  endfacet
  facet normal -0.932996 -0.359886 0
    outer loop
      vertex -6.05141 -2.50658 0
      vertex -6.16711 -2.20663 1.6
      vertex -6.16711 -2.20663 0
    endloop
  endfacet
  facet normal -0.932996 -0.359886 0
    outer loop
      vertex -6.16711 -2.20663 1.6
      vertex -6.05141 -2.50658 0
      vertex -6.05141 -2.50658 1.6
    endloop
  endfacet
  facet normal -0.914211 -0.405238 0
    outer loop
      vertex -5.92113 -2.80049 0
      vertex -6.05141 -2.50658 1.6
      vertex -6.05141 -2.50658 0
    endloop
  endfacet
  facet normal -0.914211 -0.405238 0
    outer loop
      vertex -6.05141 -2.50658 1.6
      vertex -5.92113 -2.80049 0
      vertex -5.92113 -2.80049 1.6
    endloop
  endfacet
  facet normal -0.893217 -0.449626 0
    outer loop
      vertex -5.77658 -3.08765 0
      vertex -5.92113 -2.80049 1.6
      vertex -5.92113 -2.80049 0
    endloop
  endfacet
  facet normal -0.893217 -0.449626 0
    outer loop
      vertex -5.92113 -2.80049 1.6
      vertex -5.77658 -3.08765 0
      vertex -5.77658 -3.08765 1.6
    endloop
  endfacet
  facet normal -0.870086 -0.4929 0
    outer loop
      vertex -5.61812 -3.36737 0
      vertex -5.77658 -3.08765 1.6
      vertex -5.77658 -3.08765 0
    endloop
  endfacet
  facet normal -0.870086 -0.4929 0
    outer loop
      vertex -5.77658 -3.08765 1.6
      vertex -5.61812 -3.36737 0
      vertex -5.61812 -3.36737 1.6
    endloop
  endfacet
  facet normal -0.844861 -0.534986 0
    outer loop
      vertex -5.44613 -3.63898 0
      vertex -5.61812 -3.36737 1.6
      vertex -5.61812 -3.36737 0
    endloop
  endfacet
  facet normal -0.844861 -0.534986 0
    outer loop
      vertex -5.61812 -3.36737 1.6
      vertex -5.44613 -3.63898 0
      vertex -5.44613 -3.63898 1.6
    endloop
  endfacet
  facet normal -0.817585 -0.575808 0
    outer loop
      vertex -5.26101 -3.90183 0
      vertex -5.44613 -3.63898 1.6
      vertex -5.44613 -3.63898 0
    endloop
  endfacet
  facet normal -0.817585 -0.575808 0
    outer loop
      vertex -5.44613 -3.63898 1.6
      vertex -5.26101 -3.90183 0
      vertex -5.26101 -3.90183 1.6
    endloop
  endfacet
  facet normal -0.788353 -0.615223 0
    outer loop
      vertex -5.06322 -4.15528 0
      vertex -5.26101 -3.90183 1.6
      vertex -5.26101 -3.90183 0
    endloop
  endfacet
  facet normal -0.788353 -0.615223 0
    outer loop
      vertex -5.26101 -3.90183 1.6
      vertex -5.06322 -4.15528 0
      vertex -5.06322 -4.15528 1.6
    endloop
  endfacet
  facet normal -0.7572 -0.653183 0
    outer loop
      vertex -4.85323 -4.39871 0
      vertex -5.06322 -4.15528 1.6
      vertex -5.06322 -4.15528 0
    endloop
  endfacet
  facet normal -0.7572 -0.653183 0
    outer loop
      vertex -5.06322 -4.15528 1.6
      vertex -4.85323 -4.39871 0
      vertex -4.85323 -4.39871 1.6
    endloop
  endfacet
  facet normal -0.72425 -0.689537 0
    outer loop
      vertex -4.63155 -4.63155 0
      vertex -4.85323 -4.39871 1.6
      vertex -4.85323 -4.39871 0
    endloop
  endfacet
  facet normal -0.72425 -0.689537 0
    outer loop
      vertex -4.85323 -4.39871 1.6
      vertex -4.63155 -4.63155 0
      vertex -4.63155 -4.63155 1.6
    endloop
  endfacet
  facet normal -0.689537 -0.72425 0
    outer loop
      vertex -4.63155 -4.63155 0
      vertex -4.39871 -4.85323 1.6
      vertex -4.63155 -4.63155 1.6
    endloop
  endfacet
  facet normal -0.689537 -0.72425 -0
    outer loop
      vertex -4.39871 -4.85323 1.6
      vertex -4.63155 -4.63155 0
      vertex -4.39871 -4.85323 0
    endloop
  endfacet
  facet normal -0.653183 -0.7572 0
    outer loop
      vertex -4.39871 -4.85323 0
      vertex -4.15528 -5.06322 1.6
      vertex -4.39871 -4.85323 1.6
    endloop
  endfacet
  facet normal -0.653183 -0.7572 -0
    outer loop
      vertex -4.15528 -5.06322 1.6
      vertex -4.39871 -4.85323 0
      vertex -4.15528 -5.06322 0
    endloop
  endfacet
  facet normal -0.615223 -0.788353 0
    outer loop
      vertex -4.15528 -5.06322 0
      vertex -3.90183 -5.26101 1.6
      vertex -4.15528 -5.06322 1.6
    endloop
  endfacet
  facet normal -0.615223 -0.788353 -0
    outer loop
      vertex -3.90183 -5.26101 1.6
      vertex -4.15528 -5.06322 0
      vertex -3.90183 -5.26101 0
    endloop
  endfacet
  facet normal -0.575808 -0.817585 0
    outer loop
      vertex -3.90183 -5.26101 0
      vertex -3.63898 -5.44613 1.6
      vertex -3.90183 -5.26101 1.6
    endloop
  endfacet
  facet normal -0.575808 -0.817585 -0
    outer loop
      vertex -3.63898 -5.44613 1.6
      vertex -3.90183 -5.26101 0
      vertex -3.63898 -5.44613 0
    endloop
  endfacet
  facet normal -0.534986 -0.844861 0
    outer loop
      vertex -3.63898 -5.44613 0
      vertex -3.36737 -5.61812 1.6
      vertex -3.63898 -5.44613 1.6
    endloop
  endfacet
  facet normal -0.534986 -0.844861 -0
    outer loop
      vertex -3.36737 -5.61812 1.6
      vertex -3.63898 -5.44613 0
      vertex -3.36737 -5.61812 0
    endloop
  endfacet
  facet normal -0.4929 -0.870086 0
    outer loop
      vertex -3.36737 -5.61812 0
      vertex -3.08765 -5.77658 1.6
      vertex -3.36737 -5.61812 1.6
    endloop
  endfacet
  facet normal -0.4929 -0.870086 -0
    outer loop
      vertex -3.08765 -5.77658 1.6
      vertex -3.36737 -5.61812 0
      vertex -3.08765 -5.77658 0
    endloop
  endfacet
  facet normal -0.449626 -0.893217 0
    outer loop
      vertex -3.08765 -5.77658 0
      vertex -2.80049 -5.92113 1.6
      vertex -3.08765 -5.77658 1.6
    endloop
  endfacet
  facet normal -0.449626 -0.893217 -0
    outer loop
      vertex -2.80049 -5.92113 1.6
      vertex -3.08765 -5.77658 0
      vertex -2.80049 -5.92113 0
    endloop
  endfacet
  facet normal -0.405238 -0.914211 0
    outer loop
      vertex -2.80049 -5.92113 0
      vertex -2.50658 -6.05141 1.6
      vertex -2.80049 -5.92113 1.6
    endloop
  endfacet
  facet normal -0.405238 -0.914211 -0
    outer loop
      vertex -2.50658 -6.05141 1.6
      vertex -2.80049 -5.92113 0
      vertex -2.50658 -6.05141 0
    endloop
  endfacet
  facet normal -0.359886 -0.932996 0
    outer loop
      vertex -2.50658 -6.05141 0
      vertex -2.20663 -6.16711 1.6
      vertex -2.50658 -6.05141 1.6
    endloop
  endfacet
  facet normal -0.359886 -0.932996 -0
    outer loop
      vertex -2.20663 -6.16711 1.6
      vertex -2.50658 -6.05141 0
      vertex -2.20663 -6.16711 0
    endloop
  endfacet
  facet normal -0.313689 -0.949526 0
    outer loop
      vertex -2.20663 -6.16711 0
      vertex -1.90136 -6.26796 1.6
      vertex -2.20663 -6.16711 1.6
    endloop
  endfacet
  facet normal -0.313689 -0.949526 -0
    outer loop
      vertex -1.90136 -6.26796 1.6
      vertex -2.20663 -6.16711 0
      vertex -1.90136 -6.26796 0
    endloop
  endfacet
  facet normal -0.2667 -0.963779 0
    outer loop
      vertex -1.90136 -6.26796 0
      vertex -1.59152 -6.3537 1.6
      vertex -1.90136 -6.26796 1.6
    endloop
  endfacet
  facet normal -0.2667 -0.963779 -0
    outer loop
      vertex -1.59152 -6.3537 1.6
      vertex -1.90136 -6.26796 0
      vertex -1.59152 -6.3537 0
    endloop
  endfacet
  facet normal -0.219104 -0.975702 0
    outer loop
      vertex -1.59152 -6.3537 0
      vertex -1.27784 -6.42414 1.6
      vertex -1.59152 -6.3537 1.6
    endloop
  endfacet
  facet normal -0.219104 -0.975702 -0
    outer loop
      vertex -1.27784 -6.42414 1.6
      vertex -1.59152 -6.3537 0
      vertex -1.27784 -6.42414 0
    endloop
  endfacet
  facet normal -0.170985 -0.985274 0
    outer loop
      vertex -1.27784 -6.42414 0
      vertex -0.961085 -6.47911 1.6
      vertex -1.27784 -6.42414 1.6
    endloop
  endfacet
  facet normal -0.170985 -0.985274 -0
    outer loop
      vertex -0.961085 -6.47911 1.6
      vertex -1.27784 -6.42414 0
      vertex -0.961085 -6.47911 0
    endloop
  endfacet
  facet normal -0.122399 -0.992481 0
    outer loop
      vertex -0.961085 -6.47911 0
      vertex -0.642012 -6.51846 1.6
      vertex -0.961085 -6.47911 1.6
    endloop
  endfacet
  facet normal -0.122399 -0.992481 -0
    outer loop
      vertex -0.642012 -6.51846 1.6
      vertex -0.961085 -6.47911 0
      vertex -0.642012 -6.51846 0
    endloop
  endfacet
  facet normal -0.0735637 -0.997291 0
    outer loop
      vertex -0.642012 -6.51846 0
      vertex -0.321393 -6.54211 1.6
      vertex -0.642012 -6.51846 1.6
    endloop
  endfacet
  facet normal -0.0735637 -0.997291 -0
    outer loop
      vertex -0.321393 -6.54211 1.6
      vertex -0.642012 -6.51846 0
      vertex -0.321393 -6.54211 0
    endloop
  endfacet
  facet normal -0.024542 -0.999699 0
    outer loop
      vertex -0.321393 -6.54211 0
      vertex -0 -6.55 1.6
      vertex -0.321393 -6.54211 1.6
    endloop
  endfacet
  facet normal -0.024542 -0.999699 -0
    outer loop
      vertex -0 -6.55 1.6
      vertex -0.321393 -6.54211 0
      vertex -0 -6.55 0
    endloop
  endfacet
  facet normal 0.024542 -0.999699 0
    outer loop
      vertex -0 -6.55 0
      vertex 0.321393 -6.54211 1.6
      vertex -0 -6.55 1.6
    endloop
  endfacet
  facet normal 0.024542 -0.999699 0
    outer loop
      vertex 0.321393 -6.54211 1.6
      vertex -0 -6.55 0
      vertex 0.321393 -6.54211 0
    endloop
  endfacet
  facet normal 0.0735637 -0.997291 0
    outer loop
      vertex 0.321393 -6.54211 0
      vertex 0.642012 -6.51846 1.6
      vertex 0.321393 -6.54211 1.6
    endloop
  endfacet
  facet normal 0.0735637 -0.997291 0
    outer loop
      vertex 0.642012 -6.51846 1.6
      vertex 0.321393 -6.54211 0
      vertex 0.642012 -6.51846 0
    endloop
  endfacet
  facet normal 0.122399 -0.992481 0
    outer loop
      vertex 0.642012 -6.51846 0
      vertex 0.961085 -6.47911 1.6
      vertex 0.642012 -6.51846 1.6
    endloop
  endfacet
  facet normal 0.122399 -0.992481 0
    outer loop
      vertex 0.961085 -6.47911 1.6
      vertex 0.642012 -6.51846 0
      vertex 0.961085 -6.47911 0
    endloop
  endfacet
  facet normal 0.170985 -0.985274 0
    outer loop
      vertex 0.961085 -6.47911 0
      vertex 1.27784 -6.42414 1.6
      vertex 0.961085 -6.47911 1.6
    endloop
  endfacet
  facet normal 0.170985 -0.985274 0
    outer loop
      vertex 1.27784 -6.42414 1.6
      vertex 0.961085 -6.47911 0
      vertex 1.27784 -6.42414 0
    endloop
  endfacet
  facet normal 0.219104 -0.975702 0
    outer loop
      vertex 1.27784 -6.42414 0
      vertex 1.59152 -6.3537 1.6
      vertex 1.27784 -6.42414 1.6
    endloop
  endfacet
  facet normal 0.219104 -0.975702 0
    outer loop
      vertex 1.59152 -6.3537 1.6
      vertex 1.27784 -6.42414 0
      vertex 1.59152 -6.3537 0
    endloop
  endfacet
  facet normal 0.2667 -0.963779 0
    outer loop
      vertex 1.59152 -6.3537 0
      vertex 1.90136 -6.26796 1.6
      vertex 1.59152 -6.3537 1.6
    endloop
  endfacet
  facet normal 0.2667 -0.963779 0
    outer loop
      vertex 1.90136 -6.26796 1.6
      vertex 1.59152 -6.3537 0
      vertex 1.90136 -6.26796 0
    endloop
  endfacet
  facet normal 0.313689 -0.949526 0
    outer loop
      vertex 1.90136 -6.26796 0
      vertex 2.20663 -6.16711 1.6
      vertex 1.90136 -6.26796 1.6
    endloop
  endfacet
  facet normal 0.313689 -0.949526 0
    outer loop
      vertex 2.20663 -6.16711 1.6
      vertex 1.90136 -6.26796 0
      vertex 2.20663 -6.16711 0
    endloop
  endfacet
  facet normal 0.359886 -0.932996 0
    outer loop
      vertex 2.20663 -6.16711 0
      vertex 2.50658 -6.05141 1.6
      vertex 2.20663 -6.16711 1.6
    endloop
  endfacet
  facet normal 0.359886 -0.932996 0
    outer loop
      vertex 2.50658 -6.05141 1.6
      vertex 2.20663 -6.16711 0
      vertex 2.50658 -6.05141 0
    endloop
  endfacet
  facet normal 0.405238 -0.914211 0
    outer loop
      vertex 2.50658 -6.05141 0
      vertex 2.80049 -5.92113 1.6
      vertex 2.50658 -6.05141 1.6
    endloop
  endfacet
  facet normal 0.405238 -0.914211 0
    outer loop
      vertex 2.80049 -5.92113 1.6
      vertex 2.50658 -6.05141 0
      vertex 2.80049 -5.92113 0
    endloop
  endfacet
  facet normal 0.449626 -0.893217 0
    outer loop
      vertex 2.80049 -5.92113 0
      vertex 3.08765 -5.77658 1.6
      vertex 2.80049 -5.92113 1.6
    endloop
  endfacet
  facet normal 0.449626 -0.893217 0
    outer loop
      vertex 3.08765 -5.77658 1.6
      vertex 2.80049 -5.92113 0
      vertex 3.08765 -5.77658 0
    endloop
  endfacet
  facet normal 0.4929 -0.870086 0
    outer loop
      vertex 3.08765 -5.77658 0
      vertex 3.36737 -5.61812 1.6
      vertex 3.08765 -5.77658 1.6
    endloop
  endfacet
  facet normal 0.4929 -0.870086 0
    outer loop
      vertex 3.36737 -5.61812 1.6
      vertex 3.08765 -5.77658 0
      vertex 3.36737 -5.61812 0
    endloop
  endfacet
  facet normal 0.534986 -0.844861 0
    outer loop
      vertex 3.36737 -5.61812 0
      vertex 3.63898 -5.44613 1.6
      vertex 3.36737 -5.61812 1.6
    endloop
  endfacet
  facet normal 0.534986 -0.844861 0
    outer loop
      vertex 3.63898 -5.44613 1.6
      vertex 3.36737 -5.61812 0
      vertex 3.63898 -5.44613 0
    endloop
  endfacet
  facet normal 0.575808 -0.817585 0
    outer loop
      vertex 3.63898 -5.44613 0
      vertex 3.90183 -5.26101 1.6
      vertex 3.63898 -5.44613 1.6
    endloop
  endfacet
  facet normal 0.575808 -0.817585 0
    outer loop
      vertex 3.90183 -5.26101 1.6
      vertex 3.63898 -5.44613 0
      vertex 3.90183 -5.26101 0
    endloop
  endfacet
  facet normal 0.615223 -0.788353 0
    outer loop
      vertex 3.90183 -5.26101 0
      vertex 4.15528 -5.06322 1.6
      vertex 3.90183 -5.26101 1.6
    endloop
  endfacet
  facet normal 0.615223 -0.788353 0
    outer loop
      vertex 4.15528 -5.06322 1.6
      vertex 3.90183 -5.26101 0
      vertex 4.15528 -5.06322 0
    endloop
  endfacet
  facet normal 0.653183 -0.7572 0
    outer loop
      vertex 4.15528 -5.06322 0
      vertex 4.39871 -4.85323 1.6
      vertex 4.15528 -5.06322 1.6
    endloop
  endfacet
  facet normal 0.653183 -0.7572 0
    outer loop
      vertex 4.39871 -4.85323 1.6
      vertex 4.15528 -5.06322 0
      vertex 4.39871 -4.85323 0
    endloop
  endfacet
  facet normal 0.689537 -0.72425 0
    outer loop
      vertex 4.39871 -4.85323 0
      vertex 4.63155 -4.63155 1.6
      vertex 4.39871 -4.85323 1.6
    endloop
  endfacet
  facet normal 0.689537 -0.72425 0
    outer loop
      vertex 4.63155 -4.63155 1.6
      vertex 4.39871 -4.85323 0
      vertex 4.63155 -4.63155 0
    endloop
  endfacet
  facet normal 0.72425 -0.689537 0
    outer loop
      vertex 4.63155 -4.63155 1.6
      vertex 4.85323 -4.39871 0
      vertex 4.85323 -4.39871 1.6
    endloop
  endfacet
  facet normal 0.72425 -0.689537 0
    outer loop
      vertex 4.85323 -4.39871 0
      vertex 4.63155 -4.63155 1.6
      vertex 4.63155 -4.63155 0
    endloop
  endfacet
  facet normal 0.7572 -0.653183 0
    outer loop
      vertex 4.85323 -4.39871 1.6
      vertex 5.06322 -4.15528 0
      vertex 5.06322 -4.15528 1.6
    endloop
  endfacet
  facet normal 0.7572 -0.653183 0
    outer loop
      vertex 5.06322 -4.15528 0
      vertex 4.85323 -4.39871 1.6
      vertex 4.85323 -4.39871 0
    endloop
  endfacet
  facet normal 0.788353 -0.615223 0
    outer loop
      vertex 5.06322 -4.15528 1.6
      vertex 5.26101 -3.90183 0
      vertex 5.26101 -3.90183 1.6
    endloop
  endfacet
  facet normal 0.788353 -0.615223 0
    outer loop
      vertex 5.26101 -3.90183 0
      vertex 5.06322 -4.15528 1.6
      vertex 5.06322 -4.15528 0
    endloop
  endfacet
  facet normal 0.817585 -0.575808 0
    outer loop
      vertex 5.26101 -3.90183 1.6
      vertex 5.44613 -3.63898 0
      vertex 5.44613 -3.63898 1.6
    endloop
  endfacet
  facet normal 0.817585 -0.575808 0
    outer loop
      vertex 5.44613 -3.63898 0
      vertex 5.26101 -3.90183 1.6
      vertex 5.26101 -3.90183 0
    endloop
  endfacet
  facet normal 0.844861 -0.534986 0
    outer loop
      vertex 5.44613 -3.63898 1.6
      vertex 5.61812 -3.36737 0
      vertex 5.61812 -3.36737 1.6
    endloop
  endfacet
  facet normal 0.844861 -0.534986 0
    outer loop
      vertex 5.61812 -3.36737 0
      vertex 5.44613 -3.63898 1.6
      vertex 5.44613 -3.63898 0
    endloop
  endfacet
  facet normal 0.870086 -0.4929 0
    outer loop
      vertex 5.61812 -3.36737 1.6
      vertex 5.77658 -3.08765 0
      vertex 5.77658 -3.08765 1.6
    endloop
  endfacet
  facet normal 0.870086 -0.4929 0
    outer loop
      vertex 5.77658 -3.08765 0
      vertex 5.61812 -3.36737 1.6
      vertex 5.61812 -3.36737 0
    endloop
  endfacet
  facet normal 0.893217 -0.449626 0
    outer loop
      vertex 5.77658 -3.08765 1.6
      vertex 5.92113 -2.80049 0
      vertex 5.92113 -2.80049 1.6
    endloop
  endfacet
  facet normal 0.893217 -0.449626 0
    outer loop
      vertex 5.92113 -2.80049 0
      vertex 5.77658 -3.08765 1.6
      vertex 5.77658 -3.08765 0
    endloop
  endfacet
  facet normal 0.914211 -0.405238 0
    outer loop
      vertex 5.92113 -2.80049 1.6
      vertex 6.05141 -2.50658 0
      vertex 6.05141 -2.50658 1.6
    endloop
  endfacet
  facet normal 0.914211 -0.405238 0
    outer loop
      vertex 6.05141 -2.50658 0
      vertex 5.92113 -2.80049 1.6
      vertex 5.92113 -2.80049 0
    endloop
  endfacet
  facet normal 0.932996 -0.359886 0
    outer loop
      vertex 6.05141 -2.50658 1.6
      vertex 6.16711 -2.20663 0
      vertex 6.16711 -2.20663 1.6
    endloop
  endfacet
  facet normal 0.932996 -0.359886 0
    outer loop
      vertex 6.16711 -2.20663 0
      vertex 6.05141 -2.50658 1.6
      vertex 6.05141 -2.50658 0
    endloop
  endfacet
  facet normal 0.949526 -0.313689 0
    outer loop
      vertex 6.16711 -2.20663 1.6
      vertex 6.26796 -1.90136 0
      vertex 6.26796 -1.90136 1.6
    endloop
  endfacet
  facet normal 0.949526 -0.313689 0
    outer loop
      vertex 6.26796 -1.90136 0
      vertex 6.16711 -2.20663 1.6
      vertex 6.16711 -2.20663 0
    endloop
  endfacet
  facet normal 0.963779 -0.2667 0
    outer loop
      vertex 6.26796 -1.90136 1.6
      vertex 6.3537 -1.59152 0
      vertex 6.3537 -1.59152 1.6
    endloop
  endfacet
  facet normal 0.963779 -0.2667 0
    outer loop
      vertex 6.3537 -1.59152 0
      vertex 6.26796 -1.90136 1.6
      vertex 6.26796 -1.90136 0
    endloop
  endfacet
  facet normal 0.975702 -0.219104 0
    outer loop
      vertex 6.3537 -1.59152 1.6
      vertex 6.42414 -1.27784 0
      vertex 6.42414 -1.27784 1.6
    endloop
  endfacet
  facet normal 0.975702 -0.219104 0
    outer loop
      vertex 6.42414 -1.27784 0
      vertex 6.3537 -1.59152 1.6
      vertex 6.3537 -1.59152 0
    endloop
  endfacet
  facet normal 0.985274 -0.170985 0
    outer loop
      vertex 6.42414 -1.27784 1.6
      vertex 6.47911 -0.961085 0
      vertex 6.47911 -0.961085 1.6
    endloop
  endfacet
  facet normal 0.985274 -0.170985 0
    outer loop
      vertex 6.47911 -0.961085 0
      vertex 6.42414 -1.27784 1.6
      vertex 6.42414 -1.27784 0
    endloop
  endfacet
  facet normal 0.992481 -0.122399 0
    outer loop
      vertex 6.47911 -0.961085 1.6
      vertex 6.51846 -0.642012 0
      vertex 6.51846 -0.642012 1.6
    endloop
  endfacet
  facet normal 0.992481 -0.122399 0
    outer loop
      vertex 6.51846 -0.642012 0
      vertex 6.47911 -0.961085 1.6
      vertex 6.47911 -0.961085 0
    endloop
  endfacet
  facet normal 0.997291 -0.0735637 0
    outer loop
      vertex 6.51846 -0.642012 1.6
      vertex 6.54211 -0.321393 0
      vertex 6.54211 -0.321393 1.6
    endloop
  endfacet
  facet normal 0.997291 -0.0735637 0
    outer loop
      vertex 6.54211 -0.321393 0
      vertex 6.51846 -0.642012 1.6
      vertex 6.51846 -0.642012 0
    endloop
  endfacet
  facet normal 0.999699 -0.024542 0
    outer loop
      vertex 6.54211 -0.321393 1.6
      vertex 6.55 0 0
      vertex 6.55 0 1.6
    endloop
  endfacet
  facet normal 0.999699 -0.024542 0
    outer loop
      vertex 6.55 0 0
      vertex 6.54211 -0.321393 1.6
      vertex 6.54211 -0.321393 0
    endloop
  endfacet
  facet normal 0 0 -1
    outer loop
      vertex 6.54211 -0.321393 0
      vertex 6.54211 0.321393 0
      vertex 6.55 0 0
    endloop
  endfacet
  facet normal 0 0 -1
    outer loop
      vertex 6.51846 -0.642012 0
      vertex 6.54211 0.321393 0
      vertex 6.54211 -0.321393 0
    endloop
  endfacet
  facet normal 0 0 -1
    outer loop
      vertex 6.51846 -0.642012 0
      vertex 6.51846 0.642012 0
      vertex 6.54211 0.321393 0
    endloop
  endfacet
  facet normal 0 0 -1
    outer loop
      vertex 6.47911 -0.961085 0
      vertex 6.51846 0.642012 0
      vertex 6.51846 -0.642012 0
    endloop
  endfacet
  facet normal 0 0 -1
    outer loop
      vertex 6.47911 -0.961085 0
      vertex 6.47911 0.961085 0
      vertex 6.51846 0.642012 0
    endloop
  endfacet
  facet normal 0 0 -1
    outer loop
      vertex 6.42414 -1.27784 0
      vertex 6.47911 0.961085 0
      vertex 6.47911 -0.961085 0
    endloop
  endfacet
  facet normal 0 0 -1
    outer loop
      vertex 6.42414 -1.27784 0
      vertex 6.42414 1.27784 0
      vertex 6.47911 0.961085 0
    endloop
  endfacet
  facet normal 0 0 -1
    outer loop
      vertex 6.3537 -1.59152 0
      vertex 6.42414 1.27784 0
      vertex 6.42414 -1.27784 0
    endloop
  endfacet
  facet normal 0 0 -1
    outer loop
      vertex 6.3537 -1.59152 0
      vertex 6.3537 1.59152 0
      vertex 6.42414 1.27784 0
    endloop
  endfacet
  facet normal 0 0 -1
    outer loop
      vertex 6.26796 -1.90136 0
      vertex 6.3537 1.59152 0
      vertex 6.3537 -1.59152 0
    endloop
  endfacet
  facet normal 0 0 -1
    outer loop
      vertex 6.26796 -1.90136 0
      vertex 6.26796 1.90136 0
      vertex 6.3537 1.59152 0
    endloop
  endfacet
  facet normal 0 0 -1
    outer loop
      vertex 6.16711 -2.20663 0
      vertex 6.26796 1.90136 0
      vertex 6.26796 -1.90136 0
    endloop
  endfacet
  facet normal 0 0 -1
    outer loop
      vertex 6.16711 -2.20663 0
      vertex 6.16711 2.20663 0
      vertex 6.26796 1.90136 0
    endloop
  endfacet
  facet normal 0 0 -1
    outer loop
      vertex 6.05141 -2.50658 0
      vertex 6.16711 2.20663 0
      vertex 6.16711 -2.20663 0
    endloop
  endfacet
  facet normal 0 0 -1
    outer loop
      vertex 6.05141 -2.50658 0
      vertex 6.05141 2.50658 0
      vertex 6.16711 2.20663 0
    endloop
  endfacet
  facet normal 0 0 -1
    outer loop
      vertex 5.92113 -2.80049 0
      vertex 6.05141 2.50658 0
      vertex 6.05141 -2.50658 0
    endloop
  endfacet
  facet normal 0 0 -1
    outer loop
      vertex 5.92113 -2.80049 0
      vertex 5.92113 2.80049 0
      vertex 6.05141 2.50658 0
    endloop
  endfacet
  facet normal 0 0 -1
    outer loop
      vertex 5.77658 -3.08765 0
      vertex 5.92113 2.80049 0
      vertex 5.92113 -2.80049 0
    endloop
  endfacet
  facet normal 0 0 -1
    outer loop
      vertex 5.77658 -3.08765 0
      vertex 5.77658 3.08765 0
      vertex 5.92113 2.80049 0
    endloop
  endfacet
  facet normal 0 0 -1
    outer loop
      vertex 5.61812 -3.36737 0
      vertex 5.77658 3.08765 0
      vertex 5.77658 -3.08765 0
    endloop
  endfacet
  facet normal 0 0 -1
    outer loop
      vertex 5.61812 -3.36737 0
      vertex 5.61812 3.36737 0
      vertex 5.77658 3.08765 0
    endloop
  endfacet
  facet normal 0 0 -1
    outer loop
      vertex 5.44613 -3.63898 0
      vertex 5.61812 3.36737 0
      vertex 5.61812 -3.36737 0
    endloop
  endfacet
  facet normal 0 0 -1
    outer loop
      vertex 5.44613 -3.63898 0
      vertex 5.44613 3.63898 0
      vertex 5.61812 3.36737 0
    endloop
  endfacet
  facet normal 0 0 -1
    outer loop
      vertex 5.26101 -3.90183 0
      vertex 5.44613 3.63898 0
      vertex 5.44613 -3.63898 0
    endloop
  endfacet
  facet normal 0 0 -1
    outer loop
      vertex 5.26101 -3.90183 0
      vertex 5.26101 3.90183 0
      vertex 5.44613 3.63898 0
    endloop
  endfacet
  facet normal 0 0 -1
    outer loop
      vertex 5.06322 -4.15528 0
      vertex 5.26101 3.90183 0
      vertex 5.26101 -3.90183 0
    endloop
  endfacet
  facet normal 0 0 -1
    outer loop
      vertex 5.06322 -4.15528 0
      vertex 5.06322 4.15528 0
      vertex 5.26101 3.90183 0
    endloop
  endfacet
  facet normal 0 0 -1
    outer loop
      vertex 4.85323 -4.39871 0
      vertex 5.06322 4.15528 0
      vertex 5.06322 -4.15528 0
    endloop
  endfacet
  facet normal 0 0 -1
    outer loop
      vertex 4.85323 -4.39871 0
      vertex 4.85323 4.39871 0
      vertex 5.06322 4.15528 0
    endloop
  endfacet
  facet normal 0 0 -1
    outer loop
      vertex 4.63155 -4.63155 0
      vertex 4.85323 4.39871 0
      vertex 4.85323 -4.39871 0
    endloop
  endfacet
  facet normal 0 0 -1
    outer loop
      vertex 4.63155 -4.63155 0
      vertex 4.63155 4.63155 0
      vertex 4.85323 4.39871 0
    endloop
  endfacet
  facet normal 0 0 -1
    outer loop
      vertex 4.39871 -4.85323 0
      vertex 4.63155 4.63155 0
      vertex 4.63155 -4.63155 0
    endloop
  endfacet
  facet normal 0 0 -1
    outer loop
      vertex 4.39871 -4.85323 0
      vertex 4.39871 4.85323 0
      vertex 4.63155 4.63155 0
    endloop
  endfacet
  facet normal 0 0 -1
    outer loop
      vertex 4.15528 -5.06322 0
      vertex 4.39871 4.85323 0
      vertex 4.39871 -4.85323 0
    endloop
  endfacet
  facet normal 0 0 -1
    outer loop
      vertex 4.15528 -5.06322 0
      vertex 4.15528 5.06322 0
      vertex 4.39871 4.85323 0
    endloop
  endfacet
  facet normal 0 0 -1
    outer loop
      vertex 3.90183 -5.26101 0
      vertex 4.15528 5.06322 0
      vertex 4.15528 -5.06322 0
    endloop
  endfacet
  facet normal 0 0 -1
    outer loop
      vertex 3.90183 -5.26101 0
      vertex 3.90183 5.26101 0
      vertex 4.15528 5.06322 0
    endloop
  endfacet
  facet normal 0 0 -1
    outer loop
      vertex 3.63898 -5.44613 0
      vertex 3.90183 5.26101 0
      vertex 3.90183 -5.26101 0
    endloop
  endfacet
  facet normal 0 0 -1
    outer loop
      vertex 3.63898 -5.44613 0
      vertex 3.63898 5.44613 0
      vertex 3.90183 5.26101 0
    endloop
  endfacet
  facet normal 0 0 -1
    outer loop
      vertex 3.36737 -5.61812 0
      vertex 3.63898 5.44613 0
      vertex 3.63898 -5.44613 0
    endloop
  endfacet
  facet normal 0 0 -1
    outer loop
      vertex 3.36737 -5.61812 0
      vertex 3.36737 5.61812 0
      vertex 3.63898 5.44613 0
    endloop
  endfacet
  facet normal 0 0 -1
    outer loop
      vertex 3.08765 -5.77658 0
      vertex 3.36737 5.61812 0
      vertex 3.36737 -5.61812 0
    endloop
  endfacet
  facet normal 0 0 -1
    outer loop
      vertex 3.08765 -5.77658 0
      vertex 3.08765 5.77658 0
      vertex 3.36737 5.61812 0
    endloop
  endfacet
  facet normal 0 0 -1
    outer loop
      vertex 2.80049 -5.92113 0
      vertex 3.08765 5.77658 0
      vertex 3.08765 -5.77658 0
    endloop
  endfacet
  facet normal 0 0 -1
    outer loop
      vertex 2.80049 -5.92113 0
      vertex 2.80049 5.92113 0
      vertex 3.08765 5.77658 0
    endloop
  endfacet
  facet normal 0 0 -1
    outer loop
      vertex 2.50658 -6.05141 0
      vertex 2.80049 5.92113 0
      vertex 2.80049 -5.92113 0
    endloop
  endfacet
  facet normal 0 0 -1
    outer loop
      vertex 2.50658 -6.05141 0
      vertex 2.50658 6.05141 0
      vertex 2.80049 5.92113 0
    endloop
  endfacet
  facet normal 0 0 -1
    outer loop
      vertex 2.20663 -6.16711 0
      vertex 2.50658 6.05141 0
      vertex 2.50658 -6.05141 0
    endloop
  endfacet
  facet normal 0 0 -1
    outer loop
      vertex 2.20663 -6.16711 0
      vertex 2.20663 6.16711 0
      vertex 2.50658 6.05141 0
    endloop
  endfacet
  facet normal 0 0 -1
    outer loop
      vertex 1.90136 -6.26796 0
      vertex 2.20663 6.16711 0
      vertex 2.20663 -6.16711 0
    endloop
  endfacet
  facet normal 0 0 -1
    outer loop
      vertex 1.90136 -6.26796 0
      vertex 1.90136 6.26796 0
      vertex 2.20663 6.16711 0
    endloop
  endfacet
  facet normal 0 0 -1
    outer loop
      vertex 1.59152 -6.3537 0
      vertex 1.90136 6.26796 0
      vertex 1.90136 -6.26796 0
    endloop
  endfacet
  facet normal 0 0 -1
    outer loop
      vertex 1.59152 -6.3537 0
      vertex 1.59152 6.3537 0
      vertex 1.90136 6.26796 0
    endloop
  endfacet
  facet normal 0 0 -1
    outer loop
      vertex 1.27784 -6.42414 0
      vertex 1.59152 6.3537 0
      vertex 1.59152 -6.3537 0
    endloop
  endfacet
  facet normal 0 0 -1
    outer loop
      vertex 1.27784 -6.42414 0
      vertex 1.27784 6.42414 0
      vertex 1.59152 6.3537 0
    endloop
  endfacet
  facet normal 0 0 -1
    outer loop
      vertex 0.961085 -6.47911 0
      vertex 1.27784 6.42414 0
      vertex 1.27784 -6.42414 0
    endloop
  endfacet
  facet normal 0 0 -1
    outer loop
      vertex 0.961085 -6.47911 0
      vertex 0.961085 6.47911 0
      vertex 1.27784 6.42414 0
    endloop
  endfacet
  facet normal 0 0 -1
    outer loop
      vertex 0.642012 -6.51846 0
      vertex 0.961085 6.47911 0
      vertex 0.961085 -6.47911 0
    endloop
  endfacet
  facet normal 0 0 -1
    outer loop
      vertex 0.642012 -6.51846 0
      vertex 0.642012 6.51846 0
      vertex 0.961085 6.47911 0
    endloop
  endfacet
  facet normal 0 0 -1
    outer loop
      vertex 0.321393 -6.54211 0
      vertex 0.642012 6.51846 0
      vertex 0.642012 -6.51846 0
    endloop
  endfacet
  facet normal 0 0 -1
    outer loop
      vertex 0.321393 -6.54211 0
      vertex 0.321393 6.54211 0
      vertex 0.642012 6.51846 0
    endloop
  endfacet
  facet normal 0 0 -1
    outer loop
      vertex -0 -6.55 0
      vertex 0.321393 6.54211 0
      vertex 0.321393 -6.54211 0
    endloop
  endfacet
  facet normal 0 0 -1
    outer loop
      vertex -0 -6.55 0
      vertex 0 6.55 0
      vertex 0.321393 6.54211 0
    endloop
  endfacet
  facet normal 0 0 -1
    outer loop
      vertex -0.321393 -6.54211 0
      vertex 0 6.55 0
      vertex -0 -6.55 0
    endloop
  endfacet
  facet normal 0 0 -1
    outer loop
      vertex -0.321393 -6.54211 0
      vertex -0.321393 6.54211 0
      vertex 0 6.55 0
    endloop
  endfacet
  facet normal 0 0 -1
    outer loop
      vertex -0.642012 -6.51846 0
      vertex -0.321393 6.54211 0
      vertex -0.321393 -6.54211 0
    endloop
  endfacet
  facet normal 0 0 -1
    outer loop
      vertex -0.642012 -6.51846 0
      vertex -0.642012 6.51846 0
      vertex -0.321393 6.54211 0
    endloop
  endfacet
  facet normal 0 0 -1
    outer loop
      vertex -0.961085 -6.47911 0
      vertex -0.642012 6.51846 0
      vertex -0.642012 -6.51846 0
    endloop
  endfacet
  facet normal 0 0 -1
    outer loop
      vertex -0.961085 -6.47911 0
      vertex -0.961085 6.47911 0
      vertex -0.642012 6.51846 0
    endloop
  endfacet
  facet normal 0 0 -1
    outer loop
      vertex -1.27784 -6.42414 0
      vertex -0.961085 6.47911 0
      vertex -0.961085 -6.47911 0
    endloop
  endfacet
  facet normal 0 0 -1
    outer loop
      vertex -1.27784 -6.42414 0
      vertex -1.27784 6.42414 0
      vertex -0.961085 6.47911 0
    endloop
  endfacet
  facet normal 0 0 -1
    outer loop
      vertex -1.59152 -6.3537 0
      vertex -1.27784 6.42414 0
      vertex -1.27784 -6.42414 0
    endloop
  endfacet
  facet normal 0 0 -1
    outer loop
      vertex -1.59152 -6.3537 0
      vertex -1.59152 6.3537 0
      vertex -1.27784 6.42414 0
    endloop
  endfacet
  facet normal 0 0 -1
    outer loop
      vertex -1.90136 -6.26796 0
      vertex -1.59152 6.3537 0
      vertex -1.59152 -6.3537 0
    endloop
  endfacet
  facet normal 0 0 -1
    outer loop
      vertex -1.90136 -6.26796 0
      vertex -1.90136 6.26796 0
      vertex -1.59152 6.3537 0
    endloop
  endfacet
  facet normal 0 0 -1
    outer loop
      vertex -2.20663 -6.16711 0
      vertex -1.90136 6.26796 0
      vertex -1.90136 -6.26796 0
    endloop
  endfacet
  facet normal 0 0 -1
    outer loop
      vertex -2.20663 -6.16711 0
      vertex -2.20663 6.16711 0
      vertex -1.90136 6.26796 0
    endloop
  endfacet
  facet normal 0 0 -1
    outer loop
      vertex -2.50658 -6.05141 0
      vertex -2.20663 6.16711 0
      vertex -2.20663 -6.16711 0
    endloop
  endfacet
  facet normal 0 0 -1
    outer loop
      vertex -2.50658 -6.05141 0
      vertex -2.50658 6.05141 0
      vertex -2.20663 6.16711 0
    endloop
  endfacet
  facet normal 0 0 -1
    outer loop
      vertex -2.80049 -5.92113 0
      vertex -2.50658 6.05141 0
      vertex -2.50658 -6.05141 0
    endloop
  endfacet
  facet normal 0 0 -1
    outer loop
      vertex -2.80049 -5.92113 0
      vertex -2.80049 5.92113 0
      vertex -2.50658 6.05141 0
    endloop
  endfacet
  facet normal 0 0 -1
    outer loop
      vertex -3.08765 -5.77658 0
      vertex -2.80049 5.92113 0
      vertex -2.80049 -5.92113 0
    endloop
  endfacet
  facet normal 0 0 -1
    outer loop
      vertex -3.08765 -5.77658 0
      vertex -3.08765 5.77658 0
      vertex -2.80049 5.92113 0
    endloop
  endfacet
  facet normal 0 0 -1
    outer loop
      vertex -3.36737 -5.61812 0
      vertex -3.08765 5.77658 0
      vertex -3.08765 -5.77658 0
    endloop
  endfacet
  facet normal 0 0 -1
    outer loop
      vertex -3.36737 -5.61812 0
      vertex -3.36737 5.61812 0
      vertex -3.08765 5.77658 0
    endloop
  endfacet
  facet normal 0 0 -1
    outer loop
      vertex -3.63898 -5.44613 0
      vertex -3.36737 5.61812 0
      vertex -3.36737 -5.61812 0
    endloop
  endfacet
  facet normal 0 0 -1
    outer loop
      vertex -3.63898 -5.44613 0
      vertex -3.63898 5.44613 0
      vertex -3.36737 5.61812 0
    endloop
  endfacet
  facet normal 0 0 -1
    outer loop
      vertex -3.90183 -5.26101 0
      vertex -3.63898 5.44613 0
      vertex -3.63898 -5.44613 0
    endloop
  endfacet
  facet normal 0 0 -1
    outer loop
      vertex -3.90183 -5.26101 0
      vertex -3.90183 5.26101 0
      vertex -3.63898 5.44613 0
    endloop
  endfacet
  facet normal 0 0 -1
    outer loop
      vertex -4.15528 -5.06322 0
      vertex -3.90183 5.26101 0
      vertex -3.90183 -5.26101 0
    endloop
  endfacet
  facet normal 0 0 -1
    outer loop
      vertex -4.15528 -5.06322 0
      vertex -4.15528 5.06322 0
      vertex -3.90183 5.26101 0
    endloop
  endfacet
  facet normal 0 0 -1
    outer loop
      vertex -4.39871 -4.85323 0
      vertex -4.15528 5.06322 0
      vertex -4.15528 -5.06322 0
    endloop
  endfacet
  facet normal 0 0 -1
    outer loop
      vertex -4.39871 -4.85323 0
      vertex -4.39871 4.85323 0
      vertex -4.15528 5.06322 0
    endloop
  endfacet
  facet normal 0 0 -1
    outer loop
      vertex -4.63155 -4.63155 0
      vertex -4.39871 4.85323 0
      vertex -4.39871 -4.85323 0
    endloop
  endfacet
  facet normal 0 0 -1
    outer loop
      vertex -4.63155 -4.63155 0
      vertex -4.63155 4.63155 0
      vertex -4.39871 4.85323 0
    endloop
  endfacet
  facet normal 0 0 -1
    outer loop
      vertex -4.85323 -4.39871 0
      vertex -4.63155 4.63155 0
      vertex -4.63155 -4.63155 0
    endloop
  endfacet
  facet normal 0 0 -1
    outer loop
      vertex -4.85323 -4.39871 0
      vertex -4.85323 4.39871 0
      vertex -4.63155 4.63155 0
    endloop
  endfacet
  facet normal 0 0 -1
    outer loop
      vertex -5.06322 -4.15528 0
      vertex -4.85323 4.39871 0
      vertex -4.85323 -4.39871 0
    endloop
  endfacet
  facet normal 0 0 -1
    outer loop
      vertex -5.06322 -4.15528 0
      vertex -5.06322 4.15528 0
      vertex -4.85323 4.39871 0
    endloop
  endfacet
  facet normal 0 0 -1
    outer loop
      vertex -5.26101 -3.90183 0
      vertex -5.06322 4.15528 0
      vertex -5.06322 -4.15528 0
    endloop
  endfacet
  facet normal 0 0 -1
    outer loop
      vertex -5.26101 -3.90183 0
      vertex -5.26101 3.90183 0
      vertex -5.06322 4.15528 0
    endloop
  endfacet
  facet normal 0 0 -1
    outer loop
      vertex -5.44613 -3.63898 0
      vertex -5.26101 3.90183 0
      vertex -5.26101 -3.90183 0
    endloop
  endfacet
  facet normal 0 0 -1
    outer loop
      vertex -5.44613 -3.63898 0
      vertex -5.44613 3.63898 0
      vertex -5.26101 3.90183 0
    endloop
  endfacet
  facet normal 0 0 -1
    outer loop
      vertex -5.61812 -3.36737 0
      vertex -5.44613 3.63898 0
      vertex -5.44613 -3.63898 0
    endloop
  endfacet
  facet normal 0 0 -1
    outer loop
      vertex -5.61812 -3.36737 0
      vertex -5.61812 3.36737 0
      vertex -5.44613 3.63898 0
    endloop
  endfacet
  facet normal 0 0 -1
    outer loop
      vertex -5.77658 -3.08765 0
      vertex -5.61812 3.36737 0
      vertex -5.61812 -3.36737 0
    endloop
  endfacet
  facet normal 0 0 -1
    outer loop
      vertex -5.77658 -3.08765 0
      vertex -5.77658 3.08765 0
      vertex -5.61812 3.36737 0
    endloop
  endfacet
  facet normal 0 0 -1
    outer loop
      vertex -5.92113 -2.80049 0
      vertex -5.77658 3.08765 0
      vertex -5.77658 -3.08765 0
    endloop
  endfacet
  facet normal 0 0 -1
    outer loop
      vertex -5.92113 -2.80049 0
      vertex -5.92113 2.80049 0
      vertex -5.77658 3.08765 0
    endloop
  endfacet
  facet normal 0 0 -1
    outer loop
      vertex -6.05141 -2.50658 0
      vertex -5.92113 2.80049 0
      vertex -5.92113 -2.80049 0
    endloop
  endfacet
  facet normal 0 0 -1
    outer loop
      vertex -6.05141 -2.50658 0
      vertex -6.05141 2.50658 0
      vertex -5.92113 2.80049 0
    endloop
  endfacet
  facet normal 0 0 -1
    outer loop
      vertex -6.16711 -2.20663 0
      vertex -6.05141 2.50658 0
      vertex -6.05141 -2.50658 0
    endloop
  endfacet
  facet normal 0 0 -1
    outer loop
      vertex -6.16711 -2.20663 0
      vertex -6.16711 2.20663 0
      vertex -6.05141 2.50658 0
    endloop
  endfacet
  facet normal 0 0 -1
    outer loop
      vertex -6.26796 -1.90136 0
      vertex -6.16711 2.20663 0
      vertex -6.16711 -2.20663 0
    endloop
  endfacet
  facet normal 0 0 -1
    outer loop
      vertex -6.26796 -1.90136 0
      vertex -6.26796 1.90136 0
      vertex -6.16711 2.20663 0
    endloop
  endfacet
  facet normal 0 0 -1
    outer loop
      vertex -6.3537 -1.59152 0
      vertex -6.26796 1.90136 0
      vertex -6.26796 -1.90136 0
    endloop
  endfacet
  facet normal 0 0 -1
    outer loop
      vertex -6.3537 -1.59152 0
      vertex -6.3537 1.59152 0
      vertex -6.26796 1.90136 0
    endloop
  endfacet
  facet normal 0 0 -1
    outer loop
      vertex -6.42414 -1.27784 0
      vertex -6.3537 1.59152 0
      vertex -6.3537 -1.59152 0
    endloop
  endfacet
  facet normal 0 0 -1
    outer loop
      vertex -6.42414 -1.27784 0
      vertex -6.42414 1.27784 0
      vertex -6.3537 1.59152 0
    endloop
  endfacet
  facet normal 0 0 -1
    outer loop
      vertex -6.47911 -0.961085 0
      vertex -6.42414 1.27784 0
      vertex -6.42414 -1.27784 0
    endloop
  endfacet
  facet normal 0 0 -1
    outer loop
      vertex -6.47911 -0.961085 0
      vertex -6.47911 0.961085 0
      vertex -6.42414 1.27784 0
    endloop
  endfacet
  facet normal 0 0 -1
    outer loop
      vertex -6.51846 -0.642012 0
      vertex -6.47911 0.961085 0
      vertex -6.47911 -0.961085 0
    endloop
  endfacet
  facet normal 0 0 -1
    outer loop
      vertex -6.51846 -0.642012 0
      vertex -6.51846 0.642012 0
      vertex -6.47911 0.961085 0
    endloop
  endfacet
  facet normal 0 0 -1
    outer loop
      vertex -6.54211 -0.321393 0
      vertex -6.51846 0.642012 0
      vertex -6.51846 -0.642012 0
    endloop
  endfacet
  facet normal 0 0 -1
    outer loop
      vertex -6.54211 -0.321393 0
      vertex -6.54211 0.321393 0
      vertex -6.51846 0.642012 0
    endloop
  endfacet
  facet normal 0 -0 -1
    outer loop
      vertex -6.54211 0.321393 0
      vertex -6.54211 -0.321393 0
      vertex -6.55 -0 0
    endloop
  endfacet
  facet normal 0 0 1
    outer loop
      vertex 6.54211 0.321393 1.6
      vertex 6.54211 -0.321393 1.6
      vertex 6.55 0 1.6
    endloop
  endfacet
  facet normal 0 0 1
    outer loop
      vertex 6.51846 0.642012 1.6
      vertex 6.54211 -0.321393 1.6
      vertex 6.54211 0.321393 1.6
    endloop
  endfacet
  facet normal 0 0 1
    outer loop
      vertex 6.51846 0.642012 1.6
      vertex 6.51846 -0.642012 1.6
      vertex 6.54211 -0.321393 1.6
    endloop
  endfacet
  facet normal 0 0 1
    outer loop
      vertex 6.47911 0.961085 1.6
      vertex 6.51846 -0.642012 1.6
      vertex 6.51846 0.642012 1.6
    endloop
  endfacet
  facet normal 0 0 1
    outer loop
      vertex 6.47911 0.961085 1.6
      vertex 6.47911 -0.961085 1.6
      vertex 6.51846 -0.642012 1.6
    endloop
  endfacet
  facet normal 0 0 1
    outer loop
      vertex 6.42414 1.27784 1.6
      vertex 6.47911 -0.961085 1.6
      vertex 6.47911 0.961085 1.6
    endloop
  endfacet
  facet normal 0 0 1
    outer loop
      vertex 6.42414 1.27784 1.6
      vertex 6.42414 -1.27784 1.6
      vertex 6.47911 -0.961085 1.6
    endloop
  endfacet
  facet normal 0 0 1
    outer loop
      vertex 6.3537 1.59152 1.6
      vertex 6.42414 -1.27784 1.6
      vertex 6.42414 1.27784 1.6
    endloop
  endfacet
  facet normal 0 0 1
    outer loop
      vertex 6.3537 1.59152 1.6
      vertex 6.3537 -1.59152 1.6
      vertex 6.42414 -1.27784 1.6
    endloop
  endfacet
  facet normal 0 0 1
    outer loop
      vertex 6.26796 1.90136 1.6
      vertex 6.3537 -1.59152 1.6
      vertex 6.3537 1.59152 1.6
    endloop
  endfacet
  facet normal 0 0 1
    outer loop
      vertex 6.26796 1.90136 1.6
      vertex 6.26796 -1.90136 1.6
      vertex 6.3537 -1.59152 1.6
    endloop
  endfacet
  facet normal 0 0 1
    outer loop
      vertex 6.16711 2.20663 1.6
      vertex 6.26796 -1.90136 1.6
      vertex 6.26796 1.90136 1.6
    endloop
  endfacet
  facet normal 0 0 1
    outer loop
      vertex 6.16711 2.20663 1.6
      vertex 6.16711 -2.20663 1.6
      vertex 6.26796 -1.90136 1.6
    endloop
  endfacet
  facet normal 0 0 1
    outer loop
      vertex 6.05141 2.50658 1.6
      vertex 6.16711 -2.20663 1.6
      vertex 6.16711 2.20663 1.6
    endloop
  endfacet
  facet normal 0 0 1
    outer loop
      vertex 6.05141 2.50658 1.6
      vertex 6.05141 -2.50658 1.6
      vertex 6.16711 -2.20663 1.6
    endloop
  endfacet
  facet normal 0 0 1
    outer loop
      vertex 5.92113 2.80049 1.6
      vertex 6.05141 -2.50658 1.6
      vertex 6.05141 2.50658 1.6
    endloop
  endfacet
  facet normal 0 0 1
    outer loop
      vertex 5.92113 2.80049 1.6
      vertex 5.92113 -2.80049 1.6
      vertex 6.05141 -2.50658 1.6
    endloop
  endfacet
  facet normal 0 0 1
    outer loop
      vertex 5.77658 3.08765 1.6
      vertex 5.92113 -2.80049 1.6
      vertex 5.92113 2.80049 1.6
    endloop
  endfacet
  facet normal 0 0 1
    outer loop
      vertex 5.77658 3.08765 1.6
      vertex 5.77658 -3.08765 1.6
      vertex 5.92113 -2.80049 1.6
    endloop
  endfacet
  facet normal 0 0 1
    outer loop
      vertex 5.61812 3.36737 1.6
      vertex 5.77658 -3.08765 1.6
      vertex 5.77658 3.08765 1.6
    endloop
  endfacet
  facet normal 0 0 1
    outer loop
      vertex 5.61812 3.36737 1.6
      vertex 5.61812 -3.36737 1.6
      vertex 5.77658 -3.08765 1.6
    endloop
  endfacet
  facet normal 0 0 1
    outer loop
      vertex 5.44613 3.63898 1.6
      vertex 5.61812 -3.36737 1.6
      vertex 5.61812 3.36737 1.6
    endloop
  endfacet
  facet normal 0 0 1
    outer loop
      vertex 5.44613 3.63898 1.6
      vertex 5.44613 -3.63898 1.6
      vertex 5.61812 -3.36737 1.6
    endloop
  endfacet
  facet normal 0 0 1
    outer loop
      vertex 5.26101 3.90183 1.6
      vertex 5.44613 -3.63898 1.6
      vertex 5.44613 3.63898 1.6
    endloop
  endfacet
  facet normal 0 0 1
    outer loop
      vertex 5.26101 3.90183 1.6
      vertex 5.26101 -3.90183 1.6
      vertex 5.44613 -3.63898 1.6
    endloop
  endfacet
  facet normal 0 0 1
    outer loop
      vertex 5.06322 4.15528 1.6
      vertex 5.26101 -3.90183 1.6
      vertex 5.26101 3.90183 1.6
    endloop
  endfacet
  facet normal 0 0 1
    outer loop
      vertex 5.06322 4.15528 1.6
      vertex 5.06322 -4.15528 1.6
      vertex 5.26101 -3.90183 1.6
    endloop
  endfacet
  facet normal 0 0 1
    outer loop
      vertex 4.85323 4.39871 1.6
      vertex 5.06322 -4.15528 1.6
      vertex 5.06322 4.15528 1.6
    endloop
  endfacet
  facet normal 0 0 1
    outer loop
      vertex 4.85323 4.39871 1.6
      vertex 4.85323 -4.39871 1.6
      vertex 5.06322 -4.15528 1.6
    endloop
  endfacet
  facet normal 0 0 1
    outer loop
      vertex 4.63155 4.63155 1.6
      vertex 4.85323 -4.39871 1.6
      vertex 4.85323 4.39871 1.6
    endloop
  endfacet
  facet normal 0 0 1
    outer loop
      vertex 4.63155 4.63155 1.6
      vertex 4.63155 -4.63155 1.6
      vertex 4.85323 -4.39871 1.6
    endloop
  endfacet
  facet normal 0 0 1
    outer loop
      vertex 4.39871 4.85323 1.6
      vertex 4.63155 -4.63155 1.6
      vertex 4.63155 4.63155 1.6
    endloop
  endfacet
  facet normal 0 0 1
    outer loop
      vertex 4.39871 4.85323 1.6
      vertex 4.39871 -4.85323 1.6
      vertex 4.63155 -4.63155 1.6
    endloop
  endfacet
  facet normal 0 0 1
    outer loop
      vertex 4.15528 5.06322 1.6
      vertex 4.39871 -4.85323 1.6
      vertex 4.39871 4.85323 1.6
    endloop
  endfacet
  facet normal 0 0 1
    outer loop
      vertex 4.15528 5.06322 1.6
      vertex 4.15528 -5.06322 1.6
      vertex 4.39871 -4.85323 1.6
    endloop
  endfacet
  facet normal 0 0 1
    outer loop
      vertex 3.90183 5.26101 1.6
      vertex 4.15528 -5.06322 1.6
      vertex 4.15528 5.06322 1.6
    endloop
  endfacet
  facet normal 0 0 1
    outer loop
      vertex 3.90183 5.26101 1.6
      vertex 3.90183 -5.26101 1.6
      vertex 4.15528 -5.06322 1.6
    endloop
  endfacet
  facet normal 0 0 1
    outer loop
      vertex 3.63898 5.44613 1.6
      vertex 3.90183 -5.26101 1.6
      vertex 3.90183 5.26101 1.6
    endloop
  endfacet
  facet normal 0 0 1
    outer loop
      vertex 3.63898 5.44613 1.6
      vertex 3.63898 -5.44613 1.6
      vertex 3.90183 -5.26101 1.6
    endloop
  endfacet
  facet normal 0 0 1
    outer loop
      vertex 3.36737 5.61812 1.6
      vertex 3.63898 -5.44613 1.6
      vertex 3.63898 5.44613 1.6
    endloop
  endfacet
  facet normal 0 0 1
    outer loop
      vertex 3.36737 5.61812 1.6
      vertex 3.36737 -5.61812 1.6
      vertex 3.63898 -5.44613 1.6
    endloop
  endfacet
  facet normal 0 0 1
    outer loop
      vertex 3.08765 5.77658 1.6
      vertex 3.36737 -5.61812 1.6
      vertex 3.36737 5.61812 1.6
    endloop
  endfacet
  facet normal 0 0 1
    outer loop
      vertex 3.08765 5.77658 1.6
      vertex 3.08765 -5.77658 1.6
      vertex 3.36737 -5.61812 1.6
    endloop
  endfacet
  facet normal 0 0 1
    outer loop
      vertex 2.80049 5.92113 1.6
      vertex 3.08765 -5.77658 1.6
      vertex 3.08765 5.77658 1.6
    endloop
  endfacet
  facet normal 0 0 1
    outer loop
      vertex 2.80049 5.92113 1.6
      vertex 2.80049 -5.92113 1.6
      vertex 3.08765 -5.77658 1.6
    endloop
  endfacet
  facet normal 0 0 1
    outer loop
      vertex 2.50658 6.05141 1.6
      vertex 2.80049 -5.92113 1.6
      vertex 2.80049 5.92113 1.6
    endloop
  endfacet
  facet normal 0 0 1
    outer loop
      vertex 2.50658 6.05141 1.6
      vertex 2.50658 -6.05141 1.6
      vertex 2.80049 -5.92113 1.6
    endloop
  endfacet
  facet normal 0 0 1
    outer loop
      vertex 2.20663 6.16711 1.6
      vertex 2.50658 -6.05141 1.6
      vertex 2.50658 6.05141 1.6
    endloop
  endfacet
  facet normal 0 0 1
    outer loop
      vertex 2.20663 6.16711 1.6
      vertex 2.20663 -6.16711 1.6
      vertex 2.50658 -6.05141 1.6
    endloop
  endfacet
  facet normal 0 0 1
    outer loop
      vertex 1.90136 6.26796 1.6
      vertex 2.20663 -6.16711 1.6
      vertex 2.20663 6.16711 1.6
    endloop
  endfacet
  facet normal 0 0 1
    outer loop
      vertex 1.90136 6.26796 1.6
      vertex 1.90136 -6.26796 1.6
      vertex 2.20663 -6.16711 1.6
    endloop
  endfacet
  facet normal 0 0 1
    outer loop
      vertex 1.59152 6.3537 1.6
      vertex 1.90136 -6.26796 1.6
      vertex 1.90136 6.26796 1.6
    endloop
  endfacet
  facet normal 0 0 1
    outer loop
      vertex 1.59152 6.3537 1.6
      vertex 1.59152 -6.3537 1.6
      vertex 1.90136 -6.26796 1.6
    endloop
  endfacet
  facet normal 0 0 1
    outer loop
      vertex 1.27784 6.42414 1.6
      vertex 1.59152 -6.3537 1.6
      vertex 1.59152 6.3537 1.6
    endloop
  endfacet
  facet normal 0 0 1
    outer loop
      vertex 1.27784 6.42414 1.6
      vertex 1.27784 -6.42414 1.6
      vertex 1.59152 -6.3537 1.6
    endloop
  endfacet
  facet normal 0 0 1
    outer loop
      vertex 0.961085 6.47911 1.6
      vertex 1.27784 -6.42414 1.6
      vertex 1.27784 6.42414 1.6
    endloop
  endfacet
  facet normal 0 0 1
    outer loop
      vertex 0.961085 6.47911 1.6
      vertex 0.961085 -6.47911 1.6
      vertex 1.27784 -6.42414 1.6
    endloop
  endfacet
  facet normal 0 0 1
    outer loop
      vertex 0.642012 6.51846 1.6
      vertex 0.961085 -6.47911 1.6
      vertex 0.961085 6.47911 1.6
    endloop
  endfacet
  facet normal 0 0 1
    outer loop
      vertex 0.642012 6.51846 1.6
      vertex 0.642012 -6.51846 1.6
      vertex 0.961085 -6.47911 1.6
    endloop
  endfacet
  facet normal 0 0 1
    outer loop
      vertex 0.321393 6.54211 1.6
      vertex 0.642012 -6.51846 1.6
      vertex 0.642012 6.51846 1.6
    endloop
  endfacet
  facet normal 0 0 1
    outer loop
      vertex 0.321393 6.54211 1.6
      vertex 0.321393 -6.54211 1.6
      vertex 0.642012 -6.51846 1.6
    endloop
  endfacet
  facet normal 0 0 1
    outer loop
      vertex 0 6.55 1.6
      vertex 0.321393 -6.54211 1.6
      vertex 0.321393 6.54211 1.6
    endloop
  endfacet
  facet normal 0 0 1
    outer loop
      vertex 0 6.55 1.6
      vertex -0 -6.55 1.6
      vertex 0.321393 -6.54211 1.6
    endloop
  endfacet
  facet normal -0 0 1
    outer loop
      vertex -0.321393 6.54211 1.6
      vertex -0 -6.55 1.6
      vertex 0 6.55 1.6
    endloop
  endfacet
  facet normal 0 0 1
    outer loop
      vertex -0.321393 6.54211 1.6
      vertex -0.321393 -6.54211 1.6
      vertex -0 -6.55 1.6
    endloop
  endfacet
  facet normal -0 0 1
    outer loop
      vertex -0.642012 6.51846 1.6
      vertex -0.321393 -6.54211 1.6
      vertex -0.321393 6.54211 1.6
    endloop
  endfacet
  facet normal 0 0 1
    outer loop
      vertex -0.642012 6.51846 1.6
      vertex -0.642012 -6.51846 1.6
      vertex -0.321393 -6.54211 1.6
    endloop
  endfacet
  facet normal -0 0 1
    outer loop
      vertex -0.961085 6.47911 1.6
      vertex -0.642012 -6.51846 1.6
      vertex -0.642012 6.51846 1.6
    endloop
  endfacet
  facet normal 0 0 1
    outer loop
      vertex -0.961085 6.47911 1.6
      vertex -0.961085 -6.47911 1.6
      vertex -0.642012 -6.51846 1.6
    endloop
  endfacet
  facet normal -0 0 1
    outer loop
      vertex -1.27784 6.42414 1.6
      vertex -0.961085 -6.47911 1.6
      vertex -0.961085 6.47911 1.6
    endloop
  endfacet
  facet normal 0 0 1
    outer loop
      vertex -1.27784 6.42414 1.6
      vertex -1.27784 -6.42414 1.6
      vertex -0.961085 -6.47911 1.6
    endloop
  endfacet
  facet normal -0 0 1
    outer loop
      vertex -1.59152 6.3537 1.6
      vertex -1.27784 -6.42414 1.6
      vertex -1.27784 6.42414 1.6
    endloop
  endfacet
  facet normal 0 0 1
    outer loop
      vertex -1.59152 6.3537 1.6
      vertex -1.59152 -6.3537 1.6
      vertex -1.27784 -6.42414 1.6
    endloop
  endfacet
  facet normal -0 0 1
    outer loop
      vertex -1.90136 6.26796 1.6
      vertex -1.59152 -6.3537 1.6
      vertex -1.59152 6.3537 1.6
    endloop
  endfacet
  facet normal 0 0 1
    outer loop
      vertex -1.90136 6.26796 1.6
      vertex -1.90136 -6.26796 1.6
      vertex -1.59152 -6.3537 1.6
    endloop
  endfacet
  facet normal -0 0 1
    outer loop
      vertex -2.20663 6.16711 1.6
      vertex -1.90136 -6.26796 1.6
      vertex -1.90136 6.26796 1.6
    endloop
  endfacet
  facet normal 0 0 1
    outer loop
      vertex -2.20663 6.16711 1.6
      vertex -2.20663 -6.16711 1.6
      vertex -1.90136 -6.26796 1.6
    endloop
  endfacet
  facet normal -0 0 1
    outer loop
      vertex -2.50658 6.05141 1.6
      vertex -2.20663 -6.16711 1.6
      vertex -2.20663 6.16711 1.6
    endloop
  endfacet
  facet normal 0 0 1
    outer loop
      vertex -2.50658 6.05141 1.6
      vertex -2.50658 -6.05141 1.6
      vertex -2.20663 -6.16711 1.6
    endloop
  endfacet
  facet normal -0 0 1
    outer loop
      vertex -2.80049 5.92113 1.6
      vertex -2.50658 -6.05141 1.6
      vertex -2.50658 6.05141 1.6
    endloop
  endfacet
  facet normal 0 0 1
    outer loop
      vertex -2.80049 5.92113 1.6
      vertex -2.80049 -5.92113 1.6
      vertex -2.50658 -6.05141 1.6
    endloop
  endfacet
  facet normal -0 0 1
    outer loop
      vertex -3.08765 5.77658 1.6
      vertex -2.80049 -5.92113 1.6
      vertex -2.80049 5.92113 1.6
    endloop
  endfacet
  facet normal 0 0 1
    outer loop
      vertex -3.08765 5.77658 1.6
      vertex -3.08765 -5.77658 1.6
      vertex -2.80049 -5.92113 1.6
    endloop
  endfacet
  facet normal -0 0 1
    outer loop
      vertex -3.36737 5.61812 1.6
      vertex -3.08765 -5.77658 1.6
      vertex -3.08765 5.77658 1.6
    endloop
  endfacet
  facet normal 0 0 1
    outer loop
      vertex -3.36737 5.61812 1.6
      vertex -3.36737 -5.61812 1.6
      vertex -3.08765 -5.77658 1.6
    endloop
  endfacet
  facet normal -0 0 1
    outer loop
      vertex -3.63898 5.44613 1.6
      vertex -3.36737 -5.61812 1.6
      vertex -3.36737 5.61812 1.6
    endloop
  endfacet
  facet normal 0 0 1
    outer loop
      vertex -3.63898 5.44613 1.6
      vertex -3.63898 -5.44613 1.6
      vertex -3.36737 -5.61812 1.6
    endloop
  endfacet
  facet normal -0 0 1
    outer loop
      vertex -3.90183 5.26101 1.6
      vertex -3.63898 -5.44613 1.6
      vertex -3.63898 5.44613 1.6
    endloop
  endfacet
  facet normal 0 0 1
    outer loop
      vertex -3.90183 5.26101 1.6
      vertex -3.90183 -5.26101 1.6
      vertex -3.63898 -5.44613 1.6
    endloop
  endfacet
  facet normal -0 0 1
    outer loop
      vertex -4.15528 5.06322 1.6
      vertex -3.90183 -5.26101 1.6
      vertex -3.90183 5.26101 1.6
    endloop
  endfacet
  facet normal 0 0 1
    outer loop
      vertex -4.15528 5.06322 1.6
      vertex -4.15528 -5.06322 1.6
      vertex -3.90183 -5.26101 1.6
    endloop
  endfacet
  facet normal -0 0 1
    outer loop
      vertex -4.39871 4.85323 1.6
      vertex -4.15528 -5.06322 1.6
      vertex -4.15528 5.06322 1.6
    endloop
  endfacet
  facet normal 0 0 1
    outer loop
      vertex -4.39871 4.85323 1.6
      vertex -4.39871 -4.85323 1.6
      vertex -4.15528 -5.06322 1.6
    endloop
  endfacet
  facet normal -0 0 1
    outer loop
      vertex -4.63155 4.63155 1.6
      vertex -4.39871 -4.85323 1.6
      vertex -4.39871 4.85323 1.6
    endloop
  endfacet
  facet normal 0 0 1
    outer loop
      vertex -4.63155 4.63155 1.6
      vertex -4.63155 -4.63155 1.6
      vertex -4.39871 -4.85323 1.6
    endloop
  endfacet
  facet normal -0 0 1
    outer loop
      vertex -4.85323 4.39871 1.6
      vertex -4.63155 -4.63155 1.6
      vertex -4.63155 4.63155 1.6
    endloop
  endfacet
  facet normal 0 0 1
    outer loop
      vertex -4.85323 4.39871 1.6
      vertex -4.85323 -4.39871 1.6
      vertex -4.63155 -4.63155 1.6
    endloop
  endfacet
  facet normal -0 0 1
    outer loop
      vertex -5.06322 4.15528 1.6
      vertex -4.85323 -4.39871 1.6
      vertex -4.85323 4.39871 1.6
    endloop
  endfacet
  facet normal 0 0 1
    outer loop
      vertex -5.06322 4.15528 1.6
      vertex -5.06322 -4.15528 1.6
      vertex -4.85323 -4.39871 1.6
    endloop
  endfacet
  facet normal -0 0 1
    outer loop
      vertex -5.26101 3.90183 1.6
      vertex -5.06322 -4.15528 1.6
      vertex -5.06322 4.15528 1.6
    endloop
  endfacet
  facet normal 0 0 1
    outer loop
      vertex -5.26101 3.90183 1.6
      vertex -5.26101 -3.90183 1.6
      vertex -5.06322 -4.15528 1.6
    endloop
  endfacet
  facet normal -0 0 1
    outer loop
      vertex -5.44613 3.63898 1.6
      vertex -5.26101 -3.90183 1.6
      vertex -5.26101 3.90183 1.6
    endloop
  endfacet
  facet normal 0 0 1
    outer loop
      vertex -5.44613 3.63898 1.6
      vertex -5.44613 -3.63898 1.6
      vertex -5.26101 -3.90183 1.6
    endloop
  endfacet
  facet normal -0 0 1
    outer loop
      vertex -5.61812 3.36737 1.6
      vertex -5.44613 -3.63898 1.6
      vertex -5.44613 3.63898 1.6
    endloop
  endfacet
  facet normal 0 0 1
    outer loop
      vertex -5.61812 3.36737 1.6
      vertex -5.61812 -3.36737 1.6
      vertex -5.44613 -3.63898 1.6
    endloop
  endfacet
  facet normal -0 0 1
    outer loop
      vertex -5.77658 3.08765 1.6
      vertex -5.61812 -3.36737 1.6
      vertex -5.61812 3.36737 1.6
    endloop
  endfacet
  facet normal 0 0 1
    outer loop
      vertex -5.77658 3.08765 1.6
      vertex -5.77658 -3.08765 1.6
      vertex -5.61812 -3.36737 1.6
    endloop
  endfacet
  facet normal -0 0 1
    outer loop
      vertex -5.92113 2.80049 1.6
      vertex -5.77658 -3.08765 1.6
      vertex -5.77658 3.08765 1.6
    endloop
  endfacet
  facet normal 0 0 1
    outer loop
      vertex -5.92113 2.80049 1.6
      vertex -5.92113 -2.80049 1.6
      vertex -5.77658 -3.08765 1.6
    endloop
  endfacet
  facet normal -0 0 1
    outer loop
      vertex -6.05141 2.50658 1.6
      vertex -5.92113 -2.80049 1.6
      vertex -5.92113 2.80049 1.6
    endloop
  endfacet
  facet normal 0 0 1
    outer loop
      vertex -6.05141 2.50658 1.6
      vertex -6.05141 -2.50658 1.6
      vertex -5.92113 -2.80049 1.6
    endloop
  endfacet
  facet normal -0 0 1
    outer loop
      vertex -6.16711 2.20663 1.6
      vertex -6.05141 -2.50658 1.6
      vertex -6.05141 2.50658 1.6
    endloop
  endfacet
  facet normal 0 0 1
    outer loop
      vertex -6.16711 2.20663 1.6
      vertex -6.16711 -2.20663 1.6
      vertex -6.05141 -2.50658 1.6
    endloop
  endfacet
  facet normal -0 0 1
    outer loop
      vertex -6.26796 1.90136 1.6
      vertex -6.16711 -2.20663 1.6
      vertex -6.16711 2.20663 1.6
    endloop
  endfacet
  facet normal 0 0 1
    outer loop
      vertex -6.26796 1.90136 1.6
      vertex -6.26796 -1.90136 1.6
      vertex -6.16711 -2.20663 1.6
    endloop
  endfacet
  facet normal -0 0 1
    outer loop
      vertex -6.3537 1.59152 1.6
      vertex -6.26796 -1.90136 1.6
      vertex -6.26796 1.90136 1.6
    endloop
  endfacet
  facet normal 0 0 1
    outer loop
      vertex -6.3537 1.59152 1.6
      vertex -6.3537 -1.59152 1.6
      vertex -6.26796 -1.90136 1.6
    endloop
  endfacet
  facet normal -0 0 1
    outer loop
      vertex -6.42414 1.27784 1.6
      vertex -6.3537 -1.59152 1.6
      vertex -6.3537 1.59152 1.6
    endloop
  endfacet
  facet normal 0 0 1
    outer loop
      vertex -6.42414 1.27784 1.6
      vertex -6.42414 -1.27784 1.6
      vertex -6.3537 -1.59152 1.6
    endloop
  endfacet
  facet normal -0 0 1
    outer loop
      vertex -6.47911 0.961085 1.6
      vertex -6.42414 -1.27784 1.6
      vertex -6.42414 1.27784 1.6
    endloop
  endfacet
  facet normal 0 0 1
    outer loop
      vertex -6.47911 0.961085 1.6
      vertex -6.47911 -0.961085 1.6
      vertex -6.42414 -1.27784 1.6
    endloop
  endfacet
  facet normal -0 0 1
    outer loop
      vertex -6.51846 0.642012 1.6
      vertex -6.47911 -0.961085 1.6
      vertex -6.47911 0.961085 1.6
    endloop
  endfacet
  facet normal 0 0 1
    outer loop
      vertex -6.51846 0.642012 1.6
      vertex -6.51846 -0.642012 1.6
      vertex -6.47911 -0.961085 1.6
    endloop
  endfacet
  facet normal -0 0 1
    outer loop
      vertex -6.54211 0.321393 1.6
      vertex -6.51846 -0.642012 1.6
      vertex -6.51846 0.642012 1.6
    endloop
  endfacet
  facet normal 0 0 1
    outer loop
      vertex -6.54211 0.321393 1.6
      vertex -6.54211 -0.321393 1.6
      vertex -6.51846 -0.642012 1.6
    endloop
  endfacet
  facet normal 0 -0 1
    outer loop
      vertex -6.54211 -0.321393 1.6
      vertex -6.54211 0.321393 1.6
      vertex -6.55 -0 1.6
    endloop
  endfacet
endsolid OpenSCAD_Model
