solid OpenSCAD_Model
  facet normal 0.999697 0.0246258 0
    outer loop
      vertex 1.15 0 2.5
      vertex 1.14861 0.0564278 0
      vertex 1.14861 0.0564278 2.5
    endloop
  endfacet
  facet normal 0.999697 0.0246258 0
    outer loop
      vertex 1.14861 0.0564278 0
      vertex 1.15 0 2.5
      vertex 1.15 0 0
    endloop
  endfacet
  facet normal 0.997294 0.0735229 0
    outer loop
      vertex 1.14861 0.0564278 2.5
      vertex 1.14446 0.11272 0
      vertex 1.14446 0.11272 2.5
    endloop
  endfacet
  facet normal 0.997294 0.0735229 0
    outer loop
      vertex 1.14446 0.11272 0
      vertex 1.14861 0.0564278 2.5
      vertex 1.14861 0.0564278 0
    endloop
  endfacet
  facet normal 0.992478 0.122421 0
    outer loop
      vertex 1.14446 0.11272 2.5
      vertex 1.13755 0.16874 0
      vertex 1.13755 0.16874 2.5
    endloop
  endfacet
  facet normal 0.992478 0.122421 0
    outer loop
      vertex 1.13755 0.16874 0
      vertex 1.14446 0.11272 2.5
      vertex 1.14446 0.11272 0
    endloop
  endfacet
  facet normal 0.985277 0.170963 0
    outer loop
      vertex 1.13755 0.16874 2.5
      vertex 1.1279 0.224354 0
      vertex 1.1279 0.224354 2.5
    endloop
  endfacet
  facet normal 0.985277 0.170963 0
    outer loop
      vertex 1.1279 0.224354 0
      vertex 1.13755 0.16874 2.5
      vertex 1.13755 0.16874 0
    endloop
  endfacet
  facet normal 0.975729 0.218982 0
    outer loop
      vertex 1.1279 0.224354 2.5
      vertex 1.11554 0.279427 0
      vertex 1.11554 0.279427 2.5
    endloop
  endfacet
  facet normal 0.975729 0.218982 0
    outer loop
      vertex 1.11554 0.279427 0
      vertex 1.1279 0.224354 2.5
      vertex 1.1279 0.224354 0
    endloop
  endfacet
  facet normal 0.963751 0.266803 0
    outer loop
      vertex 1.11554 0.279427 2.5
      vertex 1.10048 0.333827 0
      vertex 1.10048 0.333827 2.5
    endloop
  endfacet
  facet normal 0.963751 0.266803 0
    outer loop
      vertex 1.10048 0.333827 0
      vertex 1.11554 0.279427 2.5
      vertex 1.11554 0.279427 0
    endloop
  endfacet
  facet normal 0.949558 0.31359 0
    outer loop
      vertex 1.10048 0.333827 2.5
      vertex 1.08278 0.387423 0
      vertex 1.08278 0.387423 2.5
    endloop
  endfacet
  facet normal 0.949558 0.31359 0
    outer loop
      vertex 1.08278 0.387423 0
      vertex 1.10048 0.333827 2.5
      vertex 1.10048 0.333827 0
    endloop
  endfacet
  facet normal 0.932959 0.359982 0
    outer loop
      vertex 1.08278 0.387423 2.5
      vertex 1.06246 0.440086 0
      vertex 1.06246 0.440086 2.5
    endloop
  endfacet
  facet normal 0.932959 0.359982 0
    outer loop
      vertex 1.06246 0.440086 0
      vertex 1.08278 0.387423 2.5
      vertex 1.08278 0.387423 0
    endloop
  endfacet
  facet normal 0.914233 0.405188 0
    outer loop
      vertex 1.06246 0.440086 2.5
      vertex 1.03959 0.491688 0
      vertex 1.03959 0.491688 2.5
    endloop
  endfacet
  facet normal 0.914233 0.405188 0
    outer loop
      vertex 1.03959 0.491688 0
      vertex 1.06246 0.440086 2.5
      vertex 1.06246 0.440086 0
    endloop
  endfacet
  facet normal 0.893212 0.449636 0
    outer loop
      vertex 1.03959 0.491688 2.5
      vertex 1.01421 0.542106 0
      vertex 1.01421 0.542106 2.5
    endloop
  endfacet
  facet normal 0.893212 0.449636 0
    outer loop
      vertex 1.01421 0.542106 0
      vertex 1.03959 0.491688 2.5
      vertex 1.03959 0.491688 0
    endloop
  endfacet
  facet normal 0.870084 0.492903 0
    outer loop
      vertex 1.01421 0.542106 2.5
      vertex 0.986388 0.591218 0
      vertex 0.986388 0.591218 2.5
    endloop
  endfacet
  facet normal 0.870084 0.492903 0
    outer loop
      vertex 0.986388 0.591218 0
      vertex 1.01421 0.542106 2.5
      vertex 1.01421 0.542106 0
    endloop
  endfacet
  facet normal 0.844854 0.534996 0
    outer loop
      vertex 0.986388 0.591218 2.5
      vertex 0.95619 0.638906 0
      vertex 0.95619 0.638906 2.5
    endloop
  endfacet
  facet normal 0.844854 0.534996 0
    outer loop
      vertex 0.95619 0.638906 0
      vertex 0.986388 0.591218 2.5
      vertex 0.986388 0.591218 0
    endloop
  endfacet
  facet normal 0.817586 0.575807 0
    outer loop
      vertex 0.95619 0.638906 2.5
      vertex 0.923689 0.685054 0
      vertex 0.923689 0.685054 2.5
    endloop
  endfacet
  facet normal 0.817586 0.575807 0
    outer loop
      vertex 0.923689 0.685054 0
      vertex 0.95619 0.638906 2.5
      vertex 0.95619 0.638906 0
    endloop
  endfacet
  facet normal 0.788343 0.615236 0
    outer loop
      vertex 0.923689 0.685054 2.5
      vertex 0.888962 0.729552 0
      vertex 0.888962 0.729552 2.5
    endloop
  endfacet
  facet normal 0.788343 0.615236 0
    outer loop
      vertex 0.888962 0.729552 0
      vertex 0.923689 0.685054 2.5
      vertex 0.923689 0.685054 0
    endloop
  endfacet
  facet normal 0.757214 0.653166 0
    outer loop
      vertex 0.888962 0.729552 2.5
      vertex 0.852094 0.772293 0
      vertex 0.852094 0.772293 2.5
    endloop
  endfacet
  facet normal 0.757214 0.653166 0
    outer loop
      vertex 0.852094 0.772293 0
      vertex 0.888962 0.729552 2.5
      vertex 0.888962 0.729552 0
    endloop
  endfacet
  facet normal 0.724247 0.689541 0
    outer loop
      vertex 0.852094 0.772293 2.5
      vertex 0.813173 0.813173 0
      vertex 0.813173 0.813173 2.5
    endloop
  endfacet
  facet normal 0.724247 0.689541 0
    outer loop
      vertex 0.813173 0.813173 0
      vertex 0.852094 0.772293 2.5
      vertex 0.852094 0.772293 0
    endloop
  endfacet
  facet normal 0.689541 0.724247 -0
    outer loop
      vertex 0.813173 0.813173 0
      vertex 0.772293 0.852094 2.5
      vertex 0.813173 0.813173 2.5
    endloop
  endfacet
  facet normal 0.689541 0.724247 0
    outer loop
      vertex 0.772293 0.852094 2.5
      vertex 0.813173 0.813173 0
      vertex 0.772293 0.852094 0
    endloop
  endfacet
  facet normal 0.653166 0.757214 -0
    outer loop
      vertex 0.772293 0.852094 0
      vertex 0.729552 0.888962 2.5
      vertex 0.772293 0.852094 2.5
    endloop
  endfacet
  facet normal 0.653166 0.757214 0
    outer loop
      vertex 0.729552 0.888962 2.5
      vertex 0.772293 0.852094 0
      vertex 0.729552 0.888962 0
    endloop
  endfacet
  facet normal 0.615236 0.788343 -0
    outer loop
      vertex 0.729552 0.888962 0
      vertex 0.685054 0.923689 2.5
      vertex 0.729552 0.888962 2.5
    endloop
  endfacet
  facet normal 0.615236 0.788343 0
    outer loop
      vertex 0.685054 0.923689 2.5
      vertex 0.729552 0.888962 0
      vertex 0.685054 0.923689 0
    endloop
  endfacet
  facet normal 0.575807 0.817586 -0
    outer loop
      vertex 0.685054 0.923689 0
      vertex 0.638906 0.95619 2.5
      vertex 0.685054 0.923689 2.5
    endloop
  endfacet
  facet normal 0.575807 0.817586 0
    outer loop
      vertex 0.638906 0.95619 2.5
      vertex 0.685054 0.923689 0
      vertex 0.638906 0.95619 0
    endloop
  endfacet
  facet normal 0.534996 0.844854 -0
    outer loop
      vertex 0.638906 0.95619 0
      vertex 0.591218 0.986388 2.5
      vertex 0.638906 0.95619 2.5
    endloop
  endfacet
  facet normal 0.534996 0.844854 0
    outer loop
      vertex 0.591218 0.986388 2.5
      vertex 0.638906 0.95619 0
      vertex 0.591218 0.986388 0
    endloop
  endfacet
  facet normal 0.492903 0.870084 -0
    outer loop
      vertex 0.591218 0.986388 0
      vertex 0.542106 1.01421 2.5
      vertex 0.591218 0.986388 2.5
    endloop
  endfacet
  facet normal 0.492903 0.870084 0
    outer loop
      vertex 0.542106 1.01421 2.5
      vertex 0.591218 0.986388 0
      vertex 0.542106 1.01421 0
    endloop
  endfacet
  facet normal 0.449636 0.893212 -0
    outer loop
      vertex 0.542106 1.01421 0
      vertex 0.491688 1.03959 2.5
      vertex 0.542106 1.01421 2.5
    endloop
  endfacet
  facet normal 0.449636 0.893212 0
    outer loop
      vertex 0.491688 1.03959 2.5
      vertex 0.542106 1.01421 0
      vertex 0.491688 1.03959 0
    endloop
  endfacet
  facet normal 0.405188 0.914233 -0
    outer loop
      vertex 0.491688 1.03959 0
      vertex 0.440086 1.06246 2.5
      vertex 0.491688 1.03959 2.5
    endloop
  endfacet
  facet normal 0.405188 0.914233 0
    outer loop
      vertex 0.440086 1.06246 2.5
      vertex 0.491688 1.03959 0
      vertex 0.440086 1.06246 0
    endloop
  endfacet
  facet normal 0.359982 0.932959 -0
    outer loop
      vertex 0.440086 1.06246 0
      vertex 0.387423 1.08278 2.5
      vertex 0.440086 1.06246 2.5
    endloop
  endfacet
  facet normal 0.359982 0.932959 0
    outer loop
      vertex 0.387423 1.08278 2.5
      vertex 0.440086 1.06246 0
      vertex 0.387423 1.08278 0
    endloop
  endfacet
  facet normal 0.31359 0.949558 -0
    outer loop
      vertex 0.387423 1.08278 0
      vertex 0.333827 1.10048 2.5
      vertex 0.387423 1.08278 2.5
    endloop
  endfacet
  facet normal 0.31359 0.949558 0
    outer loop
      vertex 0.333827 1.10048 2.5
      vertex 0.387423 1.08278 0
      vertex 0.333827 1.10048 0
    endloop
  endfacet
  facet normal 0.266803 0.963751 -0
    outer loop
      vertex 0.333827 1.10048 0
      vertex 0.279427 1.11554 2.5
      vertex 0.333827 1.10048 2.5
    endloop
  endfacet
  facet normal 0.266803 0.963751 0
    outer loop
      vertex 0.279427 1.11554 2.5
      vertex 0.333827 1.10048 0
      vertex 0.279427 1.11554 0
    endloop
  endfacet
  facet normal 0.218982 0.975729 -0
    outer loop
      vertex 0.279427 1.11554 0
      vertex 0.224354 1.1279 2.5
      vertex 0.279427 1.11554 2.5
    endloop
  endfacet
  facet normal 0.218982 0.975729 0
    outer loop
      vertex 0.224354 1.1279 2.5
      vertex 0.279427 1.11554 0
      vertex 0.224354 1.1279 0
    endloop
  endfacet
  facet normal 0.170963 0.985277 -0
    outer loop
      vertex 0.224354 1.1279 0
      vertex 0.16874 1.13755 2.5
      vertex 0.224354 1.1279 2.5
    endloop
  endfacet
  facet normal 0.170963 0.985277 0
    outer loop
      vertex 0.16874 1.13755 2.5
      vertex 0.224354 1.1279 0
      vertex 0.16874 1.13755 0
    endloop
  endfacet
  facet normal 0.122421 0.992478 -0
    outer loop
      vertex 0.16874 1.13755 0
      vertex 0.11272 1.14446 2.5
      vertex 0.16874 1.13755 2.5
    endloop
  endfacet
  facet normal 0.122421 0.992478 0
    outer loop
      vertex 0.11272 1.14446 2.5
      vertex 0.16874 1.13755 0
      vertex 0.11272 1.14446 0
    endloop
  endfacet
  facet normal 0.0735229 0.997294 -0
    outer loop
      vertex 0.11272 1.14446 0
      vertex 0.0564278 1.14861 2.5
      vertex 0.11272 1.14446 2.5
    endloop
  endfacet
  facet normal 0.0735229 0.997294 0
    outer loop
      vertex 0.0564278 1.14861 2.5
      vertex 0.11272 1.14446 0
      vertex 0.0564278 1.14861 0
    endloop
  endfacet
  facet normal 0.0246258 0.999697 -0
    outer loop
      vertex 0.0564278 1.14861 0
      vertex 0 1.15 2.5
      vertex 0.0564278 1.14861 2.5
    endloop
  endfacet
  facet normal 0.0246258 0.999697 0
    outer loop
      vertex 0 1.15 2.5
      vertex 0.0564278 1.14861 0
      vertex 0 1.15 0
    endloop
  endfacet
  facet normal -0.0246258 0.999697 0
    outer loop
      vertex 0 1.15 0
      vertex -0.0564278 1.14861 2.5
      vertex 0 1.15 2.5
    endloop
  endfacet
  facet normal -0.0246258 0.999697 0
    outer loop
      vertex -0.0564278 1.14861 2.5
      vertex 0 1.15 0
      vertex -0.0564278 1.14861 0
    endloop
  endfacet
  facet normal -0.0735229 0.997294 0
    outer loop
      vertex -0.0564278 1.14861 0
      vertex -0.11272 1.14446 2.5
      vertex -0.0564278 1.14861 2.5
    endloop
  endfacet
  facet normal -0.0735229 0.997294 0
    outer loop
      vertex -0.11272 1.14446 2.5
      vertex -0.0564278 1.14861 0
      vertex -0.11272 1.14446 0
    endloop
  endfacet
  facet normal -0.122421 0.992478 0
    outer loop
      vertex -0.11272 1.14446 0
      vertex -0.16874 1.13755 2.5
      vertex -0.11272 1.14446 2.5
    endloop
  endfacet
  facet normal -0.122421 0.992478 0
    outer loop
      vertex -0.16874 1.13755 2.5
      vertex -0.11272 1.14446 0
      vertex -0.16874 1.13755 0
    endloop
  endfacet
  facet normal -0.170963 0.985277 0
    outer loop
      vertex -0.16874 1.13755 0
      vertex -0.224354 1.1279 2.5
      vertex -0.16874 1.13755 2.5
    endloop
  endfacet
  facet normal -0.170963 0.985277 0
    outer loop
      vertex -0.224354 1.1279 2.5
      vertex -0.16874 1.13755 0
      vertex -0.224354 1.1279 0
    endloop
  endfacet
  facet normal -0.218982 0.975729 0
    outer loop
      vertex -0.224354 1.1279 0
      vertex -0.279427 1.11554 2.5
      vertex -0.224354 1.1279 2.5
    endloop
  endfacet
  facet normal -0.218982 0.975729 0
    outer loop
      vertex -0.279427 1.11554 2.5
      vertex -0.224354 1.1279 0
      vertex -0.279427 1.11554 0
    endloop
  endfacet
  facet normal -0.266803 0.963751 0
    outer loop
      vertex -0.279427 1.11554 0
      vertex -0.333827 1.10048 2.5
      vertex -0.279427 1.11554 2.5
    endloop
  endfacet
  facet normal -0.266803 0.963751 0
    outer loop
      vertex -0.333827 1.10048 2.5
      vertex -0.279427 1.11554 0
      vertex -0.333827 1.10048 0
    endloop
  endfacet
  facet normal -0.31359 0.949558 0
    outer loop
      vertex -0.333827 1.10048 0
      vertex -0.387423 1.08278 2.5
      vertex -0.333827 1.10048 2.5
    endloop
  endfacet
  facet normal -0.31359 0.949558 0
    outer loop
      vertex -0.387423 1.08278 2.5
      vertex -0.333827 1.10048 0
      vertex -0.387423 1.08278 0
    endloop
  endfacet
  facet normal -0.359982 0.932959 0
    outer loop
      vertex -0.387423 1.08278 0
      vertex -0.440086 1.06246 2.5
      vertex -0.387423 1.08278 2.5
    endloop
  endfacet
  facet normal -0.359982 0.932959 0
    outer loop
      vertex -0.440086 1.06246 2.5
      vertex -0.387423 1.08278 0
      vertex -0.440086 1.06246 0
    endloop
  endfacet
  facet normal -0.405188 0.914233 0
    outer loop
      vertex -0.440086 1.06246 0
      vertex -0.491688 1.03959 2.5
      vertex -0.440086 1.06246 2.5
    endloop
  endfacet
  facet normal -0.405188 0.914233 0
    outer loop
      vertex -0.491688 1.03959 2.5
      vertex -0.440086 1.06246 0
      vertex -0.491688 1.03959 0
    endloop
  endfacet
  facet normal -0.449636 0.893212 0
    outer loop
      vertex -0.491688 1.03959 0
      vertex -0.542106 1.01421 2.5
      vertex -0.491688 1.03959 2.5
    endloop
  endfacet
  facet normal -0.449636 0.893212 0
    outer loop
      vertex -0.542106 1.01421 2.5
      vertex -0.491688 1.03959 0
      vertex -0.542106 1.01421 0
    endloop
  endfacet
  facet normal -0.492903 0.870084 0
    outer loop
      vertex -0.542106 1.01421 0
      vertex -0.591218 0.986388 2.5
      vertex -0.542106 1.01421 2.5
    endloop
  endfacet
  facet normal -0.492903 0.870084 0
    outer loop
      vertex -0.591218 0.986388 2.5
      vertex -0.542106 1.01421 0
      vertex -0.591218 0.986388 0
    endloop
  endfacet
  facet normal -0.534996 0.844854 0
    outer loop
      vertex -0.591218 0.986388 0
      vertex -0.638906 0.95619 2.5
      vertex -0.591218 0.986388 2.5
    endloop
  endfacet
  facet normal -0.534996 0.844854 0
    outer loop
      vertex -0.638906 0.95619 2.5
      vertex -0.591218 0.986388 0
      vertex -0.638906 0.95619 0
    endloop
  endfacet
  facet normal -0.575807 0.817586 0
    outer loop
      vertex -0.638906 0.95619 0
      vertex -0.685054 0.923689 2.5
      vertex -0.638906 0.95619 2.5
    endloop
  endfacet
  facet normal -0.575807 0.817586 0
    outer loop
      vertex -0.685054 0.923689 2.5
      vertex -0.638906 0.95619 0
      vertex -0.685054 0.923689 0
    endloop
  endfacet
  facet normal -0.615236 0.788343 0
    outer loop
      vertex -0.685054 0.923689 0
      vertex -0.729552 0.888962 2.5
      vertex -0.685054 0.923689 2.5
    endloop
  endfacet
  facet normal -0.615236 0.788343 0
    outer loop
      vertex -0.729552 0.888962 2.5
      vertex -0.685054 0.923689 0
      vertex -0.729552 0.888962 0
    endloop
  endfacet
  facet normal -0.653166 0.757214 0
    outer loop
      vertex -0.729552 0.888962 0
      vertex -0.772293 0.852094 2.5
      vertex -0.729552 0.888962 2.5
    endloop
  endfacet
  facet normal -0.653166 0.757214 0
    outer loop
      vertex -0.772293 0.852094 2.5
      vertex -0.729552 0.888962 0
      vertex -0.772293 0.852094 0
    endloop
  endfacet
  facet normal -0.689541 0.724247 0
    outer loop
      vertex -0.772293 0.852094 0
      vertex -0.813173 0.813173 2.5
      vertex -0.772293 0.852094 2.5
    endloop
  endfacet
  facet normal -0.689541 0.724247 0
    outer loop
      vertex -0.813173 0.813173 2.5
      vertex -0.772293 0.852094 0
      vertex -0.813173 0.813173 0
    endloop
  endfacet
  facet normal -0.724247 0.689541 0
    outer loop
      vertex -0.852094 0.772293 0
      vertex -0.813173 0.813173 2.5
      vertex -0.813173 0.813173 0
    endloop
  endfacet
  facet normal -0.724247 0.689541 0
    outer loop
      vertex -0.813173 0.813173 2.5
      vertex -0.852094 0.772293 0
      vertex -0.852094 0.772293 2.5
    endloop
  endfacet
  facet normal -0.757214 0.653166 0
    outer loop
      vertex -0.888962 0.729552 0
      vertex -0.852094 0.772293 2.5
      vertex -0.852094 0.772293 0
    endloop
  endfacet
  facet normal -0.757214 0.653166 0
    outer loop
      vertex -0.852094 0.772293 2.5
      vertex -0.888962 0.729552 0
      vertex -0.888962 0.729552 2.5
    endloop
  endfacet
  facet normal -0.788343 0.615236 0
    outer loop
      vertex -0.923689 0.685054 0
      vertex -0.888962 0.729552 2.5
      vertex -0.888962 0.729552 0
    endloop
  endfacet
  facet normal -0.788343 0.615236 0
    outer loop
      vertex -0.888962 0.729552 2.5
      vertex -0.923689 0.685054 0
      vertex -0.923689 0.685054 2.5
    endloop
  endfacet
  facet normal -0.817586 0.575807 0
    outer loop
      vertex -0.95619 0.638906 0
      vertex -0.923689 0.685054 2.5
      vertex -0.923689 0.685054 0
    endloop
  endfacet
  facet normal -0.817586 0.575807 0
    outer loop
      vertex -0.923689 0.685054 2.5
      vertex -0.95619 0.638906 0
      vertex -0.95619 0.638906 2.5
    endloop
  endfacet
  facet normal -0.844854 0.534996 0
    outer loop
      vertex -0.986388 0.591218 0
      vertex -0.95619 0.638906 2.5
      vertex -0.95619 0.638906 0
    endloop
  endfacet
  facet normal -0.844854 0.534996 0
    outer loop
      vertex -0.95619 0.638906 2.5
      vertex -0.986388 0.591218 0
      vertex -0.986388 0.591218 2.5
    endloop
  endfacet
  facet normal -0.870084 0.492903 0
    outer loop
      vertex -1.01421 0.542106 0
      vertex -0.986388 0.591218 2.5
      vertex -0.986388 0.591218 0
    endloop
  endfacet
  facet normal -0.870084 0.492903 0
    outer loop
      vertex -0.986388 0.591218 2.5
      vertex -1.01421 0.542106 0
      vertex -1.01421 0.542106 2.5
    endloop
  endfacet
  facet normal -0.893212 0.449636 0
    outer loop
      vertex -1.03959 0.491688 0
      vertex -1.01421 0.542106 2.5
      vertex -1.01421 0.542106 0
    endloop
  endfacet
  facet normal -0.893212 0.449636 0
    outer loop
      vertex -1.01421 0.542106 2.5
      vertex -1.03959 0.491688 0
      vertex -1.03959 0.491688 2.5
    endloop
  endfacet
  facet normal -0.914233 0.405188 0
    outer loop
      vertex -1.06246 0.440086 0
      vertex -1.03959 0.491688 2.5
      vertex -1.03959 0.491688 0
    endloop
  endfacet
  facet normal -0.914233 0.405188 0
    outer loop
      vertex -1.03959 0.491688 2.5
      vertex -1.06246 0.440086 0
      vertex -1.06246 0.440086 2.5
    endloop
  endfacet
  facet normal -0.932959 0.359982 0
    outer loop
      vertex -1.08278 0.387423 0
      vertex -1.06246 0.440086 2.5
      vertex -1.06246 0.440086 0
    endloop
  endfacet
  facet normal -0.932959 0.359982 0
    outer loop
      vertex -1.06246 0.440086 2.5
      vertex -1.08278 0.387423 0
      vertex -1.08278 0.387423 2.5
    endloop
  endfacet
  facet normal -0.949558 0.31359 0
    outer loop
      vertex -1.10048 0.333827 0
      vertex -1.08278 0.387423 2.5
      vertex -1.08278 0.387423 0
    endloop
  endfacet
  facet normal -0.949558 0.31359 0
    outer loop
      vertex -1.08278 0.387423 2.5
      vertex -1.10048 0.333827 0
      vertex -1.10048 0.333827 2.5
    endloop
  endfacet
  facet normal -0.963751 0.266803 0
    outer loop
      vertex -1.11554 0.279427 0
      vertex -1.10048 0.333827 2.5
      vertex -1.10048 0.333827 0
    endloop
  endfacet
  facet normal -0.963751 0.266803 0
    outer loop
      vertex -1.10048 0.333827 2.5
      vertex -1.11554 0.279427 0
      vertex -1.11554 0.279427 2.5
    endloop
  endfacet
  facet normal -0.975729 0.218982 0
    outer loop
      vertex -1.1279 0.224354 0
      vertex -1.11554 0.279427 2.5
      vertex -1.11554 0.279427 0
    endloop
  endfacet
  facet normal -0.975729 0.218982 0
    outer loop
      vertex -1.11554 0.279427 2.5
      vertex -1.1279 0.224354 0
      vertex -1.1279 0.224354 2.5
    endloop
  endfacet
  facet normal -0.985277 0.170963 0
    outer loop
      vertex -1.13755 0.16874 0
      vertex -1.1279 0.224354 2.5
      vertex -1.1279 0.224354 0
    endloop
  endfacet
  facet normal -0.985277 0.170963 0
    outer loop
      vertex -1.1279 0.224354 2.5
      vertex -1.13755 0.16874 0
      vertex -1.13755 0.16874 2.5
    endloop
  endfacet
  facet normal -0.992478 0.122421 0
    outer loop
      vertex -1.14446 0.11272 0
      vertex -1.13755 0.16874 2.5
      vertex -1.13755 0.16874 0
    endloop
  endfacet
  facet normal -0.992478 0.122421 0
    outer loop
      vertex -1.13755 0.16874 2.5
      vertex -1.14446 0.11272 0
      vertex -1.14446 0.11272 2.5
    endloop
  endfacet
  facet normal -0.997294 0.0735229 0
    outer loop
      vertex -1.14861 0.0564278 0
      vertex -1.14446 0.11272 2.5
      vertex -1.14446 0.11272 0
    endloop
  endfacet
  facet normal -0.997294 0.0735229 0
    outer loop
      vertex -1.14446 0.11272 2.5
      vertex -1.14861 0.0564278 0
      vertex -1.14861 0.0564278 2.5
    endloop
  endfacet
  facet normal -0.999697 0.0246258 0
    outer loop
      vertex -1.15 -0 0
      vertex -1.14861 0.0564278 2.5
      vertex -1.14861 0.0564278 0
    endloop
  endfacet
  facet normal -0.999697 0.0246258 0
    outer loop
      vertex -1.14861 0.0564278 2.5
      vertex -1.15 -0 0
      vertex -1.15 -0 2.5
    endloop
  endfacet
  facet normal -0.999697 -0.0246258 0
    outer loop
      vertex -1.14861 -0.0564278 0
      vertex -1.15 -0 2.5
      vertex -1.15 -0 0
    endloop
  endfacet
  facet normal -0.999697 -0.0246258 0
    outer loop
      vertex -1.15 -0 2.5
      vertex -1.14861 -0.0564278 0
      vertex -1.14861 -0.0564278 2.5
    endloop
  endfacet
  facet normal -0.997294 -0.0735229 0
    outer loop
      vertex -1.14446 -0.11272 0
      vertex -1.14861 -0.0564278 2.5
      vertex -1.14861 -0.0564278 0
    endloop
  endfacet
  facet normal -0.997294 -0.0735229 0
    outer loop
      vertex -1.14861 -0.0564278 2.5
      vertex -1.14446 -0.11272 0
      vertex -1.14446 -0.11272 2.5
    endloop
  endfacet
  facet normal -0.992478 -0.122421 0
    outer loop
      vertex -1.13755 -0.16874 0
      vertex -1.14446 -0.11272 2.5
      vertex -1.14446 -0.11272 0
    endloop
  endfacet
  facet normal -0.992478 -0.122421 0
    outer loop
      vertex -1.14446 -0.11272 2.5
      vertex -1.13755 -0.16874 0
      vertex -1.13755 -0.16874 2.5
    endloop
  endfacet
  facet normal -0.985277 -0.170963 0
    outer loop
      vertex -1.1279 -0.224354 0
      vertex -1.13755 -0.16874 2.5
      vertex -1.13755 -0.16874 0
    endloop
  endfacet
  facet normal -0.985277 -0.170963 0
    outer loop
      vertex -1.13755 -0.16874 2.5
      vertex -1.1279 -0.224354 0
      vertex -1.1279 -0.224354 2.5
    endloop
  endfacet
  facet normal -0.975729 -0.218982 0
    outer loop
      vertex -1.11554 -0.279427 0
      vertex -1.1279 -0.224354 2.5
      vertex -1.1279 -0.224354 0
    endloop
  endfacet
  facet normal -0.975729 -0.218982 0
    outer loop
      vertex -1.1279 -0.224354 2.5
      vertex -1.11554 -0.279427 0
      vertex -1.11554 -0.279427 2.5
    endloop
  endfacet
  facet normal -0.963751 -0.266803 0
    outer loop
      vertex -1.10048 -0.333827 0
      vertex -1.11554 -0.279427 2.5
      vertex -1.11554 -0.279427 0
    endloop
  endfacet
  facet normal -0.963751 -0.266803 0
    outer loop
      vertex -1.11554 -0.279427 2.5
      vertex -1.10048 -0.333827 0
      vertex -1.10048 -0.333827 2.5
    endloop
  endfacet
  facet normal -0.949558 -0.31359 0
    outer loop
      vertex -1.08278 -0.387423 0
      vertex -1.10048 -0.333827 2.5
      vertex -1.10048 -0.333827 0
    endloop
  endfacet
  facet normal -0.949558 -0.31359 0
    outer loop
      vertex -1.10048 -0.333827 2.5
      vertex -1.08278 -0.387423 0
      vertex -1.08278 -0.387423 2.5
    endloop
  endfacet
  facet normal -0.932959 -0.359982 0
    outer loop
      vertex -1.06246 -0.440086 0
      vertex -1.08278 -0.387423 2.5
      vertex -1.08278 -0.387423 0
    endloop
  endfacet
  facet normal -0.932959 -0.359982 0
    outer loop
      vertex -1.08278 -0.387423 2.5
      vertex -1.06246 -0.440086 0
      vertex -1.06246 -0.440086 2.5
    endloop
  endfacet
  facet normal -0.914233 -0.405188 0
    outer loop
      vertex -1.03959 -0.491688 0
      vertex -1.06246 -0.440086 2.5
      vertex -1.06246 -0.440086 0
    endloop
  endfacet
  facet normal -0.914233 -0.405188 0
    outer loop
      vertex -1.06246 -0.440086 2.5
      vertex -1.03959 -0.491688 0
      vertex -1.03959 -0.491688 2.5
    endloop
  endfacet
  facet normal -0.893212 -0.449636 0
    outer loop
      vertex -1.01421 -0.542106 0
      vertex -1.03959 -0.491688 2.5
      vertex -1.03959 -0.491688 0
    endloop
  endfacet
  facet normal -0.893212 -0.449636 0
    outer loop
      vertex -1.03959 -0.491688 2.5
      vertex -1.01421 -0.542106 0
      vertex -1.01421 -0.542106 2.5
    endloop
  endfacet
  facet normal -0.870084 -0.492903 0
    outer loop
      vertex -0.986388 -0.591218 0
      vertex -1.01421 -0.542106 2.5
      vertex -1.01421 -0.542106 0
    endloop
  endfacet
  facet normal -0.870084 -0.492903 0
    outer loop
      vertex -1.01421 -0.542106 2.5
      vertex -0.986388 -0.591218 0
      vertex -0.986388 -0.591218 2.5
    endloop
  endfacet
  facet normal -0.844854 -0.534996 0
    outer loop
      vertex -0.95619 -0.638906 0
      vertex -0.986388 -0.591218 2.5
      vertex -0.986388 -0.591218 0
    endloop
  endfacet
  facet normal -0.844854 -0.534996 0
    outer loop
      vertex -0.986388 -0.591218 2.5
      vertex -0.95619 -0.638906 0
      vertex -0.95619 -0.638906 2.5
    endloop
  endfacet
  facet normal -0.817586 -0.575807 0
    outer loop
      vertex -0.923689 -0.685054 0
      vertex -0.95619 -0.638906 2.5
      vertex -0.95619 -0.638906 0
    endloop
  endfacet
  facet normal -0.817586 -0.575807 0
    outer loop
      vertex -0.95619 -0.638906 2.5
      vertex -0.923689 -0.685054 0
      vertex -0.923689 -0.685054 2.5
    endloop
  endfacet
  facet normal -0.788343 -0.615236 0
    outer loop
      vertex -0.888962 -0.729552 0
      vertex -0.923689 -0.685054 2.5
      vertex -0.923689 -0.685054 0
    endloop
  endfacet
  facet normal -0.788343 -0.615236 0
    outer loop
      vertex -0.923689 -0.685054 2.5
      vertex -0.888962 -0.729552 0
      vertex -0.888962 -0.729552 2.5
    endloop
  endfacet
  facet normal -0.757214 -0.653166 0
    outer loop
      vertex -0.852094 -0.772293 0
      vertex -0.888962 -0.729552 2.5
      vertex -0.888962 -0.729552 0
    endloop
  endfacet
  facet normal -0.757214 -0.653166 0
    outer loop
      vertex -0.888962 -0.729552 2.5
      vertex -0.852094 -0.772293 0
      vertex -0.852094 -0.772293 2.5
    endloop
  endfacet
  facet normal -0.724247 -0.689541 0
    outer loop
      vertex -0.813173 -0.813173 0
      vertex -0.852094 -0.772293 2.5
      vertex -0.852094 -0.772293 0
    endloop
  endfacet
  facet normal -0.724247 -0.689541 0
    outer loop
      vertex -0.852094 -0.772293 2.5
      vertex -0.813173 -0.813173 0
      vertex -0.813173 -0.813173 2.5
    endloop
  endfacet
  facet normal -0.689541 -0.724247 0
    outer loop
      vertex -0.813173 -0.813173 0
      vertex -0.772293 -0.852094 2.5
      vertex -0.813173 -0.813173 2.5
    endloop
  endfacet
  facet normal -0.689541 -0.724247 -0
    outer loop
      vertex -0.772293 -0.852094 2.5
      vertex -0.813173 -0.813173 0
      vertex -0.772293 -0.852094 0
    endloop
  endfacet
  facet normal -0.653166 -0.757214 0
    outer loop
      vertex -0.772293 -0.852094 0
      vertex -0.729552 -0.888962 2.5
      vertex -0.772293 -0.852094 2.5
    endloop
  endfacet
  facet normal -0.653166 -0.757214 -0
    outer loop
      vertex -0.729552 -0.888962 2.5
      vertex -0.772293 -0.852094 0
      vertex -0.729552 -0.888962 0
    endloop
  endfacet
  facet normal -0.615236 -0.788343 0
    outer loop
      vertex -0.729552 -0.888962 0
      vertex -0.685054 -0.923689 2.5
      vertex -0.729552 -0.888962 2.5
    endloop
  endfacet
  facet normal -0.615236 -0.788343 -0
    outer loop
      vertex -0.685054 -0.923689 2.5
      vertex -0.729552 -0.888962 0
      vertex -0.685054 -0.923689 0
    endloop
  endfacet
  facet normal -0.575807 -0.817586 0
    outer loop
      vertex -0.685054 -0.923689 0
      vertex -0.638906 -0.95619 2.5
      vertex -0.685054 -0.923689 2.5
    endloop
  endfacet
  facet normal -0.575807 -0.817586 -0
    outer loop
      vertex -0.638906 -0.95619 2.5
      vertex -0.685054 -0.923689 0
      vertex -0.638906 -0.95619 0
    endloop
  endfacet
  facet normal -0.534996 -0.844854 0
    outer loop
      vertex -0.638906 -0.95619 0
      vertex -0.591218 -0.986388 2.5
      vertex -0.638906 -0.95619 2.5
    endloop
  endfacet
  facet normal -0.534996 -0.844854 -0
    outer loop
      vertex -0.591218 -0.986388 2.5
      vertex -0.638906 -0.95619 0
      vertex -0.591218 -0.986388 0
    endloop
  endfacet
  facet normal -0.492903 -0.870084 0
    outer loop
      vertex -0.591218 -0.986388 0
      vertex -0.542106 -1.01421 2.5
      vertex -0.591218 -0.986388 2.5
    endloop
  endfacet
  facet normal -0.492903 -0.870084 -0
    outer loop
      vertex -0.542106 -1.01421 2.5
      vertex -0.591218 -0.986388 0
      vertex -0.542106 -1.01421 0
    endloop
  endfacet
  facet normal -0.449636 -0.893212 0
    outer loop
      vertex -0.542106 -1.01421 0
      vertex -0.491688 -1.03959 2.5
      vertex -0.542106 -1.01421 2.5
    endloop
  endfacet
  facet normal -0.449636 -0.893212 -0
    outer loop
      vertex -0.491688 -1.03959 2.5
      vertex -0.542106 -1.01421 0
      vertex -0.491688 -1.03959 0
    endloop
  endfacet
  facet normal -0.405188 -0.914233 0
    outer loop
      vertex -0.491688 -1.03959 0
      vertex -0.440086 -1.06246 2.5
      vertex -0.491688 -1.03959 2.5
    endloop
  endfacet
  facet normal -0.405188 -0.914233 -0
    outer loop
      vertex -0.440086 -1.06246 2.5
      vertex -0.491688 -1.03959 0
      vertex -0.440086 -1.06246 0
    endloop
  endfacet
  facet normal -0.359982 -0.932959 0
    outer loop
      vertex -0.440086 -1.06246 0
      vertex -0.387423 -1.08278 2.5
      vertex -0.440086 -1.06246 2.5
    endloop
  endfacet
  facet normal -0.359982 -0.932959 -0
    outer loop
      vertex -0.387423 -1.08278 2.5
      vertex -0.440086 -1.06246 0
      vertex -0.387423 -1.08278 0
    endloop
  endfacet
  facet normal -0.31359 -0.949558 0
    outer loop
      vertex -0.387423 -1.08278 0
      vertex -0.333827 -1.10048 2.5
      vertex -0.387423 -1.08278 2.5
    endloop
  endfacet
  facet normal -0.31359 -0.949558 -0
    outer loop
      vertex -0.333827 -1.10048 2.5
      vertex -0.387423 -1.08278 0
      vertex -0.333827 -1.10048 0
    endloop
  endfacet
  facet normal -0.266803 -0.963751 0
    outer loop
      vertex -0.333827 -1.10048 0
      vertex -0.279427 -1.11554 2.5
      vertex -0.333827 -1.10048 2.5
    endloop
  endfacet
  facet normal -0.266803 -0.963751 -0
    outer loop
      vertex -0.279427 -1.11554 2.5
      vertex -0.333827 -1.10048 0
      vertex -0.279427 -1.11554 0
    endloop
  endfacet
  facet normal -0.218982 -0.975729 0
    outer loop
      vertex -0.279427 -1.11554 0
      vertex -0.224354 -1.1279 2.5
      vertex -0.279427 -1.11554 2.5
    endloop
  endfacet
  facet normal -0.218982 -0.975729 -0
    outer loop
      vertex -0.224354 -1.1279 2.5
      vertex -0.279427 -1.11554 0
      vertex -0.224354 -1.1279 0
    endloop
  endfacet
  facet normal -0.170963 -0.985277 0
    outer loop
      vertex -0.224354 -1.1279 0
      vertex -0.16874 -1.13755 2.5
      vertex -0.224354 -1.1279 2.5
    endloop
  endfacet
  facet normal -0.170963 -0.985277 -0
    outer loop
      vertex -0.16874 -1.13755 2.5
      vertex -0.224354 -1.1279 0
      vertex -0.16874 -1.13755 0
    endloop
  endfacet
  facet normal -0.122421 -0.992478 0
    outer loop
      vertex -0.16874 -1.13755 0
      vertex -0.11272 -1.14446 2.5
      vertex -0.16874 -1.13755 2.5
    endloop
  endfacet
  facet normal -0.122421 -0.992478 -0
    outer loop
      vertex -0.11272 -1.14446 2.5
      vertex -0.16874 -1.13755 0
      vertex -0.11272 -1.14446 0
    endloop
  endfacet
  facet normal -0.0735229 -0.997294 0
    outer loop
      vertex -0.11272 -1.14446 0
      vertex -0.0564278 -1.14861 2.5
      vertex -0.11272 -1.14446 2.5
    endloop
  endfacet
  facet normal -0.0735229 -0.997294 -0
    outer loop
      vertex -0.0564278 -1.14861 2.5
      vertex -0.11272 -1.14446 0
      vertex -0.0564278 -1.14861 0
    endloop
  endfacet
  facet normal -0.0246258 -0.999697 0
    outer loop
      vertex -0.0564278 -1.14861 0
      vertex -0 -1.15 2.5
      vertex -0.0564278 -1.14861 2.5
    endloop
  endfacet
  facet normal -0.0246258 -0.999697 -0
    outer loop
      vertex -0 -1.15 2.5
      vertex -0.0564278 -1.14861 0
      vertex -0 -1.15 0
    endloop
  endfacet
  facet normal 0.0246258 -0.999697 0
    outer loop
      vertex -0 -1.15 0
      vertex 0.0564278 -1.14861 2.5
      vertex -0 -1.15 2.5
    endloop
  endfacet
  facet normal 0.0246258 -0.999697 0
    outer loop
      vertex 0.0564278 -1.14861 2.5
      vertex -0 -1.15 0
      vertex 0.0564278 -1.14861 0
    endloop
  endfacet
  facet normal 0.0735229 -0.997294 0
    outer loop
      vertex 0.0564278 -1.14861 0
      vertex 0.11272 -1.14446 2.5
      vertex 0.0564278 -1.14861 2.5
    endloop
  endfacet
  facet normal 0.0735229 -0.997294 0
    outer loop
      vertex 0.11272 -1.14446 2.5
      vertex 0.0564278 -1.14861 0
      vertex 0.11272 -1.14446 0
    endloop
  endfacet
  facet normal 0.122421 -0.992478 0
    outer loop
      vertex 0.11272 -1.14446 0
      vertex 0.16874 -1.13755 2.5
      vertex 0.11272 -1.14446 2.5
    endloop
  endfacet
  facet normal 0.122421 -0.992478 0
    outer loop
      vertex 0.16874 -1.13755 2.5
      vertex 0.11272 -1.14446 0
      vertex 0.16874 -1.13755 0
    endloop
  endfacet
  facet normal 0.170963 -0.985277 0
    outer loop
      vertex 0.16874 -1.13755 0
      vertex 0.224354 -1.1279 2.5
      vertex 0.16874 -1.13755 2.5
    endloop
  endfacet
  facet normal 0.170963 -0.985277 0
    outer loop
      vertex 0.224354 -1.1279 2.5
      vertex 0.16874 -1.13755 0
      vertex 0.224354 -1.1279 0
    endloop
  endfacet
  facet normal 0.218982 -0.975729 0
    outer loop
      vertex 0.224354 -1.1279 0
      vertex 0.279427 -1.11554 2.5
      vertex 0.224354 -1.1279 2.5
    endloop
  endfacet
  facet normal 0.218982 -0.975729 0
    outer loop
      vertex 0.279427 -1.11554 2.5
      vertex 0.224354 -1.1279 0
      vertex 0.279427 -1.11554 0
    endloop
  endfacet
  facet normal 0.266803 -0.963751 0
    outer loop
      vertex 0.279427 -1.11554 0
      vertex 0.333827 -1.10048 2.5
      vertex 0.279427 -1.11554 2.5
    endloop
  endfacet
  facet normal 0.266803 -0.963751 0
    outer loop
      vertex 0.333827 -1.10048 2.5
      vertex 0.279427 -1.11554 0
      vertex 0.333827 -1.10048 0
    endloop
  endfacet
  facet normal 0.31359 -0.949558 0
    outer loop
      vertex 0.333827 -1.10048 0
      vertex 0.387423 -1.08278 2.5
      vertex 0.333827 -1.10048 2.5
    endloop
  endfacet
  facet normal 0.31359 -0.949558 0
    outer loop
      vertex 0.387423 -1.08278 2.5
      vertex 0.333827 -1.10048 0
      vertex 0.387423 -1.08278 0
    endloop
  endfacet
  facet normal 0.359982 -0.932959 0
    outer loop
      vertex 0.387423 -1.08278 0
      vertex 0.440086 -1.06246 2.5
      vertex 0.387423 -1.08278 2.5
    endloop
  endfacet
  facet normal 0.359982 -0.932959 0
    outer loop
      vertex 0.440086 -1.06246 2.5
      vertex 0.387423 -1.08278 0
      vertex 0.440086 -1.06246 0
    endloop
  endfacet
  facet normal 0.405188 -0.914233 0
    outer loop
      vertex 0.440086 -1.06246 0
      vertex 0.491688 -1.03959 2.5
      vertex 0.440086 -1.06246 2.5
    endloop
  endfacet
  facet normal 0.405188 -0.914233 0
    outer loop
      vertex 0.491688 -1.03959 2.5
      vertex 0.440086 -1.06246 0
      vertex 0.491688 -1.03959 0
    endloop
  endfacet
  facet normal 0.449636 -0.893212 0
    outer loop
      vertex 0.491688 -1.03959 0
      vertex 0.542106 -1.01421 2.5
      vertex 0.491688 -1.03959 2.5
    endloop
  endfacet
  facet normal 0.449636 -0.893212 0
    outer loop
      vertex 0.542106 -1.01421 2.5
      vertex 0.491688 -1.03959 0
      vertex 0.542106 -1.01421 0
    endloop
  endfacet
  facet normal 0.492903 -0.870084 0
    outer loop
      vertex 0.542106 -1.01421 0
      vertex 0.591218 -0.986388 2.5
      vertex 0.542106 -1.01421 2.5
    endloop
  endfacet
  facet normal 0.492903 -0.870084 0
    outer loop
      vertex 0.591218 -0.986388 2.5
      vertex 0.542106 -1.01421 0
      vertex 0.591218 -0.986388 0
    endloop
  endfacet
  facet normal 0.534996 -0.844854 0
    outer loop
      vertex 0.591218 -0.986388 0
      vertex 0.638906 -0.95619 2.5
      vertex 0.591218 -0.986388 2.5
    endloop
  endfacet
  facet normal 0.534996 -0.844854 0
    outer loop
      vertex 0.638906 -0.95619 2.5
      vertex 0.591218 -0.986388 0
      vertex 0.638906 -0.95619 0
    endloop
  endfacet
  facet normal 0.575807 -0.817586 0
    outer loop
      vertex 0.638906 -0.95619 0
      vertex 0.685054 -0.923689 2.5
      vertex 0.638906 -0.95619 2.5
    endloop
  endfacet
  facet normal 0.575807 -0.817586 0
    outer loop
      vertex 0.685054 -0.923689 2.5
      vertex 0.638906 -0.95619 0
      vertex 0.685054 -0.923689 0
    endloop
  endfacet
  facet normal 0.615236 -0.788343 0
    outer loop
      vertex 0.685054 -0.923689 0
      vertex 0.729552 -0.888962 2.5
      vertex 0.685054 -0.923689 2.5
    endloop
  endfacet
  facet normal 0.615236 -0.788343 0
    outer loop
      vertex 0.729552 -0.888962 2.5
      vertex 0.685054 -0.923689 0
      vertex 0.729552 -0.888962 0
    endloop
  endfacet
  facet normal 0.653166 -0.757214 0
    outer loop
      vertex 0.729552 -0.888962 0
      vertex 0.772293 -0.852094 2.5
      vertex 0.729552 -0.888962 2.5
    endloop
  endfacet
  facet normal 0.653166 -0.757214 0
    outer loop
      vertex 0.772293 -0.852094 2.5
      vertex 0.729552 -0.888962 0
      vertex 0.772293 -0.852094 0
    endloop
  endfacet
  facet normal 0.689541 -0.724247 0
    outer loop
      vertex 0.772293 -0.852094 0
      vertex 0.813173 -0.813173 2.5
      vertex 0.772293 -0.852094 2.5
    endloop
  endfacet
  facet normal 0.689541 -0.724247 0
    outer loop
      vertex 0.813173 -0.813173 2.5
      vertex 0.772293 -0.852094 0
      vertex 0.813173 -0.813173 0
    endloop
  endfacet
  facet normal 0.724247 -0.689541 0
    outer loop
      vertex 0.813173 -0.813173 2.5
      vertex 0.852094 -0.772293 0
      vertex 0.852094 -0.772293 2.5
    endloop
  endfacet
  facet normal 0.724247 -0.689541 0
    outer loop
      vertex 0.852094 -0.772293 0
      vertex 0.813173 -0.813173 2.5
      vertex 0.813173 -0.813173 0
    endloop
  endfacet
  facet normal 0.757214 -0.653166 0
    outer loop
      vertex 0.852094 -0.772293 2.5
      vertex 0.888962 -0.729552 0
      vertex 0.888962 -0.729552 2.5
    endloop
  endfacet
  facet normal 0.757214 -0.653166 0
    outer loop
      vertex 0.888962 -0.729552 0
      vertex 0.852094 -0.772293 2.5
      vertex 0.852094 -0.772293 0
    endloop
  endfacet
  facet normal 0.788343 -0.615236 0
    outer loop
      vertex 0.888962 -0.729552 2.5
      vertex 0.923689 -0.685054 0
      vertex 0.923689 -0.685054 2.5
    endloop
  endfacet
  facet normal 0.788343 -0.615236 0
    outer loop
      vertex 0.923689 -0.685054 0
      vertex 0.888962 -0.729552 2.5
      vertex 0.888962 -0.729552 0
    endloop
  endfacet
  facet normal 0.817586 -0.575807 0
    outer loop
      vertex 0.923689 -0.685054 2.5
      vertex 0.95619 -0.638906 0
      vertex 0.95619 -0.638906 2.5
    endloop
  endfacet
  facet normal 0.817586 -0.575807 0
    outer loop
      vertex 0.95619 -0.638906 0
      vertex 0.923689 -0.685054 2.5
      vertex 0.923689 -0.685054 0
    endloop
  endfacet
  facet normal 0.844854 -0.534996 0
    outer loop
      vertex 0.95619 -0.638906 2.5
      vertex 0.986388 -0.591218 0
      vertex 0.986388 -0.591218 2.5
    endloop
  endfacet
  facet normal 0.844854 -0.534996 0
    outer loop
      vertex 0.986388 -0.591218 0
      vertex 0.95619 -0.638906 2.5
      vertex 0.95619 -0.638906 0
    endloop
  endfacet
  facet normal 0.870084 -0.492903 0
    outer loop
      vertex 0.986388 -0.591218 2.5
      vertex 1.01421 -0.542106 0
      vertex 1.01421 -0.542106 2.5
    endloop
  endfacet
  facet normal 0.870084 -0.492903 0
    outer loop
      vertex 1.01421 -0.542106 0
      vertex 0.986388 -0.591218 2.5
      vertex 0.986388 -0.591218 0
    endloop
  endfacet
  facet normal 0.893212 -0.449636 0
    outer loop
      vertex 1.01421 -0.542106 2.5
      vertex 1.03959 -0.491688 0
      vertex 1.03959 -0.491688 2.5
    endloop
  endfacet
  facet normal 0.893212 -0.449636 0
    outer loop
      vertex 1.03959 -0.491688 0
      vertex 1.01421 -0.542106 2.5
      vertex 1.01421 -0.542106 0
    endloop
  endfacet
  facet normal 0.914233 -0.405188 0
    outer loop
      vertex 1.03959 -0.491688 2.5
      vertex 1.06246 -0.440086 0
      vertex 1.06246 -0.440086 2.5
    endloop
  endfacet
  facet normal 0.914233 -0.405188 0
    outer loop
      vertex 1.06246 -0.440086 0
      vertex 1.03959 -0.491688 2.5
      vertex 1.03959 -0.491688 0
    endloop
  endfacet
  facet normal 0.932959 -0.359982 0
    outer loop
      vertex 1.06246 -0.440086 2.5
      vertex 1.08278 -0.387423 0
      vertex 1.08278 -0.387423 2.5
    endloop
  endfacet
  facet normal 0.932959 -0.359982 0
    outer loop
      vertex 1.08278 -0.387423 0
      vertex 1.06246 -0.440086 2.5
      vertex 1.06246 -0.440086 0
    endloop
  endfacet
  facet normal 0.949558 -0.31359 0
    outer loop
      vertex 1.08278 -0.387423 2.5
      vertex 1.10048 -0.333827 0
      vertex 1.10048 -0.333827 2.5
    endloop
  endfacet
  facet normal 0.949558 -0.31359 0
    outer loop
      vertex 1.10048 -0.333827 0
      vertex 1.08278 -0.387423 2.5
      vertex 1.08278 -0.387423 0
    endloop
  endfacet
  facet normal 0.963751 -0.266803 0
    outer loop
      vertex 1.10048 -0.333827 2.5
      vertex 1.11554 -0.279427 0
      vertex 1.11554 -0.279427 2.5
    endloop
  endfacet
  facet normal 0.963751 -0.266803 0
    outer loop
      vertex 1.11554 -0.279427 0
      vertex 1.10048 -0.333827 2.5
      vertex 1.10048 -0.333827 0
    endloop
  endfacet
  facet normal 0.975729 -0.218982 0
    outer loop
      vertex 1.11554 -0.279427 2.5
      vertex 1.1279 -0.224354 0
      vertex 1.1279 -0.224354 2.5
    endloop
  endfacet
  facet normal 0.975729 -0.218982 0
    outer loop
      vertex 1.1279 -0.224354 0
      vertex 1.11554 -0.279427 2.5
      vertex 1.11554 -0.279427 0
    endloop
  endfacet
  facet normal 0.985277 -0.170963 0
    outer loop
      vertex 1.1279 -0.224354 2.5
      vertex 1.13755 -0.16874 0
      vertex 1.13755 -0.16874 2.5
    endloop
  endfacet
  facet normal 0.985277 -0.170963 0
    outer loop
      vertex 1.13755 -0.16874 0
      vertex 1.1279 -0.224354 2.5
      vertex 1.1279 -0.224354 0
    endloop
  endfacet
  facet normal 0.992478 -0.122421 0
    outer loop
      vertex 1.13755 -0.16874 2.5
      vertex 1.14446 -0.11272 0
      vertex 1.14446 -0.11272 2.5
    endloop
  endfacet
  facet normal 0.992478 -0.122421 0
    outer loop
      vertex 1.14446 -0.11272 0
      vertex 1.13755 -0.16874 2.5
      vertex 1.13755 -0.16874 0
    endloop
  endfacet
  facet normal 0.997294 -0.0735229 0
    outer loop
      vertex 1.14446 -0.11272 2.5
      vertex 1.14861 -0.0564278 0
      vertex 1.14861 -0.0564278 2.5
    endloop
  endfacet
  facet normal 0.997294 -0.0735229 0
    outer loop
      vertex 1.14861 -0.0564278 0
      vertex 1.14446 -0.11272 2.5
      vertex 1.14446 -0.11272 0
    endloop
  endfacet
  facet normal 0.999697 -0.0246258 0
    outer loop
      vertex 1.14861 -0.0564278 2.5
      vertex 1.15 0 0
      vertex 1.15 0 2.5
    endloop
  endfacet
  facet normal 0.999697 -0.0246258 0
    outer loop
      vertex 1.15 0 0
      vertex 1.14861 -0.0564278 2.5
      vertex 1.14861 -0.0564278 0
    endloop
  endfacet
  facet normal 0 0 -1
    outer loop
      vertex 1.14861 -0.0564278 0
      vertex 1.14861 0.0564278 0
      vertex 1.15 0 0
    endloop
  endfacet
  facet normal 0 0 -1
    outer loop
      vertex 1.14446 -0.11272 0
      vertex 1.14861 0.0564278 0
      vertex 1.14861 -0.0564278 0
    endloop
  endfacet
  facet normal 0 0 -1
    outer loop
      vertex 1.14446 -0.11272 0
      vertex 1.14446 0.11272 0
      vertex 1.14861 0.0564278 0
    endloop
  endfacet
  facet normal 0 0 -1
    outer loop
      vertex 1.13755 -0.16874 0
      vertex 1.14446 0.11272 0
      vertex 1.14446 -0.11272 0
    endloop
  endfacet
  facet normal 0 0 -1
    outer loop
      vertex 1.13755 -0.16874 0
      vertex 1.13755 0.16874 0
      vertex 1.14446 0.11272 0
    endloop
  endfacet
  facet normal 0 0 -1
    outer loop
      vertex 1.1279 -0.224354 0
      vertex 1.13755 0.16874 0
      vertex 1.13755 -0.16874 0
    endloop
  endfacet
  facet normal 0 0 -1
    outer loop
      vertex 1.1279 -0.224354 0
      vertex 1.1279 0.224354 0
      vertex 1.13755 0.16874 0
    endloop
  endfacet
  facet normal 0 0 -1
    outer loop
      vertex 1.11554 -0.279427 0
      vertex 1.1279 0.224354 0
      vertex 1.1279 -0.224354 0
    endloop
  endfacet
  facet normal 0 0 -1
    outer loop
      vertex 1.11554 -0.279427 0
      vertex 1.11554 0.279427 0
      vertex 1.1279 0.224354 0
    endloop
  endfacet
  facet normal 0 0 -1
    outer loop
      vertex 1.10048 -0.333827 0
      vertex 1.11554 0.279427 0
      vertex 1.11554 -0.279427 0
    endloop
  endfacet
  facet normal 0 0 -1
    outer loop
      vertex 1.10048 -0.333827 0
      vertex 1.10048 0.333827 0
      vertex 1.11554 0.279427 0
    endloop
  endfacet
  facet normal 0 0 -1
    outer loop
      vertex 1.08278 -0.387423 0
      vertex 1.10048 0.333827 0
      vertex 1.10048 -0.333827 0
    endloop
  endfacet
  facet normal 0 0 -1
    outer loop
      vertex 1.08278 -0.387423 0
      vertex 1.08278 0.387423 0
      vertex 1.10048 0.333827 0
    endloop
  endfacet
  facet normal 0 0 -1
    outer loop
      vertex 1.06246 -0.440086 0
      vertex 1.08278 0.387423 0
      vertex 1.08278 -0.387423 0
    endloop
  endfacet
  facet normal 0 0 -1
    outer loop
      vertex 1.06246 -0.440086 0
      vertex 1.06246 0.440086 0
      vertex 1.08278 0.387423 0
    endloop
  endfacet
  facet normal 0 0 -1
    outer loop
      vertex 1.03959 -0.491688 0
      vertex 1.06246 0.440086 0
      vertex 1.06246 -0.440086 0
    endloop
  endfacet
  facet normal 0 0 -1
    outer loop
      vertex 1.03959 -0.491688 0
      vertex 1.03959 0.491688 0
      vertex 1.06246 0.440086 0
    endloop
  endfacet
  facet normal 0 0 -1
    outer loop
      vertex 1.01421 -0.542106 0
      vertex 1.03959 0.491688 0
      vertex 1.03959 -0.491688 0
    endloop
  endfacet
  facet normal 0 0 -1
    outer loop
      vertex 1.01421 -0.542106 0
      vertex 1.01421 0.542106 0
      vertex 1.03959 0.491688 0
    endloop
  endfacet
  facet normal 0 0 -1
    outer loop
      vertex 0.986388 -0.591218 0
      vertex 1.01421 0.542106 0
      vertex 1.01421 -0.542106 0
    endloop
  endfacet
  facet normal 0 0 -1
    outer loop
      vertex 0.986388 -0.591218 0
      vertex 0.986388 0.591218 0
      vertex 1.01421 0.542106 0
    endloop
  endfacet
  facet normal 0 0 -1
    outer loop
      vertex 0.95619 -0.638906 0
      vertex 0.986388 0.591218 0
      vertex 0.986388 -0.591218 0
    endloop
  endfacet
  facet normal 0 0 -1
    outer loop
      vertex 0.95619 -0.638906 0
      vertex 0.95619 0.638906 0
      vertex 0.986388 0.591218 0
    endloop
  endfacet
  facet normal 0 0 -1
    outer loop
      vertex 0.923689 -0.685054 0
      vertex 0.95619 0.638906 0
      vertex 0.95619 -0.638906 0
    endloop
  endfacet
  facet normal 0 0 -1
    outer loop
      vertex 0.923689 -0.685054 0
      vertex 0.923689 0.685054 0
      vertex 0.95619 0.638906 0
    endloop
  endfacet
  facet normal 0 0 -1
    outer loop
      vertex 0.888962 -0.729552 0
      vertex 0.923689 0.685054 0
      vertex 0.923689 -0.685054 0
    endloop
  endfacet
  facet normal 0 0 -1
    outer loop
      vertex 0.888962 -0.729552 0
      vertex 0.888962 0.729552 0
      vertex 0.923689 0.685054 0
    endloop
  endfacet
  facet normal 0 0 -1
    outer loop
      vertex 0.852094 -0.772293 0
      vertex 0.888962 0.729552 0
      vertex 0.888962 -0.729552 0
    endloop
  endfacet
  facet normal 0 0 -1
    outer loop
      vertex 0.852094 -0.772293 0
      vertex 0.852094 0.772293 0
      vertex 0.888962 0.729552 0
    endloop
  endfacet
  facet normal 0 0 -1
    outer loop
      vertex 0.813173 -0.813173 0
      vertex 0.852094 0.772293 0
      vertex 0.852094 -0.772293 0
    endloop
  endfacet
  facet normal 0 0 -1
    outer loop
      vertex 0.813173 -0.813173 0
      vertex 0.813173 0.813173 0
      vertex 0.852094 0.772293 0
    endloop
  endfacet
  facet normal 0 0 -1
    outer loop
      vertex 0.772293 -0.852094 0
      vertex 0.813173 0.813173 0
      vertex 0.813173 -0.813173 0
    endloop
  endfacet
  facet normal 0 0 -1
    outer loop
      vertex 0.772293 -0.852094 0
      vertex 0.772293 0.852094 0
      vertex 0.813173 0.813173 0
    endloop
  endfacet
  facet normal 0 0 -1
    outer loop
      vertex 0.729552 -0.888962 0
      vertex 0.772293 0.852094 0
      vertex 0.772293 -0.852094 0
    endloop
  endfacet
  facet normal 0 0 -1
    outer loop
      vertex 0.729552 -0.888962 0
      vertex 0.729552 0.888962 0
      vertex 0.772293 0.852094 0
    endloop
  endfacet
  facet normal 0 0 -1
    outer loop
      vertex 0.685054 -0.923689 0
      vertex 0.729552 0.888962 0
      vertex 0.729552 -0.888962 0
    endloop
  endfacet
  facet normal 0 0 -1
    outer loop
      vertex 0.685054 -0.923689 0
      vertex 0.685054 0.923689 0
      vertex 0.729552 0.888962 0
    endloop
  endfacet
  facet normal 0 0 -1
    outer loop
      vertex 0.638906 -0.95619 0
      vertex 0.685054 0.923689 0
      vertex 0.685054 -0.923689 0
    endloop
  endfacet
  facet normal 0 0 -1
    outer loop
      vertex 0.638906 -0.95619 0
      vertex 0.638906 0.95619 0
      vertex 0.685054 0.923689 0
    endloop
  endfacet
  facet normal 0 0 -1
    outer loop
      vertex 0.591218 -0.986388 0
      vertex 0.638906 0.95619 0
      vertex 0.638906 -0.95619 0
    endloop
  endfacet
  facet normal 0 0 -1
    outer loop
      vertex 0.591218 -0.986388 0
      vertex 0.591218 0.986388 0
      vertex 0.638906 0.95619 0
    endloop
  endfacet
  facet normal 0 0 -1
    outer loop
      vertex 0.542106 -1.01421 0
      vertex 0.591218 0.986388 0
      vertex 0.591218 -0.986388 0
    endloop
  endfacet
  facet normal 0 0 -1
    outer loop
      vertex 0.542106 -1.01421 0
      vertex 0.542106 1.01421 0
      vertex 0.591218 0.986388 0
    endloop
  endfacet
  facet normal 0 0 -1
    outer loop
      vertex 0.491688 -1.03959 0
      vertex 0.542106 1.01421 0
      vertex 0.542106 -1.01421 0
    endloop
  endfacet
  facet normal 0 0 -1
    outer loop
      vertex 0.491688 -1.03959 0
      vertex 0.491688 1.03959 0
      vertex 0.542106 1.01421 0
    endloop
  endfacet
  facet normal 0 0 -1
    outer loop
      vertex 0.440086 -1.06246 0
      vertex 0.491688 1.03959 0
      vertex 0.491688 -1.03959 0
    endloop
  endfacet
  facet normal 0 0 -1
    outer loop
      vertex 0.440086 -1.06246 0
      vertex 0.440086 1.06246 0
      vertex 0.491688 1.03959 0
    endloop
  endfacet
  facet normal 0 0 -1
    outer loop
      vertex 0.387423 -1.08278 0
      vertex 0.440086 1.06246 0
      vertex 0.440086 -1.06246 0
    endloop
  endfacet
  facet normal 0 0 -1
    outer loop
      vertex 0.387423 -1.08278 0
      vertex 0.387423 1.08278 0
      vertex 0.440086 1.06246 0
    endloop
  endfacet
  facet normal 0 0 -1
    outer loop
      vertex 0.333827 -1.10048 0
      vertex 0.387423 1.08278 0
      vertex 0.387423 -1.08278 0
    endloop
  endfacet
  facet normal 0 0 -1
    outer loop
      vertex 0.333827 -1.10048 0
      vertex 0.333827 1.10048 0
      vertex 0.387423 1.08278 0
    endloop
  endfacet
  facet normal 0 0 -1
    outer loop
      vertex 0.279427 -1.11554 0
      vertex 0.333827 1.10048 0
      vertex 0.333827 -1.10048 0
    endloop
  endfacet
  facet normal 0 0 -1
    outer loop
      vertex 0.279427 -1.11554 0
      vertex 0.279427 1.11554 0
      vertex 0.333827 1.10048 0
    endloop
  endfacet
  facet normal 0 0 -1
    outer loop
      vertex 0.224354 -1.1279 0
      vertex 0.279427 1.11554 0
      vertex 0.279427 -1.11554 0
    endloop
  endfacet
  facet normal 0 0 -1
    outer loop
      vertex 0.224354 -1.1279 0
      vertex 0.224354 1.1279 0
      vertex 0.279427 1.11554 0
    endloop
  endfacet
  facet normal 0 0 -1
    outer loop
      vertex 0.16874 -1.13755 0
      vertex 0.224354 1.1279 0
      vertex 0.224354 -1.1279 0
    endloop
  endfacet
  facet normal 0 0 -1
    outer loop
      vertex 0.16874 -1.13755 0
      vertex 0.16874 1.13755 0
      vertex 0.224354 1.1279 0
    endloop
  endfacet
  facet normal 0 0 -1
    outer loop
      vertex 0.11272 -1.14446 0
      vertex 0.16874 1.13755 0
      vertex 0.16874 -1.13755 0
    endloop
  endfacet
  facet normal 0 0 -1
    outer loop
      vertex 0.11272 -1.14446 0
      vertex 0.11272 1.14446 0
      vertex 0.16874 1.13755 0
    endloop
  endfacet
  facet normal 0 0 -1
    outer loop
      vertex 0.0564278 -1.14861 0
      vertex 0.11272 1.14446 0
      vertex 0.11272 -1.14446 0
    endloop
  endfacet
  facet normal 0 0 -1
    outer loop
      vertex 0.0564278 -1.14861 0
      vertex 0.0564278 1.14861 0
      vertex 0.11272 1.14446 0
    endloop
  endfacet
  facet normal 0 0 -1
    outer loop
      vertex -0 -1.15 0
      vertex 0.0564278 1.14861 0
      vertex 0.0564278 -1.14861 0
    endloop
  endfacet
  facet normal 0 0 -1
    outer loop
      vertex -0 -1.15 0
      vertex 0 1.15 0
      vertex 0.0564278 1.14861 0
    endloop
  endfacet
  facet normal 0 0 -1
    outer loop
      vertex -0.0564278 -1.14861 0
      vertex 0 1.15 0
      vertex -0 -1.15 0
    endloop
  endfacet
  facet normal 0 0 -1
    outer loop
      vertex -0.0564278 -1.14861 0
      vertex -0.0564278 1.14861 0
      vertex 0 1.15 0
    endloop
  endfacet
  facet normal 0 0 -1
    outer loop
      vertex -0.11272 -1.14446 0
      vertex -0.0564278 1.14861 0
      vertex -0.0564278 -1.14861 0
    endloop
  endfacet
  facet normal 0 0 -1
    outer loop
      vertex -0.11272 -1.14446 0
      vertex -0.11272 1.14446 0
      vertex -0.0564278 1.14861 0
    endloop
  endfacet
  facet normal 0 0 -1
    outer loop
      vertex -0.16874 -1.13755 0
      vertex -0.11272 1.14446 0
      vertex -0.11272 -1.14446 0
    endloop
  endfacet
  facet normal 0 0 -1
    outer loop
      vertex -0.16874 -1.13755 0
      vertex -0.16874 1.13755 0
      vertex -0.11272 1.14446 0
    endloop
  endfacet
  facet normal 0 0 -1
    outer loop
      vertex -0.224354 -1.1279 0
      vertex -0.16874 1.13755 0
      vertex -0.16874 -1.13755 0
    endloop
  endfacet
  facet normal 0 0 -1
    outer loop
      vertex -0.224354 -1.1279 0
      vertex -0.224354 1.1279 0
      vertex -0.16874 1.13755 0
    endloop
  endfacet
  facet normal 0 0 -1
    outer loop
      vertex -0.279427 -1.11554 0
      vertex -0.224354 1.1279 0
      vertex -0.224354 -1.1279 0
    endloop
  endfacet
  facet normal 0 0 -1
    outer loop
      vertex -0.279427 -1.11554 0
      vertex -0.279427 1.11554 0
      vertex -0.224354 1.1279 0
    endloop
  endfacet
  facet normal 0 0 -1
    outer loop
      vertex -0.333827 -1.10048 0
      vertex -0.279427 1.11554 0
      vertex -0.279427 -1.11554 0
    endloop
  endfacet
  facet normal 0 0 -1
    outer loop
      vertex -0.333827 -1.10048 0
      vertex -0.333827 1.10048 0
      vertex -0.279427 1.11554 0
    endloop
  endfacet
  facet normal 0 0 -1
    outer loop
      vertex -0.387423 -1.08278 0
      vertex -0.333827 1.10048 0
      vertex -0.333827 -1.10048 0
    endloop
  endfacet
  facet normal 0 0 -1
    outer loop
      vertex -0.387423 -1.08278 0
      vertex -0.387423 1.08278 0
      vertex -0.333827 1.10048 0
    endloop
  endfacet
  facet normal 0 0 -1
    outer loop
      vertex -0.440086 -1.06246 0
      vertex -0.387423 1.08278 0
      vertex -0.387423 -1.08278 0
    endloop
  endfacet
  facet normal 0 0 -1
    outer loop
      vertex -0.440086 -1.06246 0
      vertex -0.440086 1.06246 0
      vertex -0.387423 1.08278 0
    endloop
  endfacet
  facet normal 0 0 -1
    outer loop
      vertex -0.491688 -1.03959 0
      vertex -0.440086 1.06246 0
      vertex -0.440086 -1.06246 0
    endloop
  endfacet
  facet normal 0 0 -1
    outer loop
      vertex -0.491688 -1.03959 0
      vertex -0.491688 1.03959 0
      vertex -0.440086 1.06246 0
    endloop
  endfacet
  facet normal 0 0 -1
    outer loop
      vertex -0.542106 -1.01421 0
      vertex -0.491688 1.03959 0
      vertex -0.491688 -1.03959 0
    endloop
  endfacet
  facet normal 0 0 -1
    outer loop
      vertex -0.542106 -1.01421 0
      vertex -0.542106 1.01421 0
      vertex -0.491688 1.03959 0
    endloop
  endfacet
  facet normal 0 0 -1
    outer loop
      vertex -0.591218 -0.986388 0
      vertex -0.542106 1.01421 0
      vertex -0.542106 -1.01421 0
    endloop
  endfacet
  facet normal 0 0 -1
    outer loop
      vertex -0.591218 -0.986388 0
      vertex -0.591218 0.986388 0
      vertex -0.542106 1.01421 0
    endloop
  endfacet
  facet normal 0 0 -1
    outer loop
      vertex -0.638906 -0.95619 0
      vertex -0.591218 0.986388 0
      vertex -0.591218 -0.986388 0
    endloop
  endfacet
  facet normal 0 0 -1
    outer loop
      vertex -0.638906 -0.95619 0
      vertex -0.638906 0.95619 0
      vertex -0.591218 0.986388 0
    endloop
  endfacet
  facet normal 0 0 -1
    outer loop
      vertex -0.685054 -0.923689 0
      vertex -0.638906 0.95619 0
      vertex -0.638906 -0.95619 0
    endloop
  endfacet
  facet normal 0 0 -1
    outer loop
      vertex -0.685054 -0.923689 0
      vertex -0.685054 0.923689 0
      vertex -0.638906 0.95619 0
    endloop
  endfacet
  facet normal 0 0 -1
    outer loop
      vertex -0.729552 -0.888962 0
      vertex -0.685054 0.923689 0
      vertex -0.685054 -0.923689 0
    endloop
  endfacet
  facet normal 0 0 -1
    outer loop
      vertex -0.729552 -0.888962 0
      vertex -0.729552 0.888962 0
      vertex -0.685054 0.923689 0
    endloop
  endfacet
  facet normal 0 0 -1
    outer loop
      vertex -0.772293 -0.852094 0
      vertex -0.729552 0.888962 0
      vertex -0.729552 -0.888962 0
    endloop
  endfacet
  facet normal 0 0 -1
    outer loop
      vertex -0.772293 -0.852094 0
      vertex -0.772293 0.852094 0
      vertex -0.729552 0.888962 0
    endloop
  endfacet
  facet normal 0 0 -1
    outer loop
      vertex -0.813173 -0.813173 0
      vertex -0.772293 0.852094 0
      vertex -0.772293 -0.852094 0
    endloop
  endfacet
  facet normal 0 0 -1
    outer loop
      vertex -0.813173 -0.813173 0
      vertex -0.813173 0.813173 0
      vertex -0.772293 0.852094 0
    endloop
  endfacet
  facet normal 0 0 -1
    outer loop
      vertex -0.852094 -0.772293 0
      vertex -0.813173 0.813173 0
      vertex -0.813173 -0.813173 0
    endloop
  endfacet
  facet normal 0 0 -1
    outer loop
      vertex -0.852094 -0.772293 0
      vertex -0.852094 0.772293 0
      vertex -0.813173 0.813173 0
    endloop
  endfacet
  facet normal 0 0 -1
    outer loop
      vertex -0.888962 -0.729552 0
      vertex -0.852094 0.772293 0
      vertex -0.852094 -0.772293 0
    endloop
  endfacet
  facet normal 0 0 -1
    outer loop
      vertex -0.888962 -0.729552 0
      vertex -0.888962 0.729552 0
      vertex -0.852094 0.772293 0
    endloop
  endfacet
  facet normal 0 0 -1
    outer loop
      vertex -0.923689 -0.685054 0
      vertex -0.888962 0.729552 0
      vertex -0.888962 -0.729552 0
    endloop
  endfacet
  facet normal 0 0 -1
    outer loop
      vertex -0.923689 -0.685054 0
      vertex -0.923689 0.685054 0
      vertex -0.888962 0.729552 0
    endloop
  endfacet
  facet normal 0 0 -1
    outer loop
      vertex -0.95619 -0.638906 0
      vertex -0.923689 0.685054 0
      vertex -0.923689 -0.685054 0
    endloop
  endfacet
  facet normal 0 0 -1
    outer loop
      vertex -0.95619 -0.638906 0
      vertex -0.95619 0.638906 0
      vertex -0.923689 0.685054 0
    endloop
  endfacet
  facet normal 0 0 -1
    outer loop
      vertex -0.986388 -0.591218 0
      vertex -0.95619 0.638906 0
      vertex -0.95619 -0.638906 0
    endloop
  endfacet
  facet normal 0 0 -1
    outer loop
      vertex -0.986388 -0.591218 0
      vertex -0.986388 0.591218 0
      vertex -0.95619 0.638906 0
    endloop
  endfacet
  facet normal 0 0 -1
    outer loop
      vertex -1.01421 -0.542106 0
      vertex -0.986388 0.591218 0
      vertex -0.986388 -0.591218 0
    endloop
  endfacet
  facet normal 0 0 -1
    outer loop
      vertex -1.01421 -0.542106 0
      vertex -1.01421 0.542106 0
      vertex -0.986388 0.591218 0
    endloop
  endfacet
  facet normal 0 0 -1
    outer loop
      vertex -1.03959 -0.491688 0
      vertex -1.01421 0.542106 0
      vertex -1.01421 -0.542106 0
    endloop
  endfacet
  facet normal 0 0 -1
    outer loop
      vertex -1.03959 -0.491688 0
      vertex -1.03959 0.491688 0
      vertex -1.01421 0.542106 0
    endloop
  endfacet
  facet normal 0 0 -1
    outer loop
      vertex -1.06246 -0.440086 0
      vertex -1.03959 0.491688 0
      vertex -1.03959 -0.491688 0
    endloop
  endfacet
  facet normal 0 0 -1
    outer loop
      vertex -1.06246 -0.440086 0
      vertex -1.06246 0.440086 0
      vertex -1.03959 0.491688 0
    endloop
  endfacet
  facet normal 0 0 -1
    outer loop
      vertex -1.08278 -0.387423 0
      vertex -1.06246 0.440086 0
      vertex -1.06246 -0.440086 0
    endloop
  endfacet
  facet normal 0 0 -1
    outer loop
      vertex -1.08278 -0.387423 0
      vertex -1.08278 0.387423 0
      vertex -1.06246 0.440086 0
    endloop
  endfacet
  facet normal 0 0 -1
    outer loop
      vertex -1.10048 -0.333827 0
      vertex -1.08278 0.387423 0
      vertex -1.08278 -0.387423 0
    endloop
  endfacet
  facet normal 0 0 -1
    outer loop
      vertex -1.10048 -0.333827 0
      vertex -1.10048 0.333827 0
      vertex -1.08278 0.387423 0
    endloop
  endfacet
  facet normal 0 0 -1
    outer loop
      vertex -1.11554 -0.279427 0
      vertex -1.10048 0.333827 0
      vertex -1.10048 -0.333827 0
    endloop
  endfacet
  facet normal 0 0 -1
    outer loop
      vertex -1.11554 -0.279427 0
      vertex -1.11554 0.279427 0
      vertex -1.10048 0.333827 0
    endloop
  endfacet
  facet normal 0 0 -1
    outer loop
      vertex -1.1279 -0.224354 0
      vertex -1.11554 0.279427 0
      vertex -1.11554 -0.279427 0
    endloop
  endfacet
  facet normal 0 0 -1
    outer loop
      vertex -1.1279 -0.224354 0
      vertex -1.1279 0.224354 0
      vertex -1.11554 0.279427 0
    endloop
  endfacet
  facet normal 0 0 -1
    outer loop
      vertex -1.13755 -0.16874 0
      vertex -1.1279 0.224354 0
      vertex -1.1279 -0.224354 0
    endloop
  endfacet
  facet normal 0 0 -1
    outer loop
      vertex -1.13755 -0.16874 0
      vertex -1.13755 0.16874 0
      vertex -1.1279 0.224354 0
    endloop
  endfacet
  facet normal 0 0 -1
    outer loop
      vertex -1.14446 -0.11272 0
      vertex -1.13755 0.16874 0
      vertex -1.13755 -0.16874 0
    endloop
  endfacet
  facet normal 0 0 -1
    outer loop
      vertex -1.14446 -0.11272 0
      vertex -1.14446 0.11272 0
      vertex -1.13755 0.16874 0
    endloop
  endfacet
  facet normal 0 0 -1
    outer loop
      vertex -1.14861 -0.0564278 0
      vertex -1.14446 0.11272 0
      vertex -1.14446 -0.11272 0
    endloop
  endfacet
  facet normal 0 0 -1
    outer loop
      vertex -1.14861 -0.0564278 0
      vertex -1.14861 0.0564278 0
      vertex -1.14446 0.11272 0
    endloop
  endfacet
  facet normal 0 -0 -1
    outer loop
      vertex -1.14861 0.0564278 0
      vertex -1.14861 -0.0564278 0
      vertex -1.15 -0 0
    endloop
  endfacet
  facet normal 0 0 1
    outer loop
      vertex 1.14861 0.0564278 2.5
      vertex 1.14861 -0.0564278 2.5
      vertex 1.15 0 2.5
    endloop
  endfacet
  facet normal 0 0 1
    outer loop
      vertex 1.14446 0.11272 2.5
      vertex 1.14861 -0.0564278 2.5
      vertex 1.14861 0.0564278 2.5
    endloop
  endfacet
  facet normal 0 0 1
    outer loop
      vertex 1.14446 0.11272 2.5
      vertex 1.14446 -0.11272 2.5
      vertex 1.14861 -0.0564278 2.5
    endloop
  endfacet
  facet normal 0 0 1
    outer loop
      vertex 1.13755 0.16874 2.5
      vertex 1.14446 -0.11272 2.5
      vertex 1.14446 0.11272 2.5
    endloop
  endfacet
  facet normal 0 0 1
    outer loop
      vertex 1.13755 0.16874 2.5
      vertex 1.13755 -0.16874 2.5
      vertex 1.14446 -0.11272 2.5
    endloop
  endfacet
  facet normal 0 0 1
    outer loop
      vertex 1.1279 0.224354 2.5
      vertex 1.13755 -0.16874 2.5
      vertex 1.13755 0.16874 2.5
    endloop
  endfacet
  facet normal 0 0 1
    outer loop
      vertex 1.1279 0.224354 2.5
      vertex 1.1279 -0.224354 2.5
      vertex 1.13755 -0.16874 2.5
    endloop
  endfacet
  facet normal 0 0 1
    outer loop
      vertex 1.11554 0.279427 2.5
      vertex 1.1279 -0.224354 2.5
      vertex 1.1279 0.224354 2.5
    endloop
  endfacet
  facet normal 0 0 1
    outer loop
      vertex 1.11554 0.279427 2.5
      vertex 1.11554 -0.279427 2.5
      vertex 1.1279 -0.224354 2.5
    endloop
  endfacet
  facet normal 0 0 1
    outer loop
      vertex 1.10048 0.333827 2.5
      vertex 1.11554 -0.279427 2.5
      vertex 1.11554 0.279427 2.5
    endloop
  endfacet
  facet normal 0 0 1
    outer loop
      vertex 1.10048 0.333827 2.5
      vertex 1.10048 -0.333827 2.5
      vertex 1.11554 -0.279427 2.5
    endloop
  endfacet
  facet normal 0 0 1
    outer loop
      vertex 1.08278 0.387423 2.5
      vertex 1.10048 -0.333827 2.5
      vertex 1.10048 0.333827 2.5
    endloop
  endfacet
  facet normal 0 0 1
    outer loop
      vertex 1.08278 0.387423 2.5
      vertex 1.08278 -0.387423 2.5
      vertex 1.10048 -0.333827 2.5
    endloop
  endfacet
  facet normal 0 0 1
    outer loop
      vertex 1.06246 0.440086 2.5
      vertex 1.08278 -0.387423 2.5
      vertex 1.08278 0.387423 2.5
    endloop
  endfacet
  facet normal 0 0 1
    outer loop
      vertex 1.06246 0.440086 2.5
      vertex 1.06246 -0.440086 2.5
      vertex 1.08278 -0.387423 2.5
    endloop
  endfacet
  facet normal 0 0 1
    outer loop
      vertex 1.03959 0.491688 2.5
      vertex 1.06246 -0.440086 2.5
      vertex 1.06246 0.440086 2.5
    endloop
  endfacet
  facet normal 0 0 1
    outer loop
      vertex 1.03959 0.491688 2.5
      vertex 1.03959 -0.491688 2.5
      vertex 1.06246 -0.440086 2.5
    endloop
  endfacet
  facet normal 0 0 1
    outer loop
      vertex 1.01421 0.542106 2.5
      vertex 1.03959 -0.491688 2.5
      vertex 1.03959 0.491688 2.5
    endloop
  endfacet
  facet normal 0 0 1
    outer loop
      vertex 1.01421 0.542106 2.5
      vertex 1.01421 -0.542106 2.5
      vertex 1.03959 -0.491688 2.5
    endloop
  endfacet
  facet normal 0 0 1
    outer loop
      vertex 0.986388 0.591218 2.5
      vertex 1.01421 -0.542106 2.5
      vertex 1.01421 0.542106 2.5
    endloop
  endfacet
  facet normal 0 0 1
    outer loop
      vertex 0.986388 0.591218 2.5
      vertex 0.986388 -0.591218 2.5
      vertex 1.01421 -0.542106 2.5
    endloop
  endfacet
  facet normal 0 0 1
    outer loop
      vertex 0.95619 0.638906 2.5
      vertex 0.986388 -0.591218 2.5
      vertex 0.986388 0.591218 2.5
    endloop
  endfacet
  facet normal 0 0 1
    outer loop
      vertex 0.95619 0.638906 2.5
      vertex 0.95619 -0.638906 2.5
      vertex 0.986388 -0.591218 2.5
    endloop
  endfacet
  facet normal 0 0 1
    outer loop
      vertex 0.923689 0.685054 2.5
      vertex 0.95619 -0.638906 2.5
      vertex 0.95619 0.638906 2.5
    endloop
  endfacet
  facet normal 0 0 1
    outer loop
      vertex 0.923689 0.685054 2.5
      vertex 0.923689 -0.685054 2.5
      vertex 0.95619 -0.638906 2.5
    endloop
  endfacet
  facet normal 0 0 1
    outer loop
      vertex 0.888962 0.729552 2.5
      vertex 0.923689 -0.685054 2.5
      vertex 0.923689 0.685054 2.5
    endloop
  endfacet
  facet normal 0 0 1
    outer loop
      vertex 0.888962 0.729552 2.5
      vertex 0.888962 -0.729552 2.5
      vertex 0.923689 -0.685054 2.5
    endloop
  endfacet
  facet normal 0 0 1
    outer loop
      vertex 0.852094 0.772293 2.5
      vertex 0.888962 -0.729552 2.5
      vertex 0.888962 0.729552 2.5
    endloop
  endfacet
  facet normal 0 0 1
    outer loop
      vertex 0.852094 0.772293 2.5
      vertex 0.852094 -0.772293 2.5
      vertex 0.888962 -0.729552 2.5
    endloop
  endfacet
  facet normal 0 0 1
    outer loop
      vertex 0.813173 0.813173 2.5
      vertex 0.852094 -0.772293 2.5
      vertex 0.852094 0.772293 2.5
    endloop
  endfacet
  facet normal 0 0 1
    outer loop
      vertex 0.813173 0.813173 2.5
      vertex 0.813173 -0.813173 2.5
      vertex 0.852094 -0.772293 2.5
    endloop
  endfacet
  facet normal 0 0 1
    outer loop
      vertex 0.772293 0.852094 2.5
      vertex 0.813173 -0.813173 2.5
      vertex 0.813173 0.813173 2.5
    endloop
  endfacet
  facet normal 0 0 1
    outer loop
      vertex 0.772293 0.852094 2.5
      vertex 0.772293 -0.852094 2.5
      vertex 0.813173 -0.813173 2.5
    endloop
  endfacet
  facet normal 0 0 1
    outer loop
      vertex 0.729552 0.888962 2.5
      vertex 0.772293 -0.852094 2.5
      vertex 0.772293 0.852094 2.5
    endloop
  endfacet
  facet normal 0 0 1
    outer loop
      vertex 0.729552 0.888962 2.5
      vertex 0.729552 -0.888962 2.5
      vertex 0.772293 -0.852094 2.5
    endloop
  endfacet
  facet normal 0 0 1
    outer loop
      vertex 0.685054 0.923689 2.5
      vertex 0.729552 -0.888962 2.5
      vertex 0.729552 0.888962 2.5
    endloop
  endfacet
  facet normal 0 0 1
    outer loop
      vertex 0.685054 0.923689 2.5
      vertex 0.685054 -0.923689 2.5
      vertex 0.729552 -0.888962 2.5
    endloop
  endfacet
  facet normal 0 0 1
    outer loop
      vertex 0.638906 0.95619 2.5
      vertex 0.685054 -0.923689 2.5
      vertex 0.685054 0.923689 2.5
    endloop
  endfacet
  facet normal 0 0 1
    outer loop
      vertex 0.638906 0.95619 2.5
      vertex 0.638906 -0.95619 2.5
      vertex 0.685054 -0.923689 2.5
    endloop
  endfacet
  facet normal 0 0 1
    outer loop
      vertex 0.591218 0.986388 2.5
      vertex 0.638906 -0.95619 2.5
      vertex 0.638906 0.95619 2.5
    endloop
  endfacet
  facet normal 0 0 1
    outer loop
      vertex 0.591218 0.986388 2.5
      vertex 0.591218 -0.986388 2.5
      vertex 0.638906 -0.95619 2.5
    endloop
  endfacet
  facet normal 0 0 1
    outer loop
      vertex 0.542106 1.01421 2.5
      vertex 0.591218 -0.986388 2.5
      vertex 0.591218 0.986388 2.5
    endloop
  endfacet
  facet normal 0 0 1
    outer loop
      vertex 0.542106 1.01421 2.5
      vertex 0.542106 -1.01421 2.5
      vertex 0.591218 -0.986388 2.5
    endloop
  endfacet
  facet normal 0 0 1
    outer loop
      vertex 0.491688 1.03959 2.5
      vertex 0.542106 -1.01421 2.5
      vertex 0.542106 1.01421 2.5
    endloop
  endfacet
  facet normal 0 0 1
    outer loop
      vertex 0.491688 1.03959 2.5
      vertex 0.491688 -1.03959 2.5
      vertex 0.542106 -1.01421 2.5
    endloop
  endfacet
  facet normal 0 0 1
    outer loop
      vertex 0.440086 1.06246 2.5
      vertex 0.491688 -1.03959 2.5
      vertex 0.491688 1.03959 2.5
    endloop
  endfacet
  facet normal 0 0 1
    outer loop
      vertex 0.440086 1.06246 2.5
      vertex 0.440086 -1.06246 2.5
      vertex 0.491688 -1.03959 2.5
    endloop
  endfacet
  facet normal 0 0 1
    outer loop
      vertex 0.387423 1.08278 2.5
      vertex 0.440086 -1.06246 2.5
      vertex 0.440086 1.06246 2.5
    endloop
  endfacet
  facet normal 0 0 1
    outer loop
      vertex 0.387423 1.08278 2.5
      vertex 0.387423 -1.08278 2.5
      vertex 0.440086 -1.06246 2.5
    endloop
  endfacet
  facet normal 0 0 1
    outer loop
      vertex 0.333827 1.10048 2.5
      vertex 0.387423 -1.08278 2.5
      vertex 0.387423 1.08278 2.5
    endloop
  endfacet
  facet normal 0 0 1
    outer loop
      vertex 0.333827 1.10048 2.5
      vertex 0.333827 -1.10048 2.5
      vertex 0.387423 -1.08278 2.5
    endloop
  endfacet
  facet normal 0 0 1
    outer loop
      vertex 0.279427 1.11554 2.5
      vertex 0.333827 -1.10048 2.5
      vertex 0.333827 1.10048 2.5
    endloop
  endfacet
  facet normal 0 0 1
    outer loop
      vertex 0.279427 1.11554 2.5
      vertex 0.279427 -1.11554 2.5
      vertex 0.333827 -1.10048 2.5
    endloop
  endfacet
  facet normal 0 0 1
    outer loop
      vertex 0.224354 1.1279 2.5
      vertex 0.279427 -1.11554 2.5
      vertex 0.279427 1.11554 2.5
    endloop
  endfacet
  facet normal 0 0 1
    outer loop
      vertex 0.224354 1.1279 2.5
      vertex 0.224354 -1.1279 2.5
      vertex 0.279427 -1.11554 2.5
    endloop
  endfacet
  facet normal 0 0 1
    outer loop
      vertex 0.16874 1.13755 2.5
      vertex 0.224354 -1.1279 2.5
      vertex 0.224354 1.1279 2.5
    endloop
  endfacet
  facet normal 0 0 1
    outer loop
      vertex 0.16874 1.13755 2.5
      vertex 0.16874 -1.13755 2.5
      vertex 0.224354 -1.1279 2.5
    endloop
  endfacet
  facet normal 0 0 1
    outer loop
      vertex 0.11272 1.14446 2.5
      vertex 0.16874 -1.13755 2.5
      vertex 0.16874 1.13755 2.5
    endloop
  endfacet
  facet normal 0 0 1
    outer loop
      vertex 0.11272 1.14446 2.5
      vertex 0.11272 -1.14446 2.5
      vertex 0.16874 -1.13755 2.5
    endloop
  endfacet
  facet normal 0 0 1
    outer loop
      vertex 0.0564278 1.14861 2.5
      vertex 0.11272 -1.14446 2.5
      vertex 0.11272 1.14446 2.5
    endloop
  endfacet
  facet normal 0 0 1
    outer loop
      vertex 0.0564278 1.14861 2.5
      vertex 0.0564278 -1.14861 2.5
      vertex 0.11272 -1.14446 2.5
    endloop
  endfacet
  facet normal 0 0 1
    outer loop
      vertex 0 1.15 2.5
      vertex 0.0564278 -1.14861 2.5
      vertex 0.0564278 1.14861 2.5
    endloop
  endfacet
  facet normal 0 0 1
    outer loop
      vertex 0 1.15 2.5
      vertex -0 -1.15 2.5
      vertex 0.0564278 -1.14861 2.5
    endloop
  endfacet
  facet normal -0 0 1
    outer loop
      vertex -0.0564278 1.14861 2.5
      vertex -0 -1.15 2.5
      vertex 0 1.15 2.5
    endloop
  endfacet
  facet normal 0 0 1
    outer loop
      vertex -0.0564278 1.14861 2.5
      vertex -0.0564278 -1.14861 2.5
      vertex -0 -1.15 2.5
    endloop
  endfacet
  facet normal -0 0 1
    outer loop
      vertex -0.11272 1.14446 2.5
      vertex -0.0564278 -1.14861 2.5
      vertex -0.0564278 1.14861 2.5
    endloop
  endfacet
  facet normal 0 0 1
    outer loop
      vertex -0.11272 1.14446 2.5
      vertex -0.11272 -1.14446 2.5
      vertex -0.0564278 -1.14861 2.5
    endloop
  endfacet
  facet normal -0 0 1
    outer loop
      vertex -0.16874 1.13755 2.5
      vertex -0.11272 -1.14446 2.5
      vertex -0.11272 1.14446 2.5
    endloop
  endfacet
  facet normal 0 0 1
    outer loop
      vertex -0.16874 1.13755 2.5
      vertex -0.16874 -1.13755 2.5
      vertex -0.11272 -1.14446 2.5
    endloop
  endfacet
  facet normal -0 0 1
    outer loop
      vertex -0.224354 1.1279 2.5
      vertex -0.16874 -1.13755 2.5
      vertex -0.16874 1.13755 2.5
    endloop
  endfacet
  facet normal 0 0 1
    outer loop
      vertex -0.224354 1.1279 2.5
      vertex -0.224354 -1.1279 2.5
      vertex -0.16874 -1.13755 2.5
    endloop
  endfacet
  facet normal -0 0 1
    outer loop
      vertex -0.279427 1.11554 2.5
      vertex -0.224354 -1.1279 2.5
      vertex -0.224354 1.1279 2.5
    endloop
  endfacet
  facet normal 0 0 1
    outer loop
      vertex -0.279427 1.11554 2.5
      vertex -0.279427 -1.11554 2.5
      vertex -0.224354 -1.1279 2.5
    endloop
  endfacet
  facet normal -0 0 1
    outer loop
      vertex -0.333827 1.10048 2.5
      vertex -0.279427 -1.11554 2.5
      vertex -0.279427 1.11554 2.5
    endloop
  endfacet
  facet normal 0 0 1
    outer loop
      vertex -0.333827 1.10048 2.5
      vertex -0.333827 -1.10048 2.5
      vertex -0.279427 -1.11554 2.5
    endloop
  endfacet
  facet normal -0 0 1
    outer loop
      vertex -0.387423 1.08278 2.5
      vertex -0.333827 -1.10048 2.5
      vertex -0.333827 1.10048 2.5
    endloop
  endfacet
  facet normal 0 0 1
    outer loop
      vertex -0.387423 1.08278 2.5
      vertex -0.387423 -1.08278 2.5
      vertex -0.333827 -1.10048 2.5
    endloop
  endfacet
  facet normal -0 0 1
    outer loop
      vertex -0.440086 1.06246 2.5
      vertex -0.387423 -1.08278 2.5
      vertex -0.387423 1.08278 2.5
    endloop
  endfacet
  facet normal 0 0 1
    outer loop
      vertex -0.440086 1.06246 2.5
      vertex -0.440086 -1.06246 2.5
      vertex -0.387423 -1.08278 2.5
    endloop
  endfacet
  facet normal -0 0 1
    outer loop
      vertex -0.491688 1.03959 2.5
      vertex -0.440086 -1.06246 2.5
      vertex -0.440086 1.06246 2.5
    endloop
  endfacet
  facet normal 0 0 1
    outer loop
      vertex -0.491688 1.03959 2.5
      vertex -0.491688 -1.03959 2.5
      vertex -0.440086 -1.06246 2.5
    endloop
  endfacet
  facet normal -0 0 1
    outer loop
      vertex -0.542106 1.01421 2.5
      vertex -0.491688 -1.03959 2.5
      vertex -0.491688 1.03959 2.5
    endloop
  endfacet
  facet normal 0 0 1
    outer loop
      vertex -0.542106 1.01421 2.5
      vertex -0.542106 -1.01421 2.5
      vertex -0.491688 -1.03959 2.5
    endloop
  endfacet
  facet normal -0 0 1
    outer loop
      vertex -0.591218 0.986388 2.5
      vertex -0.542106 -1.01421 2.5
      vertex -0.542106 1.01421 2.5
    endloop
  endfacet
  facet normal 0 0 1
    outer loop
      vertex -0.591218 0.986388 2.5
      vertex -0.591218 -0.986388 2.5
      vertex -0.542106 -1.01421 2.5
    endloop
  endfacet
  facet normal -0 0 1
    outer loop
      vertex -0.638906 0.95619 2.5
      vertex -0.591218 -0.986388 2.5
      vertex -0.591218 0.986388 2.5
    endloop
  endfacet
  facet normal 0 0 1
    outer loop
      vertex -0.638906 0.95619 2.5
      vertex -0.638906 -0.95619 2.5
      vertex -0.591218 -0.986388 2.5
    endloop
  endfacet
  facet normal -0 0 1
    outer loop
      vertex -0.685054 0.923689 2.5
      vertex -0.638906 -0.95619 2.5
      vertex -0.638906 0.95619 2.5
    endloop
  endfacet
  facet normal 0 0 1
    outer loop
      vertex -0.685054 0.923689 2.5
      vertex -0.685054 -0.923689 2.5
      vertex -0.638906 -0.95619 2.5
    endloop
  endfacet
  facet normal -0 0 1
    outer loop
      vertex -0.729552 0.888962 2.5
      vertex -0.685054 -0.923689 2.5
      vertex -0.685054 0.923689 2.5
    endloop
  endfacet
  facet normal 0 0 1
    outer loop
      vertex -0.729552 0.888962 2.5
      vertex -0.729552 -0.888962 2.5
      vertex -0.685054 -0.923689 2.5
    endloop
  endfacet
  facet normal -0 0 1
    outer loop
      vertex -0.772293 0.852094 2.5
      vertex -0.729552 -0.888962 2.5
      vertex -0.729552 0.888962 2.5
    endloop
  endfacet
  facet normal 0 0 1
    outer loop
      vertex -0.772293 0.852094 2.5
      vertex -0.772293 -0.852094 2.5
      vertex -0.729552 -0.888962 2.5
    endloop
  endfacet
  facet normal -0 0 1
    outer loop
      vertex -0.813173 0.813173 2.5
      vertex -0.772293 -0.852094 2.5
      vertex -0.772293 0.852094 2.5
    endloop
  endfacet
  facet normal 0 0 1
    outer loop
      vertex -0.813173 0.813173 2.5
      vertex -0.813173 -0.813173 2.5
      vertex -0.772293 -0.852094 2.5
    endloop
  endfacet
  facet normal -0 0 1
    outer loop
      vertex -0.852094 0.772293 2.5
      vertex -0.813173 -0.813173 2.5
      vertex -0.813173 0.813173 2.5
    endloop
  endfacet
  facet normal 0 0 1
    outer loop
      vertex -0.852094 0.772293 2.5
      vertex -0.852094 -0.772293 2.5
      vertex -0.813173 -0.813173 2.5
    endloop
  endfacet
  facet normal -0 0 1
    outer loop
      vertex -0.888962 0.729552 2.5
      vertex -0.852094 -0.772293 2.5
      vertex -0.852094 0.772293 2.5
    endloop
  endfacet
  facet normal 0 0 1
    outer loop
      vertex -0.888962 0.729552 2.5
      vertex -0.888962 -0.729552 2.5
      vertex -0.852094 -0.772293 2.5
    endloop
  endfacet
  facet normal -0 0 1
    outer loop
      vertex -0.923689 0.685054 2.5
      vertex -0.888962 -0.729552 2.5
      vertex -0.888962 0.729552 2.5
    endloop
  endfacet
  facet normal 0 0 1
    outer loop
      vertex -0.923689 0.685054 2.5
      vertex -0.923689 -0.685054 2.5
      vertex -0.888962 -0.729552 2.5
    endloop
  endfacet
  facet normal -0 0 1
    outer loop
      vertex -0.95619 0.638906 2.5
      vertex -0.923689 -0.685054 2.5
      vertex -0.923689 0.685054 2.5
    endloop
  endfacet
  facet normal 0 0 1
    outer loop
      vertex -0.95619 0.638906 2.5
      vertex -0.95619 -0.638906 2.5
      vertex -0.923689 -0.685054 2.5
    endloop
  endfacet
  facet normal -0 0 1
    outer loop
      vertex -0.986388 0.591218 2.5
      vertex -0.95619 -0.638906 2.5
      vertex -0.95619 0.638906 2.5
    endloop
  endfacet
  facet normal 0 0 1
    outer loop
      vertex -0.986388 0.591218 2.5
      vertex -0.986388 -0.591218 2.5
      vertex -0.95619 -0.638906 2.5
    endloop
  endfacet
  facet normal -0 0 1
    outer loop
      vertex -1.01421 0.542106 2.5
      vertex -0.986388 -0.591218 2.5
      vertex -0.986388 0.591218 2.5
    endloop
  endfacet
  facet normal 0 0 1
    outer loop
      vertex -1.01421 0.542106 2.5
      vertex -1.01421 -0.542106 2.5
      vertex -0.986388 -0.591218 2.5
    endloop
  endfacet
  facet normal -0 0 1
    outer loop
      vertex -1.03959 0.491688 2.5
      vertex -1.01421 -0.542106 2.5
      vertex -1.01421 0.542106 2.5
    endloop
  endfacet
  facet normal 0 0 1
    outer loop
      vertex -1.03959 0.491688 2.5
      vertex -1.03959 -0.491688 2.5
      vertex -1.01421 -0.542106 2.5
    endloop
  endfacet
  facet normal -0 0 1
    outer loop
      vertex -1.06246 0.440086 2.5
      vertex -1.03959 -0.491688 2.5
      vertex -1.03959 0.491688 2.5
    endloop
  endfacet
  facet normal 0 0 1
    outer loop
      vertex -1.06246 0.440086 2.5
      vertex -1.06246 -0.440086 2.5
      vertex -1.03959 -0.491688 2.5
    endloop
  endfacet
  facet normal -0 0 1
    outer loop
      vertex -1.08278 0.387423 2.5
      vertex -1.06246 -0.440086 2.5
      vertex -1.06246 0.440086 2.5
    endloop
  endfacet
  facet normal 0 0 1
    outer loop
      vertex -1.08278 0.387423 2.5
      vertex -1.08278 -0.387423 2.5
      vertex -1.06246 -0.440086 2.5
    endloop
  endfacet
  facet normal -0 0 1
    outer loop
      vertex -1.10048 0.333827 2.5
      vertex -1.08278 -0.387423 2.5
      vertex -1.08278 0.387423 2.5
    endloop
  endfacet
  facet normal 0 0 1
    outer loop
      vertex -1.10048 0.333827 2.5
      vertex -1.10048 -0.333827 2.5
      vertex -1.08278 -0.387423 2.5
    endloop
  endfacet
  facet normal -0 0 1
    outer loop
      vertex -1.11554 0.279427 2.5
      vertex -1.10048 -0.333827 2.5
      vertex -1.10048 0.333827 2.5
    endloop
  endfacet
  facet normal 0 0 1
    outer loop
      vertex -1.11554 0.279427 2.5
      vertex -1.11554 -0.279427 2.5
      vertex -1.10048 -0.333827 2.5
    endloop
  endfacet
  facet normal -0 0 1
    outer loop
      vertex -1.1279 0.224354 2.5
      vertex -1.11554 -0.279427 2.5
      vertex -1.11554 0.279427 2.5
    endloop
  endfacet
  facet normal 0 0 1
    outer loop
      vertex -1.1279 0.224354 2.5
      vertex -1.1279 -0.224354 2.5
      vertex -1.11554 -0.279427 2.5
    endloop
  endfacet
  facet normal -0 0 1
    outer loop
      vertex -1.13755 0.16874 2.5
      vertex -1.1279 -0.224354 2.5
      vertex -1.1279 0.224354 2.5
    endloop
  endfacet
  facet normal 0 0 1
    outer loop
      vertex -1.13755 0.16874 2.5
      vertex -1.13755 -0.16874 2.5
      vertex -1.1279 -0.224354 2.5
    endloop
  endfacet
  facet normal -0 0 1
    outer loop
      vertex -1.14446 0.11272 2.5
      vertex -1.13755 -0.16874 2.5
      vertex -1.13755 0.16874 2.5
    endloop
  endfacet
  facet normal 0 0 1
    outer loop
      vertex -1.14446 0.11272 2.5
      vertex -1.14446 -0.11272 2.5
      vertex -1.13755 -0.16874 2.5
    endloop
  endfacet
  facet normal -0 0 1
    outer loop
      vertex -1.14861 0.0564278 2.5
      vertex -1.14446 -0.11272 2.5
      vertex -1.14446 0.11272 2.5
    endloop
  endfacet
  facet normal 0 0 1
    outer loop
      vertex -1.14861 0.0564278 2.5
      vertex -1.14861 -0.0564278 2.5
      vertex -1.14446 -0.11272 2.5
    endloop
  endfacet
  facet normal 0 -0 1
    outer loop
      vertex -1.14861 -0.0564278 2.5
      vertex -1.14861 0.0564278 2.5
      vertex -1.15 -0 2.5
    endloop
  endfacet
endsolid OpenSCAD_Model
